<mxfile host="Electron" agent="Mozilla/5.0 (Windows NT 10.0; Win64; x64) AppleWebKit/537.36 (KHTML, like Gecko) draw.io/27.0.9 Chrome/134.0.6998.205 Electron/35.4.0 Safari/537.36" version="27.0.9">
  <diagram name="Pagina-1" id="F_3H0GDTo8h2GXWV-McU">
    <mxGraphModel dx="-1875" dy="645" grid="1" gridSize="10" guides="1" tooltips="1" connect="1" arrows="1" fold="1" page="0" pageScale="1" pageWidth="827" pageHeight="1169" math="0" shadow="0">
      <root>
        <mxCell id="0" />
        <mxCell id="1" parent="0" />
        <mxCell id="i0QCQzi2DN3hbtzkU2qB-1" style="shape=connector;rounded=0;orthogonalLoop=1;jettySize=auto;html=1;entryX=1;entryY=1;entryDx=0;entryDy=0;strokeColor=default;align=center;verticalAlign=middle;fontFamily=Helvetica;fontSize=12;fontColor=default;labelBackgroundColor=none;endArrow=none;endFill=0;exitX=0.25;exitY=0;exitDx=0;exitDy=0;" parent="1" source="i0QCQzi2DN3hbtzkU2qB-9" target="i0QCQzi2DN3hbtzkU2qB-10" edge="1">
          <mxGeometry relative="1" as="geometry" />
        </mxCell>
        <mxCell id="i0QCQzi2DN3hbtzkU2qB-2" style="edgeStyle=none;shape=connector;rounded=0;orthogonalLoop=1;jettySize=auto;html=1;entryX=0.5;entryY=1;entryDx=0;entryDy=0;strokeColor=default;align=center;verticalAlign=middle;fontFamily=Helvetica;fontSize=12;fontColor=default;labelBackgroundColor=none;endArrow=none;endFill=0;" parent="1" source="i0QCQzi2DN3hbtzkU2qB-9" target="i0QCQzi2DN3hbtzkU2qB-11" edge="1">
          <mxGeometry relative="1" as="geometry" />
        </mxCell>
        <mxCell id="i0QCQzi2DN3hbtzkU2qB-3" style="edgeStyle=none;shape=connector;rounded=0;orthogonalLoop=1;jettySize=auto;html=1;entryX=1;entryY=0.5;entryDx=0;entryDy=0;strokeColor=default;align=center;verticalAlign=middle;fontFamily=Helvetica;fontSize=12;fontColor=default;labelBackgroundColor=none;endArrow=none;endFill=0;exitX=0;exitY=0.25;exitDx=0;exitDy=0;" parent="1" source="i0QCQzi2DN3hbtzkU2qB-9" target="i0QCQzi2DN3hbtzkU2qB-55" edge="1">
          <mxGeometry relative="1" as="geometry" />
        </mxCell>
        <mxCell id="i0QCQzi2DN3hbtzkU2qB-4" value="(1, N)" style="edgeLabel;html=1;align=center;verticalAlign=middle;resizable=0;points=[];strokeWidth=1;spacing=1;fontFamily=Helvetica;fontSize=12;fontColor=default;labelBackgroundColor=default;autosize=1;fillColor=none;gradientColor=none;" parent="i0QCQzi2DN3hbtzkU2qB-3" vertex="1" connectable="0">
          <mxGeometry x="0.5748" width="50" height="30" relative="1" as="geometry">
            <mxPoint x="-110" y="-15" as="offset" />
          </mxGeometry>
        </mxCell>
        <mxCell id="i0QCQzi2DN3hbtzkU2qB-5" style="edgeStyle=none;shape=connector;rounded=0;orthogonalLoop=1;jettySize=auto;html=1;entryX=0;entryY=1;entryDx=0;entryDy=0;strokeColor=default;align=center;verticalAlign=middle;fontFamily=Helvetica;fontSize=12;fontColor=default;labelBackgroundColor=none;autosize=1;resizable=0;endArrow=none;endFill=0;" parent="1" source="i0QCQzi2DN3hbtzkU2qB-9" target="i0QCQzi2DN3hbtzkU2qB-131" edge="1">
          <mxGeometry relative="1" as="geometry" />
        </mxCell>
        <mxCell id="i0QCQzi2DN3hbtzkU2qB-6" style="edgeStyle=none;shape=connector;rounded=0;orthogonalLoop=1;jettySize=auto;html=1;entryX=0.283;entryY=1.021;entryDx=0;entryDy=0;strokeColor=default;align=center;verticalAlign=middle;fontFamily=Helvetica;fontSize=12;fontColor=default;labelBackgroundColor=none;autosize=1;resizable=0;endArrow=none;endFill=0;exitX=0.75;exitY=0;exitDx=0;exitDy=0;entryPerimeter=0;" parent="1" source="i0QCQzi2DN3hbtzkU2qB-176" target="i0QCQzi2DN3hbtzkU2qB-145" edge="1">
          <mxGeometry relative="1" as="geometry" />
        </mxCell>
        <mxCell id="i0QCQzi2DN3hbtzkU2qB-7" style="edgeStyle=none;shape=connector;rounded=0;orthogonalLoop=1;jettySize=auto;html=1;entryX=0.5;entryY=0;entryDx=0;entryDy=0;strokeColor=default;align=center;verticalAlign=middle;fontFamily=Helvetica;fontSize=12;fontColor=default;labelBackgroundColor=default;endArrow=none;endFill=0;exitX=0.25;exitY=1;exitDx=0;exitDy=0;" parent="1" source="i0QCQzi2DN3hbtzkU2qB-9" target="i0QCQzi2DN3hbtzkU2qB-179" edge="1">
          <mxGeometry relative="1" as="geometry">
            <Array as="points" />
          </mxGeometry>
        </mxCell>
        <mxCell id="i0QCQzi2DN3hbtzkU2qB-8" value="(0, 2)" style="edgeLabel;html=1;align=center;verticalAlign=middle;resizable=0;points=[];fontFamily=Helvetica;fontSize=12;fontColor=default;labelBackgroundColor=default;" parent="i0QCQzi2DN3hbtzkU2qB-7" vertex="1" connectable="0">
          <mxGeometry x="0.5494" y="1" relative="1" as="geometry">
            <mxPoint as="offset" />
          </mxGeometry>
        </mxCell>
        <mxCell id="i0QCQzi2DN3hbtzkU2qB-544" style="edgeStyle=none;shape=connector;rounded=0;orthogonalLoop=1;jettySize=auto;html=1;entryX=0.5;entryY=0;entryDx=0;entryDy=0;strokeColor=default;align=center;verticalAlign=middle;fontFamily=Helvetica;fontSize=12;fontColor=default;labelBackgroundColor=default;resizable=0;endArrow=none;endFill=0;exitX=0;exitY=0.75;exitDx=0;exitDy=0;" parent="1" source="i0QCQzi2DN3hbtzkU2qB-9" target="i0QCQzi2DN3hbtzkU2qB-543" edge="1">
          <mxGeometry relative="1" as="geometry">
            <Array as="points">
              <mxPoint x="4710" y="914" />
            </Array>
          </mxGeometry>
        </mxCell>
        <mxCell id="i0QCQzi2DN3hbtzkU2qB-546" value="(0, N)" style="edgeLabel;html=1;align=center;verticalAlign=middle;resizable=0;points=[];fontFamily=Helvetica;fontSize=12;fontColor=default;labelBackgroundColor=default;fillColor=none;gradientColor=none;" parent="i0QCQzi2DN3hbtzkU2qB-544" vertex="1" connectable="0">
          <mxGeometry x="0.6826" y="3" relative="1" as="geometry">
            <mxPoint x="-3" y="35" as="offset" />
          </mxGeometry>
        </mxCell>
        <mxCell id="i0QCQzi2DN3hbtzkU2qB-9" value="Cockpit" style="whiteSpace=wrap;html=1;align=center;fontSize=12;labelBackgroundColor=none;" parent="1" vertex="1">
          <mxGeometry x="4923.63" y="884.1" width="100" height="40" as="geometry" />
        </mxCell>
        <mxCell id="i0QCQzi2DN3hbtzkU2qB-10" value="ID" style="ellipse;whiteSpace=wrap;html=1;align=center;fontStyle=4;fontSize=12;labelBackgroundColor=none;" parent="1" vertex="1">
          <mxGeometry x="4758.63" y="824.1" width="100" height="40" as="geometry" />
        </mxCell>
        <mxCell id="i0QCQzi2DN3hbtzkU2qB-11" value="Name" style="ellipse;whiteSpace=wrap;html=1;align=center;fontSize=12;labelBackgroundColor=none;" parent="1" vertex="1">
          <mxGeometry x="4830" y="772.05" width="100" height="40" as="geometry" />
        </mxCell>
        <mxCell id="i0QCQzi2DN3hbtzkU2qB-12" style="edgeStyle=none;shape=connector;rounded=0;orthogonalLoop=1;jettySize=auto;html=1;entryX=1;entryY=1;entryDx=0;entryDy=0;strokeColor=default;align=center;verticalAlign=middle;fontFamily=Helvetica;fontSize=12;fontColor=default;labelBackgroundColor=none;endArrow=none;endFill=0;" parent="1" source="i0QCQzi2DN3hbtzkU2qB-19" target="i0QCQzi2DN3hbtzkU2qB-20" edge="1">
          <mxGeometry relative="1" as="geometry" />
        </mxCell>
        <mxCell id="i0QCQzi2DN3hbtzkU2qB-13" style="edgeStyle=none;shape=connector;rounded=0;orthogonalLoop=1;jettySize=auto;html=1;entryX=0.5;entryY=1;entryDx=0;entryDy=0;strokeColor=default;align=center;verticalAlign=middle;fontFamily=Helvetica;fontSize=12;fontColor=default;labelBackgroundColor=none;endArrow=none;endFill=0;" parent="1" source="i0QCQzi2DN3hbtzkU2qB-19" target="i0QCQzi2DN3hbtzkU2qB-21" edge="1">
          <mxGeometry relative="1" as="geometry" />
        </mxCell>
        <mxCell id="i0QCQzi2DN3hbtzkU2qB-14" style="edgeStyle=none;shape=connector;rounded=0;orthogonalLoop=1;jettySize=auto;html=1;entryX=0.5;entryY=1;entryDx=0;entryDy=0;strokeColor=default;align=center;verticalAlign=middle;fontFamily=Helvetica;fontSize=12;fontColor=default;labelBackgroundColor=none;endArrow=none;endFill=0;" parent="1" source="i0QCQzi2DN3hbtzkU2qB-19" target="i0QCQzi2DN3hbtzkU2qB-28" edge="1">
          <mxGeometry relative="1" as="geometry" />
        </mxCell>
        <mxCell id="i0QCQzi2DN3hbtzkU2qB-15" value="" style="edgeStyle=none;shape=connector;rounded=0;orthogonalLoop=1;jettySize=auto;html=1;strokeColor=default;align=center;verticalAlign=middle;fontFamily=Helvetica;fontSize=12;fontColor=default;labelBackgroundColor=none;endArrow=none;endFill=0;entryX=0;entryY=0.5;entryDx=0;entryDy=0;" parent="1" source="i0QCQzi2DN3hbtzkU2qB-19" target="i0QCQzi2DN3hbtzkU2qB-37" edge="1">
          <mxGeometry relative="1" as="geometry">
            <mxPoint x="5980" y="787.2" as="targetPoint" />
          </mxGeometry>
        </mxCell>
        <mxCell id="i0QCQzi2DN3hbtzkU2qB-16" value="(0, N)" style="edgeLabel;html=1;align=center;verticalAlign=middle;resizable=0;points=[];strokeWidth=1;spacing=1;fontFamily=Helvetica;fontSize=12;fontColor=default;labelBackgroundColor=default;autosize=1;fillColor=none;gradientColor=none;" parent="i0QCQzi2DN3hbtzkU2qB-15" vertex="1" connectable="0">
          <mxGeometry x="0.5" y="-1" width="50" height="30" relative="1" as="geometry">
            <mxPoint x="-15" y="-16" as="offset" />
          </mxGeometry>
        </mxCell>
        <mxCell id="i0QCQzi2DN3hbtzkU2qB-17" style="edgeStyle=none;shape=connector;rounded=0;orthogonalLoop=1;jettySize=auto;html=1;entryX=0;entryY=1;entryDx=0;entryDy=0;strokeColor=default;align=center;verticalAlign=middle;fontFamily=Helvetica;fontSize=12;fontColor=default;labelBackgroundColor=none;endArrow=none;endFill=0;" parent="1" source="i0QCQzi2DN3hbtzkU2qB-19" target="i0QCQzi2DN3hbtzkU2qB-45" edge="1">
          <mxGeometry relative="1" as="geometry" />
        </mxCell>
        <mxCell id="i0QCQzi2DN3hbtzkU2qB-18" style="edgeStyle=none;shape=connector;rounded=0;orthogonalLoop=1;jettySize=auto;html=1;entryX=1;entryY=1;entryDx=0;entryDy=0;strokeColor=default;align=center;verticalAlign=middle;fontFamily=Helvetica;fontSize=12;fontColor=default;labelBackgroundColor=none;endArrow=none;endFill=0;" parent="1" source="i0QCQzi2DN3hbtzkU2qB-19" target="i0QCQzi2DN3hbtzkU2qB-388" edge="1">
          <mxGeometry relative="1" as="geometry" />
        </mxCell>
        <mxCell id="i0QCQzi2DN3hbtzkU2qB-474" style="edgeStyle=none;shape=connector;rounded=0;orthogonalLoop=1;jettySize=auto;html=1;entryX=0.5;entryY=0;entryDx=0;entryDy=0;strokeColor=default;align=center;verticalAlign=middle;fontFamily=Helvetica;fontSize=12;fontColor=default;labelBackgroundColor=default;resizable=0;endArrow=none;endFill=0;" parent="1" source="i0QCQzi2DN3hbtzkU2qB-19" target="i0QCQzi2DN3hbtzkU2qB-473" edge="1">
          <mxGeometry relative="1" as="geometry">
            <Array as="points" />
          </mxGeometry>
        </mxCell>
        <mxCell id="i0QCQzi2DN3hbtzkU2qB-477" value="(0, N)" style="edgeLabel;html=1;align=center;verticalAlign=middle;resizable=0;points=[];fontFamily=Helvetica;fontSize=12;fontColor=default;labelBackgroundColor=default;fillColor=none;gradientColor=none;" parent="i0QCQzi2DN3hbtzkU2qB-474" vertex="1" connectable="0">
          <mxGeometry x="0.5634" y="1" relative="1" as="geometry">
            <mxPoint as="offset" />
          </mxGeometry>
        </mxCell>
        <mxCell id="i0QCQzi2DN3hbtzkU2qB-19" value="User" style="whiteSpace=wrap;html=1;align=center;fontSize=12;labelBackgroundColor=none;" parent="1" vertex="1">
          <mxGeometry x="5661" y="767.1999999999999" width="100" height="40" as="geometry" />
        </mxCell>
        <mxCell id="i0QCQzi2DN3hbtzkU2qB-20" value="Username" style="ellipse;whiteSpace=wrap;html=1;align=center;fontStyle=0;fontSize=12;labelBackgroundColor=none;" parent="1" vertex="1">
          <mxGeometry x="5551" y="647.1999999999999" width="100" height="40" as="geometry" />
        </mxCell>
        <mxCell id="i0QCQzi2DN3hbtzkU2qB-21" value="Password" style="ellipse;whiteSpace=wrap;html=1;align=center;fontSize=12;labelBackgroundColor=none;" parent="1" vertex="1">
          <mxGeometry x="5661" y="657.1999999999999" width="100" height="40" as="geometry" />
        </mxCell>
        <mxCell id="i0QCQzi2DN3hbtzkU2qB-22" style="edgeStyle=orthogonalEdgeStyle;rounded=0;orthogonalLoop=1;jettySize=auto;html=1;entryX=1;entryY=0.75;entryDx=0;entryDy=0;endArrow=none;endFill=0;fontSize=12;labelBackgroundColor=none;" parent="1" source="i0QCQzi2DN3hbtzkU2qB-27" target="i0QCQzi2DN3hbtzkU2qB-9" edge="1">
          <mxGeometry relative="1" as="geometry" />
        </mxCell>
        <mxCell id="i0QCQzi2DN3hbtzkU2qB-23" value="(0, N)" style="edgeLabel;html=1;align=center;verticalAlign=middle;resizable=0;points=[];strokeWidth=1;spacing=1;fontFamily=Helvetica;fontSize=12;fontColor=default;labelBackgroundColor=default;autosize=1;fillColor=none;gradientColor=none;" parent="i0QCQzi2DN3hbtzkU2qB-22" vertex="1" connectable="0">
          <mxGeometry x="-0.5693" y="-1" width="50" height="30" relative="1" as="geometry">
            <mxPoint x="12" y="-14" as="offset" />
          </mxGeometry>
        </mxCell>
        <mxCell id="i0QCQzi2DN3hbtzkU2qB-24" style="edgeStyle=orthogonalEdgeStyle;shape=connector;rounded=0;orthogonalLoop=1;jettySize=auto;html=1;entryX=0;entryY=0.5;entryDx=0;entryDy=0;strokeColor=default;align=center;verticalAlign=middle;fontFamily=Helvetica;fontSize=12;fontColor=default;labelBackgroundColor=none;endArrow=none;endFill=0;exitX=0.5;exitY=0;exitDx=0;exitDy=0;" parent="1" source="i0QCQzi2DN3hbtzkU2qB-27" target="i0QCQzi2DN3hbtzkU2qB-19" edge="1">
          <mxGeometry relative="1" as="geometry">
            <mxPoint x="5264.67" y="904.1" as="sourcePoint" />
          </mxGeometry>
        </mxCell>
        <mxCell id="i0QCQzi2DN3hbtzkU2qB-25" value="(0, N)" style="edgeLabel;html=1;align=center;verticalAlign=middle;resizable=0;points=[];strokeWidth=1;spacing=1;fontFamily=Helvetica;fontSize=12;fontColor=default;labelBackgroundColor=default;autosize=1;fillColor=none;gradientColor=none;" parent="i0QCQzi2DN3hbtzkU2qB-24" vertex="1" connectable="0">
          <mxGeometry x="-0.4387" y="-1" width="50" height="30" relative="1" as="geometry">
            <mxPoint x="-26" y="15" as="offset" />
          </mxGeometry>
        </mxCell>
        <mxCell id="i0QCQzi2DN3hbtzkU2qB-27" value="Owner" style="shape=rhombus;perimeter=rhombusPerimeter;whiteSpace=wrap;html=1;align=center;fontSize=12;labelBackgroundColor=none;" parent="1" vertex="1">
          <mxGeometry x="5450" y="884.1000000000001" width="120" height="60" as="geometry" />
        </mxCell>
        <mxCell id="i0QCQzi2DN3hbtzkU2qB-28" value="Last Access" style="ellipse;whiteSpace=wrap;html=1;align=center;fontFamily=Helvetica;fontSize=12;fontColor=default;labelBackgroundColor=none;" parent="1" vertex="1">
          <mxGeometry x="5761" y="623.1" width="100" height="40" as="geometry" />
        </mxCell>
        <mxCell id="i0QCQzi2DN3hbtzkU2qB-29" style="edgeStyle=none;shape=connector;rounded=0;orthogonalLoop=1;jettySize=auto;html=1;entryX=0.5;entryY=1;entryDx=0;entryDy=0;strokeColor=default;align=center;verticalAlign=middle;fontFamily=Helvetica;fontSize=12;fontColor=default;labelBackgroundColor=none;endArrow=none;endFill=0;" parent="1" source="i0QCQzi2DN3hbtzkU2qB-34" target="i0QCQzi2DN3hbtzkU2qB-38" edge="1">
          <mxGeometry relative="1" as="geometry" />
        </mxCell>
        <mxCell id="i0QCQzi2DN3hbtzkU2qB-30" style="edgeStyle=none;shape=connector;rounded=0;orthogonalLoop=1;jettySize=auto;html=1;entryX=0;entryY=1;entryDx=0;entryDy=0;strokeColor=default;align=center;verticalAlign=middle;fontFamily=Helvetica;fontSize=12;fontColor=default;labelBackgroundColor=none;endArrow=none;endFill=0;" parent="1" source="i0QCQzi2DN3hbtzkU2qB-34" target="i0QCQzi2DN3hbtzkU2qB-41" edge="1">
          <mxGeometry relative="1" as="geometry" />
        </mxCell>
        <mxCell id="i0QCQzi2DN3hbtzkU2qB-453" style="edgeStyle=none;shape=connector;rounded=0;orthogonalLoop=1;jettySize=auto;html=1;entryX=1;entryY=0.5;entryDx=0;entryDy=0;strokeColor=default;align=center;verticalAlign=middle;fontFamily=Helvetica;fontSize=12;fontColor=default;labelBackgroundColor=none;endArrow=none;endFill=0;exitX=0.25;exitY=0;exitDx=0;exitDy=0;" parent="1" source="i0QCQzi2DN3hbtzkU2qB-34" target="i0QCQzi2DN3hbtzkU2qB-451" edge="1">
          <mxGeometry relative="1" as="geometry">
            <Array as="points">
              <mxPoint x="6505" y="560" />
            </Array>
          </mxGeometry>
        </mxCell>
        <mxCell id="i0QCQzi2DN3hbtzkU2qB-455" value="(1, 1)" style="edgeLabel;html=1;align=center;verticalAlign=middle;resizable=0;points=[];fontFamily=Helvetica;fontSize=12;fontColor=default;labelBackgroundColor=default;" parent="i0QCQzi2DN3hbtzkU2qB-453" vertex="1" connectable="0">
          <mxGeometry x="0.7158" y="-2" relative="1" as="geometry">
            <mxPoint x="-66" y="2" as="offset" />
          </mxGeometry>
        </mxCell>
        <mxCell id="i0QCQzi2DN3hbtzkU2qB-480" style="edgeStyle=none;shape=connector;rounded=0;orthogonalLoop=1;jettySize=auto;html=1;entryX=1;entryY=0.5;entryDx=0;entryDy=0;strokeColor=default;align=center;verticalAlign=middle;fontFamily=Helvetica;fontSize=12;fontColor=default;labelBackgroundColor=default;resizable=0;endArrow=none;endFill=0;exitX=0.25;exitY=1;exitDx=0;exitDy=0;" parent="1" source="i0QCQzi2DN3hbtzkU2qB-34" target="i0QCQzi2DN3hbtzkU2qB-478" edge="1">
          <mxGeometry relative="1" as="geometry">
            <Array as="points">
              <mxPoint x="6505" y="1045" />
            </Array>
          </mxGeometry>
        </mxCell>
        <mxCell id="i0QCQzi2DN3hbtzkU2qB-481" value="(0, N)" style="edgeLabel;html=1;align=center;verticalAlign=middle;resizable=0;points=[];fontFamily=Helvetica;fontSize=12;fontColor=default;labelBackgroundColor=default;fillColor=none;gradientColor=none;" parent="i0QCQzi2DN3hbtzkU2qB-480" vertex="1" connectable="0">
          <mxGeometry x="0.4834" relative="1" as="geometry">
            <mxPoint x="-55" as="offset" />
          </mxGeometry>
        </mxCell>
        <mxCell id="i0QCQzi2DN3hbtzkU2qB-34" value="Procedures" style="whiteSpace=wrap;html=1;align=center;fontFamily=Helvetica;fontSize=12;labelBackgroundColor=none;fillColor=#fad9d5;strokeColor=#ae4132;" parent="1" vertex="1">
          <mxGeometry x="6480" y="770" width="100" height="40" as="geometry" />
        </mxCell>
        <mxCell id="i0QCQzi2DN3hbtzkU2qB-35" value="" style="edgeStyle=none;shape=connector;rounded=0;orthogonalLoop=1;jettySize=auto;html=1;strokeColor=default;align=center;verticalAlign=middle;fontFamily=Helvetica;fontSize=12;fontColor=default;labelBackgroundColor=none;endArrow=none;endFill=0;exitX=1;exitY=0.5;exitDx=0;exitDy=0;entryX=0;entryY=0.5;entryDx=0;entryDy=0;" parent="1" source="i0QCQzi2DN3hbtzkU2qB-37" target="i0QCQzi2DN3hbtzkU2qB-34" edge="1">
          <mxGeometry relative="1" as="geometry">
            <mxPoint x="5864.67" y="914.1" as="sourcePoint" />
            <Array as="points">
              <mxPoint x="6360" y="789" />
            </Array>
          </mxGeometry>
        </mxCell>
        <mxCell id="i0QCQzi2DN3hbtzkU2qB-36" value="(1, 1)" style="edgeLabel;html=1;align=center;verticalAlign=middle;resizable=0;points=[];strokeWidth=1;spacing=1;fontFamily=Helvetica;fontSize=12;fontColor=default;labelBackgroundColor=default;autosize=1;fillColor=none;gradientColor=none;" parent="i0QCQzi2DN3hbtzkU2qB-35" vertex="1" connectable="0">
          <mxGeometry x="-0.4989" width="50" height="30" relative="1" as="geometry">
            <mxPoint x="-104" y="-15" as="offset" />
          </mxGeometry>
        </mxCell>
        <mxCell id="i0QCQzi2DN3hbtzkU2qB-37" value="Creator" style="shape=rhombus;perimeter=rhombusPerimeter;whiteSpace=wrap;html=1;align=center;fontFamily=Helvetica;fontSize=12;labelBackgroundColor=none;" parent="1" vertex="1">
          <mxGeometry x="5980" y="759.2" width="120" height="60" as="geometry" />
        </mxCell>
        <mxCell id="i0QCQzi2DN3hbtzkU2qB-38" value="ID" style="ellipse;whiteSpace=wrap;html=1;align=center;fontStyle=4;fontFamily=Helvetica;fontSize=12;fontColor=default;labelBackgroundColor=none;" parent="1" vertex="1">
          <mxGeometry x="6560" y="614.0999999999999" width="100" height="40" as="geometry" />
        </mxCell>
        <mxCell id="i0QCQzi2DN3hbtzkU2qB-39" value="" style="edgeStyle=none;shape=connector;rounded=0;orthogonalLoop=1;jettySize=auto;html=1;strokeColor=default;align=center;verticalAlign=middle;fontFamily=Helvetica;fontSize=12;fontColor=default;labelBackgroundColor=none;endArrow=none;endFill=0;" parent="1" source="i0QCQzi2DN3hbtzkU2qB-40" target="i0QCQzi2DN3hbtzkU2qB-34" edge="1">
          <mxGeometry relative="1" as="geometry" />
        </mxCell>
        <mxCell id="i0QCQzi2DN3hbtzkU2qB-40" value="Name" style="ellipse;whiteSpace=wrap;html=1;align=center;fontFamily=Helvetica;fontSize=12;fontColor=default;labelBackgroundColor=none;" parent="1" vertex="1">
          <mxGeometry x="6630" y="657.2" width="100" height="40" as="geometry" />
        </mxCell>
        <mxCell id="i0QCQzi2DN3hbtzkU2qB-41" value="XML&lt;div&gt;&amp;nbsp;File Path&lt;/div&gt;" style="ellipse;whiteSpace=wrap;html=1;align=center;fontFamily=Helvetica;fontSize=12;fontColor=default;labelBackgroundColor=none;" parent="1" vertex="1">
          <mxGeometry x="6670" y="711.0500000000001" width="100" height="40" as="geometry" />
        </mxCell>
        <mxCell id="i0QCQzi2DN3hbtzkU2qB-45" value="Role" style="ellipse;whiteSpace=wrap;html=1;align=center;fontFamily=Helvetica;fontSize=12;fontColor=default;labelBackgroundColor=none;" parent="1" vertex="1">
          <mxGeometry x="5850" y="671.0500000000001" width="100" height="40" as="geometry" />
        </mxCell>
        <mxCell id="i0QCQzi2DN3hbtzkU2qB-46" style="edgeStyle=none;shape=connector;rounded=0;orthogonalLoop=1;jettySize=auto;html=1;entryX=0;entryY=1;entryDx=0;entryDy=0;strokeColor=default;align=center;verticalAlign=middle;fontFamily=Helvetica;fontSize=12;fontColor=default;labelBackgroundColor=none;endArrow=none;endFill=0;exitX=0.961;exitY=0.028;exitDx=0;exitDy=0;exitPerimeter=0;" parent="1" source="i0QCQzi2DN3hbtzkU2qB-447" target="i0QCQzi2DN3hbtzkU2qB-56" edge="1">
          <mxGeometry relative="1" as="geometry">
            <mxPoint x="3813" y="884.2422023407514" as="sourcePoint" />
          </mxGeometry>
        </mxCell>
        <mxCell id="i0QCQzi2DN3hbtzkU2qB-47" style="edgeStyle=none;shape=connector;rounded=0;orthogonalLoop=1;jettySize=auto;html=1;entryX=0.5;entryY=1;entryDx=0;entryDy=0;strokeColor=default;align=center;verticalAlign=middle;fontFamily=Helvetica;fontSize=12;fontColor=default;labelBackgroundColor=none;endArrow=none;endFill=0;exitX=0.75;exitY=0;exitDx=0;exitDy=0;" parent="1" source="i0QCQzi2DN3hbtzkU2qB-447" target="i0QCQzi2DN3hbtzkU2qB-57" edge="1">
          <mxGeometry relative="1" as="geometry">
            <mxPoint x="3782.3392425463344" y="884.0999999999999" as="sourcePoint" />
          </mxGeometry>
        </mxCell>
        <mxCell id="i0QCQzi2DN3hbtzkU2qB-48" style="edgeStyle=none;shape=connector;rounded=0;orthogonalLoop=1;jettySize=auto;html=1;entryX=0.696;entryY=0.969;entryDx=0;entryDy=0;strokeColor=default;align=center;verticalAlign=middle;fontFamily=Helvetica;fontSize=12;fontColor=default;labelBackgroundColor=none;endArrow=none;endFill=0;entryPerimeter=0;exitX=0.5;exitY=0;exitDx=0;exitDy=0;" parent="1" source="i0QCQzi2DN3hbtzkU2qB-447" target="i0QCQzi2DN3hbtzkU2qB-191" edge="1">
          <mxGeometry relative="1" as="geometry">
            <mxPoint x="3725.0215545395167" y="884.0999999999999" as="sourcePoint" />
          </mxGeometry>
        </mxCell>
        <mxCell id="i0QCQzi2DN3hbtzkU2qB-51" style="edgeStyle=none;shape=connector;rounded=0;orthogonalLoop=1;jettySize=auto;html=1;entryX=1;entryY=1;entryDx=0;entryDy=0;strokeColor=default;align=center;verticalAlign=middle;fontFamily=Helvetica;fontSize=12;fontColor=default;labelBackgroundColor=none;endArrow=none;endFill=0;exitX=0.25;exitY=0;exitDx=0;exitDy=0;" parent="1" source="i0QCQzi2DN3hbtzkU2qB-447" target="i0QCQzi2DN3hbtzkU2qB-375" edge="1">
          <mxGeometry relative="1" as="geometry">
            <mxPoint x="3726.5200364960974" y="924.0999999999999" as="sourcePoint" />
          </mxGeometry>
        </mxCell>
        <mxCell id="i0QCQzi2DN3hbtzkU2qB-52" value="" style="edgeStyle=none;shape=connector;rounded=0;orthogonalLoop=1;jettySize=auto;html=1;strokeColor=default;align=center;verticalAlign=middle;fontFamily=Helvetica;fontSize=12;fontColor=default;labelBackgroundColor=none;endArrow=none;endFill=0;entryX=1;entryY=0.5;entryDx=0;entryDy=0;" parent="1" source="i0QCQzi2DN3hbtzkU2qB-55" target="i0QCQzi2DN3hbtzkU2qB-447" edge="1">
          <mxGeometry relative="1" as="geometry">
            <mxPoint x="3813" y="904.0999999999999" as="targetPoint" />
          </mxGeometry>
        </mxCell>
        <mxCell id="i0QCQzi2DN3hbtzkU2qB-53" value="(1, 1)" style="edgeLabel;html=1;align=center;verticalAlign=middle;resizable=0;points=[];strokeWidth=1;spacing=1;fontFamily=Helvetica;fontSize=12;fontColor=default;labelBackgroundColor=default;autosize=1;fillColor=none;gradientColor=none;" parent="i0QCQzi2DN3hbtzkU2qB-52" vertex="1" connectable="0">
          <mxGeometry x="0.004" y="-1" width="50" height="30" relative="1" as="geometry">
            <mxPoint x="90" y="-14" as="offset" />
          </mxGeometry>
        </mxCell>
        <mxCell id="i0QCQzi2DN3hbtzkU2qB-54" style="rounded=0;orthogonalLoop=1;jettySize=auto;html=1;endArrow=oval;endFill=1;endSize=12;" parent="1" source="i0QCQzi2DN3hbtzkU2qB-55" edge="1">
          <mxGeometry relative="1" as="geometry">
            <mxPoint x="3887" y="840" as="targetPoint" />
          </mxGeometry>
        </mxCell>
        <mxCell id="i0QCQzi2DN3hbtzkU2qB-55" value="Belong to" style="shape=rhombus;perimeter=rhombusPerimeter;whiteSpace=wrap;html=1;align=center;fontFamily=Helvetica;fontSize=12;labelBackgroundColor=none;" parent="1" vertex="1">
          <mxGeometry x="4161" y="865.1" width="120" height="60" as="geometry" />
        </mxCell>
        <mxCell id="i0QCQzi2DN3hbtzkU2qB-56" value="ID" style="ellipse;whiteSpace=wrap;html=1;align=center;fontStyle=4;fontFamily=Helvetica;fontSize=12;fontColor=default;labelBackgroundColor=none;" parent="1" vertex="1">
          <mxGeometry x="3951" y="804.1" width="100" height="40" as="geometry" />
        </mxCell>
        <mxCell id="i0QCQzi2DN3hbtzkU2qB-57" value="Name" style="ellipse;whiteSpace=wrap;html=1;align=center;fontFamily=Helvetica;fontSize=12;fontColor=default;labelBackgroundColor=none;" parent="1" vertex="1">
          <mxGeometry x="3833" y="740" width="100" height="40" as="geometry" />
        </mxCell>
        <mxCell id="i0QCQzi2DN3hbtzkU2qB-58" value="" style="edgeStyle=none;shape=connector;rounded=0;orthogonalLoop=1;jettySize=auto;html=1;strokeColor=default;align=center;verticalAlign=middle;fontFamily=Helvetica;fontSize=12;fontColor=default;labelBackgroundColor=none;endArrow=none;endFill=0;entryX=0.62;entryY=0;entryDx=0;entryDy=0;entryPerimeter=0;" parent="1" source="i0QCQzi2DN3hbtzkU2qB-59" target="i0QCQzi2DN3hbtzkU2qB-447" edge="1">
          <mxGeometry relative="1" as="geometry">
            <mxPoint x="3765.545454545455" y="884.0999999999999" as="targetPoint" />
          </mxGeometry>
        </mxCell>
        <mxCell id="i0QCQzi2DN3hbtzkU2qB-59" value="Coordinates&lt;div&gt;wrt robot&lt;/div&gt;" style="ellipse;whiteSpace=wrap;html=1;align=center;fontFamily=Helvetica;fontSize=12;labelBackgroundColor=none;fillColor=#fff2cc;strokeColor=#d6b656;" parent="1" vertex="1">
          <mxGeometry x="3755" y="690" width="100" height="44.1" as="geometry" />
        </mxCell>
        <mxCell id="i0QCQzi2DN3hbtzkU2qB-61" style="edgeStyle=none;shape=connector;rounded=0;orthogonalLoop=1;jettySize=auto;html=1;entryX=0.5;entryY=1;entryDx=0;entryDy=0;strokeColor=default;align=center;verticalAlign=middle;fontFamily=Helvetica;fontSize=12;fontColor=default;labelBackgroundColor=none;autosize=1;resizable=0;endArrow=none;endFill=0;exitX=0.5;exitY=0;exitDx=0;exitDy=0;" parent="1" source="i0QCQzi2DN3hbtzkU2qB-448" target="i0QCQzi2DN3hbtzkU2qB-67" edge="1">
          <mxGeometry relative="1" as="geometry">
            <mxPoint x="3804.21" y="1330.9" as="sourcePoint" />
          </mxGeometry>
        </mxCell>
        <mxCell id="i0QCQzi2DN3hbtzkU2qB-62" value="(1, 1)" style="edgeLabel;html=1;align=center;verticalAlign=middle;resizable=0;points=[];strokeWidth=1;spacing=1;fontFamily=Helvetica;fontSize=12;fontColor=default;labelBackgroundColor=default;autosize=1;fillColor=none;gradientColor=none;" parent="i0QCQzi2DN3hbtzkU2qB-61" vertex="1" connectable="0">
          <mxGeometry x="0.7342" y="1" width="50" height="30" relative="1" as="geometry">
            <mxPoint x="-24" y="-1" as="offset" />
          </mxGeometry>
        </mxCell>
        <mxCell id="i0QCQzi2DN3hbtzkU2qB-65" style="edgeStyle=none;shape=connector;rounded=0;orthogonalLoop=1;jettySize=auto;html=1;entryX=0.5;entryY=1;entryDx=0;entryDy=0;strokeColor=default;align=center;verticalAlign=middle;fontFamily=Helvetica;fontSize=12;fontColor=default;labelBackgroundColor=none;autosize=1;resizable=0;endArrow=none;endFill=0;" parent="1" source="i0QCQzi2DN3hbtzkU2qB-67" target="i0QCQzi2DN3hbtzkU2qB-447" edge="1">
          <mxGeometry relative="1" as="geometry">
            <mxPoint x="3956" y="904.0999999999999" as="targetPoint" />
          </mxGeometry>
        </mxCell>
        <mxCell id="i0QCQzi2DN3hbtzkU2qB-66" value="(1, N)" style="edgeLabel;html=1;align=center;verticalAlign=middle;resizable=0;points=[];strokeWidth=1;spacing=1;fontFamily=Helvetica;fontSize=12;fontColor=default;labelBackgroundColor=default;autosize=1;fillColor=none;gradientColor=none;" parent="i0QCQzi2DN3hbtzkU2qB-65" vertex="1" connectable="0">
          <mxGeometry x="0.0036" y="-1" width="50" height="30" relative="1" as="geometry">
            <mxPoint x="-26" y="58" as="offset" />
          </mxGeometry>
        </mxCell>
        <mxCell id="i0QCQzi2DN3hbtzkU2qB-67" value="Belong" style="shape=rhombus;perimeter=rhombusPerimeter;whiteSpace=wrap;html=1;align=center;fontFamily=Helvetica;fontSize=12;labelBackgroundColor=none;" parent="1" vertex="1">
          <mxGeometry x="3705" y="1130" width="120" height="60" as="geometry" />
        </mxCell>
        <mxCell id="i0QCQzi2DN3hbtzkU2qB-70" style="edgeStyle=none;shape=connector;rounded=0;orthogonalLoop=1;jettySize=auto;html=1;entryX=0;entryY=0.5;entryDx=0;entryDy=0;strokeColor=default;align=center;verticalAlign=middle;fontFamily=Helvetica;fontSize=12;fontColor=default;labelBackgroundColor=none;endArrow=none;endFill=0;exitX=1.004;exitY=0.348;exitDx=0;exitDy=0;exitPerimeter=0;" parent="1" source="i0QCQzi2DN3hbtzkU2qB-448" target="i0QCQzi2DN3hbtzkU2qB-108" edge="1">
          <mxGeometry relative="1" as="geometry">
            <mxPoint x="3945.17" y="1700.67" as="sourcePoint" />
            <Array as="points" />
          </mxGeometry>
        </mxCell>
        <mxCell id="i0QCQzi2DN3hbtzkU2qB-71" value="(0, N)" style="edgeLabel;html=1;align=center;verticalAlign=middle;resizable=0;points=[];strokeWidth=1;spacing=1;fontFamily=Helvetica;fontSize=12;fontColor=default;labelBackgroundColor=default;autosize=1;fillColor=none;gradientColor=none;" parent="i0QCQzi2DN3hbtzkU2qB-70" vertex="1" connectable="0">
          <mxGeometry x="0.6689" y="2" width="50" height="30" relative="1" as="geometry">
            <mxPoint x="-11" y="-14" as="offset" />
          </mxGeometry>
        </mxCell>
        <mxCell id="i0QCQzi2DN3hbtzkU2qB-72" style="edgeStyle=none;shape=connector;rounded=0;orthogonalLoop=1;jettySize=auto;html=1;entryX=0.367;entryY=1.017;entryDx=0;entryDy=0;strokeColor=default;align=center;verticalAlign=middle;fontFamily=Helvetica;fontSize=12;fontColor=default;labelBackgroundColor=none;endArrow=none;endFill=0;entryPerimeter=0;" parent="1" source="i0QCQzi2DN3hbtzkU2qB-82" target="i0QCQzi2DN3hbtzkU2qB-83" edge="1">
          <mxGeometry relative="1" as="geometry" />
        </mxCell>
        <mxCell id="i0QCQzi2DN3hbtzkU2qB-73" style="edgeStyle=none;shape=connector;rounded=0;orthogonalLoop=1;jettySize=auto;html=1;entryX=0;entryY=1;entryDx=0;entryDy=0;strokeColor=default;align=center;verticalAlign=middle;fontFamily=Helvetica;fontSize=12;fontColor=default;labelBackgroundColor=none;endArrow=none;endFill=0;" parent="1" source="i0QCQzi2DN3hbtzkU2qB-82" target="i0QCQzi2DN3hbtzkU2qB-84" edge="1">
          <mxGeometry relative="1" as="geometry" />
        </mxCell>
        <mxCell id="i0QCQzi2DN3hbtzkU2qB-75" style="edgeStyle=none;shape=connector;rounded=0;orthogonalLoop=1;jettySize=auto;html=1;entryX=0.5;entryY=1;entryDx=0;entryDy=0;strokeColor=default;align=center;verticalAlign=middle;fontFamily=Helvetica;fontSize=12;fontColor=default;labelBackgroundColor=none;endArrow=none;endFill=0;" parent="1" source="i0QCQzi2DN3hbtzkU2qB-82" target="i0QCQzi2DN3hbtzkU2qB-103" edge="1">
          <mxGeometry relative="1" as="geometry" />
        </mxCell>
        <mxCell id="i0QCQzi2DN3hbtzkU2qB-76" style="edgeStyle=none;shape=connector;rounded=0;orthogonalLoop=1;jettySize=auto;html=1;entryX=1;entryY=0.5;entryDx=0;entryDy=0;strokeColor=default;align=center;verticalAlign=middle;fontFamily=Helvetica;fontSize=12;fontColor=default;labelBackgroundColor=none;autosize=1;resizable=0;endArrow=none;endFill=0;exitX=0.25;exitY=1;exitDx=0;exitDy=0;" parent="1" source="i0QCQzi2DN3hbtzkU2qB-448" target="i0QCQzi2DN3hbtzkU2qB-134" edge="1">
          <mxGeometry relative="1" as="geometry">
            <mxPoint x="3845.17" y="1700.67" as="sourcePoint" />
            <Array as="points">
              <mxPoint x="3740" y="1700" />
            </Array>
          </mxGeometry>
        </mxCell>
        <mxCell id="i0QCQzi2DN3hbtzkU2qB-77" value="(0, N)" style="edgeLabel;html=1;align=center;verticalAlign=middle;resizable=0;points=[];strokeColor=default;fontFamily=Helvetica;fontSize=12;fontColor=default;fillColor=default;labelBackgroundColor=default;" parent="i0QCQzi2DN3hbtzkU2qB-76" vertex="1" connectable="0">
          <mxGeometry x="0.7285" relative="1" as="geometry">
            <mxPoint x="-9" as="offset" />
          </mxGeometry>
        </mxCell>
        <mxCell id="i0QCQzi2DN3hbtzkU2qB-78" style="edgeStyle=none;shape=connector;rounded=0;orthogonalLoop=1;jettySize=auto;html=1;entryX=0;entryY=0.5;entryDx=0;entryDy=0;strokeColor=default;align=center;verticalAlign=middle;fontFamily=Helvetica;fontSize=12;fontColor=default;labelBackgroundColor=none;endArrow=none;endFill=0;exitX=0.656;exitY=0.981;exitDx=0;exitDy=0;exitPerimeter=0;" parent="1" source="i0QCQzi2DN3hbtzkU2qB-448" target="i0QCQzi2DN3hbtzkU2qB-202" edge="1">
          <mxGeometry relative="1" as="geometry">
            <mxPoint x="3845.17" y="1680.67" as="sourcePoint" />
            <Array as="points">
              <mxPoint x="3781" y="1810" />
            </Array>
          </mxGeometry>
        </mxCell>
        <mxCell id="i0QCQzi2DN3hbtzkU2qB-79" value="(0, N)" style="edgeLabel;html=1;align=center;verticalAlign=middle;resizable=0;points=[];fontFamily=Helvetica;fontSize=12;fontColor=default;labelBackgroundColor=default;" parent="i0QCQzi2DN3hbtzkU2qB-78" vertex="1" connectable="0">
          <mxGeometry x="0.6409" y="1" relative="1" as="geometry">
            <mxPoint x="42" y="1" as="offset" />
          </mxGeometry>
        </mxCell>
        <mxCell id="i0QCQzi2DN3hbtzkU2qB-80" style="edgeStyle=none;shape=connector;rounded=0;orthogonalLoop=1;jettySize=auto;html=1;entryX=0.5;entryY=0;entryDx=0;entryDy=0;strokeColor=default;align=center;verticalAlign=middle;fontFamily=Helvetica;fontSize=12;fontColor=default;labelBackgroundColor=none;endArrow=none;endFill=0;exitX=0.75;exitY=1;exitDx=0;exitDy=0;" parent="1" source="i0QCQzi2DN3hbtzkU2qB-82" target="i0QCQzi2DN3hbtzkU2qB-384" edge="1">
          <mxGeometry relative="1" as="geometry">
            <mxPoint x="2401.9999999999995" y="1688.1" as="targetPoint" />
          </mxGeometry>
        </mxCell>
        <mxCell id="i0QCQzi2DN3hbtzkU2qB-81" value="(1, N)" style="edgeLabel;html=1;align=center;verticalAlign=middle;resizable=0;points=[];fontFamily=Helvetica;fontSize=12;fontColor=default;labelBackgroundColor=default;" parent="i0QCQzi2DN3hbtzkU2qB-80" vertex="1" connectable="0">
          <mxGeometry x="0.5949" y="-1" relative="1" as="geometry">
            <mxPoint x="1" y="-12" as="offset" />
          </mxGeometry>
        </mxCell>
        <mxCell id="i0QCQzi2DN3hbtzkU2qB-82" value="Component State" style="whiteSpace=wrap;html=1;align=center;verticalAlign=middle;fontFamily=Helvetica;fontSize=12;labelBackgroundColor=none;" parent="1" vertex="1">
          <mxGeometry x="3223.9999999999995" y="1255.77" width="100" height="40" as="geometry" />
        </mxCell>
        <mxCell id="i0QCQzi2DN3hbtzkU2qB-83" value="ID" style="ellipse;whiteSpace=wrap;html=1;align=center;fontStyle=4;strokeColor=default;verticalAlign=middle;fontFamily=Helvetica;fontSize=12;fontColor=default;labelBackgroundColor=none;fillColor=default;" parent="1" vertex="1">
          <mxGeometry x="3259.9999999999995" y="1132" width="100" height="40" as="geometry" />
        </mxCell>
        <mxCell id="i0QCQzi2DN3hbtzkU2qB-84" value="Name" style="ellipse;whiteSpace=wrap;html=1;align=center;strokeColor=default;verticalAlign=middle;fontFamily=Helvetica;fontSize=12;fontColor=default;labelBackgroundColor=none;fillColor=default;" parent="1" vertex="1">
          <mxGeometry x="3339.9999999999995" y="1181.9499999999998" width="100" height="40" as="geometry" />
        </mxCell>
        <mxCell id="i0QCQzi2DN3hbtzkU2qB-85" style="edgeStyle=none;shape=connector;rounded=0;orthogonalLoop=1;jettySize=auto;html=1;entryX=0;entryY=0;entryDx=0;entryDy=0;strokeColor=default;align=center;verticalAlign=middle;fontFamily=Helvetica;fontSize=12;fontColor=default;labelBackgroundColor=none;endArrow=none;endFill=0;exitX=0.867;exitY=0.983;exitDx=0;exitDy=0;exitPerimeter=0;" parent="1" source="i0QCQzi2DN3hbtzkU2qB-90" target="i0QCQzi2DN3hbtzkU2qB-97" edge="1">
          <mxGeometry relative="1" as="geometry" />
        </mxCell>
        <mxCell id="i0QCQzi2DN3hbtzkU2qB-86" style="edgeStyle=none;shape=connector;rounded=0;orthogonalLoop=1;jettySize=auto;html=1;entryX=0;entryY=1;entryDx=0;entryDy=0;strokeColor=default;align=center;verticalAlign=middle;fontFamily=Helvetica;fontSize=12;fontColor=default;labelBackgroundColor=none;endArrow=none;endFill=0;" parent="1" source="i0QCQzi2DN3hbtzkU2qB-90" target="i0QCQzi2DN3hbtzkU2qB-98" edge="1">
          <mxGeometry relative="1" as="geometry" />
        </mxCell>
        <mxCell id="i0QCQzi2DN3hbtzkU2qB-87" style="edgeStyle=none;shape=connector;rounded=0;orthogonalLoop=1;jettySize=auto;html=1;entryX=0;entryY=0.5;entryDx=0;entryDy=0;strokeColor=default;align=center;verticalAlign=middle;fontFamily=Helvetica;fontSize=12;fontColor=default;labelBackgroundColor=none;endArrow=none;endFill=0;" parent="1" source="i0QCQzi2DN3hbtzkU2qB-90" target="i0QCQzi2DN3hbtzkU2qB-99" edge="1">
          <mxGeometry relative="1" as="geometry" />
        </mxCell>
        <mxCell id="i0QCQzi2DN3hbtzkU2qB-88" style="edgeStyle=none;shape=connector;rounded=0;orthogonalLoop=1;jettySize=auto;html=1;entryX=0;entryY=0.5;entryDx=0;entryDy=0;strokeColor=default;align=center;verticalAlign=middle;fontFamily=Helvetica;fontSize=12;fontColor=default;labelBackgroundColor=none;endArrow=none;endFill=0;" parent="1" source="i0QCQzi2DN3hbtzkU2qB-90" target="i0QCQzi2DN3hbtzkU2qB-100" edge="1">
          <mxGeometry relative="1" as="geometry" />
        </mxCell>
        <mxCell id="i0QCQzi2DN3hbtzkU2qB-89" style="edgeStyle=none;shape=connector;rounded=0;orthogonalLoop=1;jettySize=auto;html=1;entryX=1;entryY=0;entryDx=0;entryDy=0;strokeColor=default;align=center;verticalAlign=middle;fontFamily=Helvetica;fontSize=12;fontColor=default;labelBackgroundColor=none;endArrow=none;endFill=0;" parent="1" source="i0QCQzi2DN3hbtzkU2qB-90" target="i0QCQzi2DN3hbtzkU2qB-350" edge="1">
          <mxGeometry relative="1" as="geometry" />
        </mxCell>
        <mxCell id="i0QCQzi2DN3hbtzkU2qB-489" style="edgeStyle=none;shape=connector;rounded=0;orthogonalLoop=1;jettySize=auto;html=1;entryX=1;entryY=0.5;entryDx=0;entryDy=0;strokeColor=default;align=center;verticalAlign=middle;fontFamily=Helvetica;fontSize=12;fontColor=default;labelBackgroundColor=default;resizable=0;endArrow=none;endFill=0;exitX=0.647;exitY=-0.032;exitDx=0;exitDy=0;exitPerimeter=0;" parent="1" source="i0QCQzi2DN3hbtzkU2qB-90" target="i0QCQzi2DN3hbtzkU2qB-488" edge="1">
          <mxGeometry relative="1" as="geometry">
            <Array as="points">
              <mxPoint x="6285" y="1300" />
              <mxPoint x="6285" y="1212" />
            </Array>
          </mxGeometry>
        </mxCell>
        <mxCell id="i0QCQzi2DN3hbtzkU2qB-492" value="(1, 1)" style="edgeLabel;html=1;align=center;verticalAlign=middle;resizable=0;points=[];fontFamily=Helvetica;fontSize=12;fontColor=default;labelBackgroundColor=default;fillColor=none;gradientColor=none;" parent="i0QCQzi2DN3hbtzkU2qB-489" vertex="1" connectable="0">
          <mxGeometry x="0.7636" y="-3" relative="1" as="geometry">
            <mxPoint x="-64" y="3" as="offset" />
          </mxGeometry>
        </mxCell>
        <mxCell id="i0QCQzi2DN3hbtzkU2qB-494" style="edgeStyle=none;shape=connector;rounded=0;orthogonalLoop=1;jettySize=auto;html=1;entryX=0.5;entryY=1;entryDx=0;entryDy=0;strokeColor=default;align=center;verticalAlign=middle;fontFamily=Helvetica;fontSize=12;fontColor=default;labelBackgroundColor=default;resizable=0;endArrow=none;endFill=0;" parent="1" source="i0QCQzi2DN3hbtzkU2qB-90" target="i0QCQzi2DN3hbtzkU2qB-493" edge="1">
          <mxGeometry relative="1" as="geometry">
            <Array as="points">
              <mxPoint x="6666" y="1738" />
            </Array>
          </mxGeometry>
        </mxCell>
        <mxCell id="i0QCQzi2DN3hbtzkU2qB-497" value="(0, N)" style="edgeLabel;html=1;align=center;verticalAlign=middle;resizable=0;points=[];fontFamily=Helvetica;fontSize=12;fontColor=default;labelBackgroundColor=default;fillColor=none;gradientColor=none;" parent="i0QCQzi2DN3hbtzkU2qB-494" vertex="1" connectable="0">
          <mxGeometry x="0.7032" y="-2" relative="1" as="geometry">
            <mxPoint x="-2" y="-18" as="offset" />
          </mxGeometry>
        </mxCell>
        <mxCell id="i0QCQzi2DN3hbtzkU2qB-90" value="Camera" style="whiteSpace=wrap;html=1;align=center;verticalAlign=middle;fontFamily=Helvetica;fontSize=12;labelBackgroundColor=none;" parent="1" vertex="1">
          <mxGeometry x="6220" y="1718.3" width="100" height="40" as="geometry" />
        </mxCell>
        <mxCell id="i0QCQzi2DN3hbtzkU2qB-91" value="" style="edgeStyle=none;shape=connector;rounded=0;orthogonalLoop=1;jettySize=auto;html=1;strokeColor=default;align=center;verticalAlign=middle;fontFamily=Helvetica;fontSize=12;fontColor=default;labelBackgroundColor=none;endArrow=none;endFill=0;entryX=0;entryY=0.75;entryDx=0;entryDy=0;" parent="1" source="i0QCQzi2DN3hbtzkU2qB-95" target="i0QCQzi2DN3hbtzkU2qB-90" edge="1">
          <mxGeometry relative="1" as="geometry">
            <Array as="points" />
          </mxGeometry>
        </mxCell>
        <mxCell id="i0QCQzi2DN3hbtzkU2qB-92" value="(1, N)" style="edgeLabel;html=1;align=center;verticalAlign=middle;resizable=0;points=[];strokeWidth=1;spacing=1;fontFamily=Helvetica;fontSize=12;fontColor=default;labelBackgroundColor=default;autosize=1;fillColor=none;gradientColor=none;" parent="i0QCQzi2DN3hbtzkU2qB-91" vertex="1" connectable="0">
          <mxGeometry x="-0.5955" y="-2" width="50" height="30" relative="1" as="geometry">
            <mxPoint x="-231" y="-16" as="offset" />
          </mxGeometry>
        </mxCell>
        <mxCell id="i0QCQzi2DN3hbtzkU2qB-93" value="" style="edgeStyle=none;shape=connector;rounded=0;orthogonalLoop=1;jettySize=auto;html=1;strokeColor=default;align=center;verticalAlign=middle;fontFamily=Helvetica;fontSize=12;fontColor=default;labelBackgroundColor=none;endArrow=none;endFill=0;entryX=1;entryY=0.75;entryDx=0;entryDy=0;exitX=0;exitY=0.5;exitDx=0;exitDy=0;" parent="1" source="i0QCQzi2DN3hbtzkU2qB-95" target="i0QCQzi2DN3hbtzkU2qB-448" edge="1">
          <mxGeometry relative="1" as="geometry">
            <mxPoint x="4234.953488372093" y="1702.0232558139537" as="sourcePoint" />
            <Array as="points">
              <mxPoint x="4120" y="1747" />
              <mxPoint x="4120" y="1481" />
            </Array>
          </mxGeometry>
        </mxCell>
        <mxCell id="i0QCQzi2DN3hbtzkU2qB-94" value="(0, N)" style="edgeLabel;html=1;align=center;verticalAlign=middle;resizable=0;points=[];strokeWidth=1;spacing=1;fontFamily=Helvetica;fontSize=12;fontColor=default;labelBackgroundColor=default;autosize=1;fillColor=none;gradientColor=none;" parent="i0QCQzi2DN3hbtzkU2qB-93" vertex="1" connectable="0">
          <mxGeometry x="-0.6037" width="50" height="30" relative="1" as="geometry">
            <mxPoint x="163" y="-15" as="offset" />
          </mxGeometry>
        </mxCell>
        <mxCell id="i0QCQzi2DN3hbtzkU2qB-95" value="Look at with" style="shape=rhombus;perimeter=rhombusPerimeter;whiteSpace=wrap;html=1;align=center;verticalAlign=middle;fontFamily=Helvetica;fontSize=12;labelBackgroundColor=none;" parent="1" vertex="1">
          <mxGeometry x="4793.63" y="1717" width="120" height="60" as="geometry" />
        </mxCell>
        <mxCell id="i0QCQzi2DN3hbtzkU2qB-96" value="ID" style="ellipse;whiteSpace=wrap;html=1;align=center;fontStyle=4;strokeColor=default;verticalAlign=middle;fontFamily=Helvetica;fontSize=12;fontColor=default;labelBackgroundColor=none;fillColor=default;" parent="1" vertex="1">
          <mxGeometry x="6300" y="1860.0000000000002" width="100" height="40" as="geometry" />
        </mxCell>
        <mxCell id="i0QCQzi2DN3hbtzkU2qB-97" value="Name" style="ellipse;whiteSpace=wrap;html=1;align=center;strokeColor=default;verticalAlign=middle;fontFamily=Helvetica;fontSize=12;fontColor=default;labelBackgroundColor=none;fillColor=default;" parent="1" vertex="1">
          <mxGeometry x="6380" y="1820.0000000000002" width="100" height="40" as="geometry" />
        </mxCell>
        <mxCell id="i0QCQzi2DN3hbtzkU2qB-98" value="Driver" style="ellipse;whiteSpace=wrap;html=1;align=center;strokeColor=default;verticalAlign=middle;fontFamily=Helvetica;fontSize=12;fontColor=default;labelBackgroundColor=none;fillColor=default;" parent="1" vertex="1">
          <mxGeometry x="6350" y="1622" width="100" height="40" as="geometry" />
        </mxCell>
        <mxCell id="i0QCQzi2DN3hbtzkU2qB-99" value="Type" style="ellipse;whiteSpace=wrap;html=1;align=center;strokeColor=default;verticalAlign=middle;fontFamily=Helvetica;fontSize=12;fontColor=default;labelBackgroundColor=none;fillColor=default;" parent="1" vertex="1">
          <mxGeometry x="6410" y="1677.0000000000002" width="100" height="40" as="geometry" />
        </mxCell>
        <mxCell id="i0QCQzi2DN3hbtzkU2qB-100" value="IP/Port" style="ellipse;whiteSpace=wrap;html=1;align=center;strokeColor=default;verticalAlign=middle;fontFamily=Helvetica;fontSize=12;fontColor=default;labelBackgroundColor=none;fillColor=default;" parent="1" vertex="1">
          <mxGeometry x="6390" y="1758.3000000000002" width="100" height="40" as="geometry" />
        </mxCell>
        <mxCell id="i0QCQzi2DN3hbtzkU2qB-101" style="edgeStyle=none;shape=connector;rounded=0;orthogonalLoop=1;jettySize=auto;html=1;entryX=0.328;entryY=0.005;entryDx=0;entryDy=0;strokeColor=default;align=center;verticalAlign=middle;fontFamily=Helvetica;fontSize=12;fontColor=default;labelBackgroundColor=none;endArrow=none;endFill=0;exitX=0.75;exitY=1;exitDx=0;exitDy=0;entryPerimeter=0;" parent="1" source="i0QCQzi2DN3hbtzkU2qB-90" target="i0QCQzi2DN3hbtzkU2qB-96" edge="1">
          <mxGeometry relative="1" as="geometry">
            <mxPoint x="6262.117714945181" y="1817.2000000000005" as="sourcePoint" />
          </mxGeometry>
        </mxCell>
        <mxCell id="i0QCQzi2DN3hbtzkU2qB-103" value="OD Class" style="ellipse;whiteSpace=wrap;html=1;align=center;strokeColor=default;verticalAlign=middle;fontFamily=Helvetica;fontSize=12;fontColor=default;labelBackgroundColor=none;fillColor=default;" parent="1" vertex="1">
          <mxGeometry x="3139.9999999999995" y="1172" width="100" height="40" as="geometry" />
        </mxCell>
        <mxCell id="i0QCQzi2DN3hbtzkU2qB-106" style="edgeStyle=none;shape=connector;rounded=0;orthogonalLoop=1;jettySize=auto;html=1;entryX=0.25;entryY=1;entryDx=0;entryDy=0;strokeColor=default;align=center;verticalAlign=middle;fontFamily=Helvetica;fontSize=12;fontColor=default;labelBackgroundColor=none;endArrow=none;endFill=0;exitX=1;exitY=0.5;exitDx=0;exitDy=0;" parent="1" source="i0QCQzi2DN3hbtzkU2qB-108" target="i0QCQzi2DN3hbtzkU2qB-116" edge="1">
          <mxGeometry relative="1" as="geometry">
            <Array as="points">
              <mxPoint x="4342" y="1460" />
            </Array>
          </mxGeometry>
        </mxCell>
        <mxCell id="i0QCQzi2DN3hbtzkU2qB-107" value="(0, N)" style="edgeLabel;html=1;align=center;verticalAlign=middle;resizable=0;points=[];strokeWidth=1;spacing=1;fontFamily=Helvetica;fontSize=12;fontColor=default;labelBackgroundColor=default;autosize=1;fillColor=none;gradientColor=none;" parent="i0QCQzi2DN3hbtzkU2qB-106" vertex="1" connectable="0">
          <mxGeometry x="-0.6311" y="-2" width="50" height="30" relative="1" as="geometry">
            <mxPoint x="-55" y="-16" as="offset" />
          </mxGeometry>
        </mxCell>
        <mxCell id="i0QCQzi2DN3hbtzkU2qB-108" value="Moved by" style="shape=rhombus;perimeter=rhombusPerimeter;whiteSpace=wrap;html=1;align=center;verticalAlign=middle;fontFamily=Helvetica;fontSize=12;labelBackgroundColor=none;" parent="1" vertex="1">
          <mxGeometry x="4141" y="1431" width="120" height="60" as="geometry" />
        </mxCell>
        <mxCell id="i0QCQzi2DN3hbtzkU2qB-636" style="edgeStyle=none;shape=connector;rounded=0;orthogonalLoop=1;jettySize=auto;html=1;entryX=0;entryY=0.5;entryDx=0;entryDy=0;strokeColor=default;align=center;verticalAlign=middle;fontFamily=Helvetica;fontSize=12;fontColor=default;labelBackgroundColor=default;resizable=0;endArrow=none;endFill=0;dashed=1;dashPattern=1 2;" parent="1" source="i0QCQzi2DN3hbtzkU2qB-116" target="i0QCQzi2DN3hbtzkU2qB-635" edge="1">
          <mxGeometry relative="1" as="geometry">
            <Array as="points">
              <mxPoint x="4367" y="1540" />
            </Array>
          </mxGeometry>
        </mxCell>
        <mxCell id="i0QCQzi2DN3hbtzkU2qB-638" value="(1, N)" style="edgeLabel;html=1;align=center;verticalAlign=middle;resizable=0;points=[];fontFamily=Helvetica;fontSize=12;fontColor=default;labelBackgroundColor=default;fillColor=none;gradientColor=none;" parent="i0QCQzi2DN3hbtzkU2qB-636" vertex="1" connectable="0">
          <mxGeometry x="0.8262" y="1" relative="1" as="geometry">
            <mxPoint as="offset" />
          </mxGeometry>
        </mxCell>
        <mxCell id="vnqtRoP5cehh_M1OrcF_-10" style="edgeStyle=none;shape=connector;rounded=0;orthogonalLoop=1;jettySize=auto;html=1;entryX=0;entryY=1;entryDx=0;entryDy=0;strokeColor=default;align=center;verticalAlign=middle;fontFamily=Helvetica;fontSize=12;fontColor=default;labelBackgroundColor=default;resizable=0;endArrow=none;endFill=0;" edge="1" parent="1" source="i0QCQzi2DN3hbtzkU2qB-116" target="vnqtRoP5cehh_M1OrcF_-8">
          <mxGeometry relative="1" as="geometry" />
        </mxCell>
        <mxCell id="i0QCQzi2DN3hbtzkU2qB-116" value="Tool" style="whiteSpace=wrap;html=1;align=center;verticalAlign=middle;fontFamily=Helvetica;fontSize=12;labelBackgroundColor=none;" parent="1" vertex="1">
          <mxGeometry x="4317" y="1151.9499999999998" width="100" height="40" as="geometry" />
        </mxCell>
        <mxCell id="i0QCQzi2DN3hbtzkU2qB-117" value="ID" style="ellipse;whiteSpace=wrap;html=1;align=center;fontStyle=4;strokeColor=default;verticalAlign=middle;fontFamily=Helvetica;fontSize=12;fontColor=default;labelBackgroundColor=none;fillColor=default;" parent="1" vertex="1">
          <mxGeometry x="4143.29" y="1242.6699999999998" width="100" height="40" as="geometry" />
        </mxCell>
        <mxCell id="i0QCQzi2DN3hbtzkU2qB-118" value="Name" style="ellipse;whiteSpace=wrap;html=1;align=center;strokeColor=default;verticalAlign=middle;fontFamily=Helvetica;fontSize=12;fontColor=default;labelBackgroundColor=none;fillColor=default;" parent="1" vertex="1">
          <mxGeometry x="4100" y="1195.4399999999998" width="100" height="40" as="geometry" />
        </mxCell>
        <mxCell id="i0QCQzi2DN3hbtzkU2qB-120" value="Payload" style="ellipse;whiteSpace=wrap;html=1;align=center;strokeColor=default;verticalAlign=middle;fontFamily=Helvetica;fontSize=12;fontColor=default;labelBackgroundColor=none;fillColor=default;" parent="1" vertex="1">
          <mxGeometry x="4217" y="1039.9999999999998" width="100" height="40" as="geometry" />
        </mxCell>
        <mxCell id="i0QCQzi2DN3hbtzkU2qB-121" value="TCP" style="ellipse;whiteSpace=wrap;html=1;align=center;strokeColor=default;verticalAlign=middle;fontFamily=Helvetica;fontSize=12;fontColor=default;labelBackgroundColor=none;fillColor=default;" parent="1" vertex="1">
          <mxGeometry x="4141" y="1079.9999999999998" width="100" height="40" as="geometry" />
        </mxCell>
        <mxCell id="i0QCQzi2DN3hbtzkU2qB-122" value="CoG" style="ellipse;whiteSpace=wrap;html=1;align=center;strokeColor=default;verticalAlign=middle;fontFamily=Helvetica;fontSize=12;fontColor=default;labelBackgroundColor=none;fillColor=default;" parent="1" vertex="1">
          <mxGeometry x="4299" y="999.9999999999998" width="100" height="40" as="geometry" />
        </mxCell>
        <mxCell id="i0QCQzi2DN3hbtzkU2qB-131" value="Max Robot&amp;nbsp;&lt;div style=&quot;font-size: 12px;&quot;&gt;Speed&lt;/div&gt;" style="ellipse;whiteSpace=wrap;html=1;align=center;strokeColor=default;verticalAlign=middle;fontFamily=Helvetica;fontSize=12;fontColor=default;fillColor=default;labelBackgroundColor=none;" parent="1" vertex="1">
          <mxGeometry x="5070" y="819.2" width="100" height="40" as="geometry" />
        </mxCell>
        <mxCell id="i0QCQzi2DN3hbtzkU2qB-132" style="edgeStyle=none;shape=connector;rounded=0;orthogonalLoop=1;jettySize=auto;html=1;entryX=0.5;entryY=0;entryDx=0;entryDy=0;strokeColor=default;align=center;verticalAlign=middle;fontFamily=Helvetica;fontSize=12;fontColor=default;labelBackgroundColor=none;autosize=1;resizable=0;endArrow=none;endFill=0;exitX=0;exitY=0.5;exitDx=0;exitDy=0;" parent="1" source="i0QCQzi2DN3hbtzkU2qB-134" target="i0QCQzi2DN3hbtzkU2qB-157" edge="1">
          <mxGeometry relative="1" as="geometry">
            <Array as="points">
              <mxPoint x="3419" y="1700" />
            </Array>
            <mxPoint x="3690" y="2073.08" as="targetPoint" />
          </mxGeometry>
        </mxCell>
        <mxCell id="i0QCQzi2DN3hbtzkU2qB-133" value="(0, N)" style="edgeLabel;html=1;align=center;verticalAlign=middle;resizable=0;points=[];strokeColor=default;fontFamily=Helvetica;fontSize=12;fontColor=default;fillColor=default;labelBackgroundColor=default;" parent="i0QCQzi2DN3hbtzkU2qB-132" vertex="1" connectable="0">
          <mxGeometry x="-0.6686" relative="1" as="geometry">
            <mxPoint x="26" as="offset" />
          </mxGeometry>
        </mxCell>
        <mxCell id="i0QCQzi2DN3hbtzkU2qB-134" value="Allowed on" style="shape=rhombus;perimeter=rhombusPerimeter;whiteSpace=wrap;html=1;align=center;verticalAlign=middle;fontFamily=Helvetica;fontSize=12;labelBackgroundColor=none;" parent="1" vertex="1">
          <mxGeometry x="3528" y="1670" width="120" height="60" as="geometry" />
        </mxCell>
        <mxCell id="i0QCQzi2DN3hbtzkU2qB-145" value="Robot Home Pose" style="ellipse;whiteSpace=wrap;html=1;align=center;strokeColor=#d6b656;verticalAlign=middle;fontFamily=Helvetica;fontSize=12;fillColor=#fff2cc;labelBackgroundColor=none;" parent="1" vertex="1">
          <mxGeometry x="5033.63" y="1201.95" width="100" height="40" as="geometry" />
        </mxCell>
        <mxCell id="i0QCQzi2DN3hbtzkU2qB-561" style="edgeStyle=none;shape=connector;rounded=0;orthogonalLoop=1;jettySize=auto;html=1;entryX=1;entryY=1;entryDx=0;entryDy=0;strokeColor=default;align=center;verticalAlign=middle;fontFamily=Helvetica;fontSize=12;fontColor=default;labelBackgroundColor=default;resizable=0;endArrow=none;endFill=0;" parent="1" source="i0QCQzi2DN3hbtzkU2qB-157" target="i0QCQzi2DN3hbtzkU2qB-158" edge="1">
          <mxGeometry relative="1" as="geometry" />
        </mxCell>
        <mxCell id="i0QCQzi2DN3hbtzkU2qB-562" style="edgeStyle=none;shape=connector;rounded=0;orthogonalLoop=1;jettySize=auto;html=1;entryX=1;entryY=0.5;entryDx=0;entryDy=0;strokeColor=default;align=center;verticalAlign=middle;fontFamily=Helvetica;fontSize=12;fontColor=default;labelBackgroundColor=default;resizable=0;endArrow=none;endFill=0;" parent="1" source="i0QCQzi2DN3hbtzkU2qB-157" target="i0QCQzi2DN3hbtzkU2qB-342" edge="1">
          <mxGeometry relative="1" as="geometry" />
        </mxCell>
        <mxCell id="i0QCQzi2DN3hbtzkU2qB-563" style="edgeStyle=none;shape=connector;rounded=0;orthogonalLoop=1;jettySize=auto;html=1;entryX=1;entryY=0.5;entryDx=0;entryDy=0;strokeColor=default;align=center;verticalAlign=middle;fontFamily=Helvetica;fontSize=12;fontColor=default;labelBackgroundColor=default;resizable=0;endArrow=none;endFill=0;" parent="1" source="i0QCQzi2DN3hbtzkU2qB-157" target="i0QCQzi2DN3hbtzkU2qB-346" edge="1">
          <mxGeometry relative="1" as="geometry" />
        </mxCell>
        <mxCell id="i0QCQzi2DN3hbtzkU2qB-564" style="edgeStyle=none;shape=connector;rounded=0;orthogonalLoop=1;jettySize=auto;html=1;entryX=1;entryY=0.5;entryDx=0;entryDy=0;strokeColor=default;align=center;verticalAlign=middle;fontFamily=Helvetica;fontSize=12;fontColor=default;labelBackgroundColor=default;resizable=0;endArrow=none;endFill=0;" parent="1" source="i0QCQzi2DN3hbtzkU2qB-157" target="i0QCQzi2DN3hbtzkU2qB-548" edge="1">
          <mxGeometry relative="1" as="geometry" />
        </mxCell>
        <mxCell id="i0QCQzi2DN3hbtzkU2qB-565" style="edgeStyle=none;shape=connector;rounded=0;orthogonalLoop=1;jettySize=auto;html=1;entryX=1;entryY=0;entryDx=0;entryDy=0;strokeColor=default;align=center;verticalAlign=middle;fontFamily=Helvetica;fontSize=12;fontColor=default;labelBackgroundColor=default;resizable=0;endArrow=none;endFill=0;" parent="1" source="i0QCQzi2DN3hbtzkU2qB-157" target="i0QCQzi2DN3hbtzkU2qB-549" edge="1">
          <mxGeometry relative="1" as="geometry" />
        </mxCell>
        <mxCell id="i0QCQzi2DN3hbtzkU2qB-567" style="edgeStyle=none;shape=connector;rounded=0;orthogonalLoop=1;jettySize=auto;html=1;entryX=0.5;entryY=0;entryDx=0;entryDy=0;strokeColor=default;align=center;verticalAlign=middle;fontFamily=Helvetica;fontSize=12;fontColor=default;labelBackgroundColor=default;resizable=0;endArrow=none;endFill=0;" parent="1" source="i0QCQzi2DN3hbtzkU2qB-157" target="i0QCQzi2DN3hbtzkU2qB-551" edge="1">
          <mxGeometry relative="1" as="geometry" />
        </mxCell>
        <mxCell id="i0QCQzi2DN3hbtzkU2qB-568" style="edgeStyle=none;shape=connector;rounded=0;orthogonalLoop=1;jettySize=auto;html=1;entryX=0;entryY=0;entryDx=0;entryDy=0;strokeColor=default;align=center;verticalAlign=middle;fontFamily=Helvetica;fontSize=12;fontColor=default;labelBackgroundColor=default;resizable=0;endArrow=none;endFill=0;" parent="1" source="i0QCQzi2DN3hbtzkU2qB-157" target="i0QCQzi2DN3hbtzkU2qB-552" edge="1">
          <mxGeometry relative="1" as="geometry" />
        </mxCell>
        <mxCell id="i0QCQzi2DN3hbtzkU2qB-569" style="edgeStyle=none;shape=connector;rounded=0;orthogonalLoop=1;jettySize=auto;html=1;entryX=0;entryY=0;entryDx=0;entryDy=0;strokeColor=default;align=center;verticalAlign=middle;fontFamily=Helvetica;fontSize=12;fontColor=default;labelBackgroundColor=default;resizable=0;endArrow=none;endFill=0;" parent="1" source="i0QCQzi2DN3hbtzkU2qB-157" target="i0QCQzi2DN3hbtzkU2qB-553" edge="1">
          <mxGeometry relative="1" as="geometry" />
        </mxCell>
        <mxCell id="i0QCQzi2DN3hbtzkU2qB-570" style="edgeStyle=none;shape=connector;rounded=0;orthogonalLoop=1;jettySize=auto;html=1;entryX=0;entryY=0.5;entryDx=0;entryDy=0;strokeColor=default;align=center;verticalAlign=middle;fontFamily=Helvetica;fontSize=12;fontColor=default;labelBackgroundColor=default;resizable=0;endArrow=none;endFill=0;" parent="1" source="i0QCQzi2DN3hbtzkU2qB-157" target="i0QCQzi2DN3hbtzkU2qB-554" edge="1">
          <mxGeometry relative="1" as="geometry" />
        </mxCell>
        <mxCell id="i0QCQzi2DN3hbtzkU2qB-571" style="edgeStyle=none;shape=connector;rounded=0;orthogonalLoop=1;jettySize=auto;html=1;entryX=0;entryY=0.5;entryDx=0;entryDy=0;strokeColor=default;align=center;verticalAlign=middle;fontFamily=Helvetica;fontSize=12;fontColor=default;labelBackgroundColor=default;resizable=0;endArrow=none;endFill=0;" parent="1" source="i0QCQzi2DN3hbtzkU2qB-157" target="i0QCQzi2DN3hbtzkU2qB-559" edge="1">
          <mxGeometry relative="1" as="geometry" />
        </mxCell>
        <mxCell id="i0QCQzi2DN3hbtzkU2qB-572" style="edgeStyle=none;shape=connector;rounded=0;orthogonalLoop=1;jettySize=auto;html=1;entryX=0;entryY=0.5;entryDx=0;entryDy=0;strokeColor=default;align=center;verticalAlign=middle;fontFamily=Helvetica;fontSize=12;fontColor=default;labelBackgroundColor=default;resizable=0;endArrow=none;endFill=0;" parent="1" source="i0QCQzi2DN3hbtzkU2qB-157" target="i0QCQzi2DN3hbtzkU2qB-555" edge="1">
          <mxGeometry relative="1" as="geometry" />
        </mxCell>
        <mxCell id="i0QCQzi2DN3hbtzkU2qB-573" style="edgeStyle=none;shape=connector;rounded=0;orthogonalLoop=1;jettySize=auto;html=1;entryX=0;entryY=1;entryDx=0;entryDy=0;strokeColor=default;align=center;verticalAlign=middle;fontFamily=Helvetica;fontSize=12;fontColor=default;labelBackgroundColor=default;resizable=0;endArrow=none;endFill=0;" parent="1" source="i0QCQzi2DN3hbtzkU2qB-157" target="i0QCQzi2DN3hbtzkU2qB-556" edge="1">
          <mxGeometry relative="1" as="geometry" />
        </mxCell>
        <mxCell id="i0QCQzi2DN3hbtzkU2qB-574" style="edgeStyle=none;shape=connector;rounded=0;orthogonalLoop=1;jettySize=auto;html=1;entryX=0.5;entryY=1;entryDx=0;entryDy=0;strokeColor=default;align=center;verticalAlign=middle;fontFamily=Helvetica;fontSize=12;fontColor=default;labelBackgroundColor=default;resizable=0;endArrow=none;endFill=0;" parent="1" source="i0QCQzi2DN3hbtzkU2qB-157" target="i0QCQzi2DN3hbtzkU2qB-557" edge="1">
          <mxGeometry relative="1" as="geometry" />
        </mxCell>
        <mxCell id="i0QCQzi2DN3hbtzkU2qB-157" value="Robotic Athomic" style="whiteSpace=wrap;html=1;align=center;verticalAlign=middle;fontFamily=Helvetica;fontSize=12;labelBackgroundColor=none;" parent="1" vertex="1">
          <mxGeometry x="3369" y="1973.6599999999999" width="100" height="40" as="geometry" />
        </mxCell>
        <mxCell id="i0QCQzi2DN3hbtzkU2qB-158" value="Name" style="ellipse;whiteSpace=wrap;html=1;align=center;strokeColor=default;verticalAlign=middle;fontFamily=Helvetica;fontSize=12;fontColor=default;fillColor=default;labelBackgroundColor=none;" parent="1" vertex="1">
          <mxGeometry x="3213" y="1880" width="100" height="40" as="geometry" />
        </mxCell>
        <mxCell id="i0QCQzi2DN3hbtzkU2qB-159" value="ID" style="ellipse;whiteSpace=wrap;html=1;align=center;fontStyle=4;strokeColor=default;verticalAlign=middle;fontFamily=Helvetica;fontSize=12;fontColor=default;fillColor=default;labelBackgroundColor=none;" parent="1" vertex="1">
          <mxGeometry x="3302" y="1846.33" width="100" height="40" as="geometry" />
        </mxCell>
        <mxCell id="i0QCQzi2DN3hbtzkU2qB-161" style="edgeStyle=none;shape=connector;rounded=0;orthogonalLoop=1;jettySize=auto;html=1;exitX=0.5;exitY=1;exitDx=0;exitDy=0;strokeColor=default;align=center;verticalAlign=middle;fontFamily=Helvetica;fontSize=12;fontColor=default;labelBackgroundColor=none;autosize=1;resizable=0;endArrow=none;endFill=0;" parent="1" source="i0QCQzi2DN3hbtzkU2qB-159" target="i0QCQzi2DN3hbtzkU2qB-159" edge="1">
          <mxGeometry relative="1" as="geometry" />
        </mxCell>
        <mxCell id="i0QCQzi2DN3hbtzkU2qB-170" style="edgeStyle=none;shape=connector;rounded=0;orthogonalLoop=1;jettySize=auto;html=1;entryX=1;entryY=1;entryDx=0;entryDy=0;strokeColor=default;align=center;verticalAlign=middle;fontFamily=Helvetica;fontSize=12;fontColor=default;labelBackgroundColor=none;endArrow=none;endFill=0;" parent="1" source="i0QCQzi2DN3hbtzkU2qB-176" target="i0QCQzi2DN3hbtzkU2qB-180" edge="1">
          <mxGeometry relative="1" as="geometry" />
        </mxCell>
        <mxCell id="i0QCQzi2DN3hbtzkU2qB-171" style="edgeStyle=none;shape=connector;rounded=0;orthogonalLoop=1;jettySize=auto;html=1;entryX=1;entryY=1;entryDx=0;entryDy=0;strokeColor=default;align=center;verticalAlign=middle;fontFamily=Helvetica;fontSize=12;fontColor=default;labelBackgroundColor=none;endArrow=none;endFill=0;" parent="1" source="i0QCQzi2DN3hbtzkU2qB-176" target="i0QCQzi2DN3hbtzkU2qB-181" edge="1">
          <mxGeometry relative="1" as="geometry" />
        </mxCell>
        <mxCell id="i0QCQzi2DN3hbtzkU2qB-172" style="edgeStyle=none;shape=connector;rounded=0;orthogonalLoop=1;jettySize=auto;html=1;entryX=1;entryY=0.5;entryDx=0;entryDy=0;strokeColor=default;align=center;verticalAlign=middle;fontFamily=Helvetica;fontSize=12;fontColor=default;labelBackgroundColor=none;endArrow=none;endFill=0;exitX=0;exitY=0.75;exitDx=0;exitDy=0;" parent="1" source="i0QCQzi2DN3hbtzkU2qB-176" target="i0QCQzi2DN3hbtzkU2qB-182" edge="1">
          <mxGeometry relative="1" as="geometry" />
        </mxCell>
        <mxCell id="i0QCQzi2DN3hbtzkU2qB-173" style="edgeStyle=none;shape=connector;rounded=0;orthogonalLoop=1;jettySize=auto;html=1;entryX=1;entryY=0.5;entryDx=0;entryDy=0;strokeColor=default;align=center;verticalAlign=middle;fontFamily=Helvetica;fontSize=12;fontColor=default;labelBackgroundColor=none;endArrow=none;endFill=0;exitX=0;exitY=0.25;exitDx=0;exitDy=0;" parent="1" source="i0QCQzi2DN3hbtzkU2qB-176" target="i0QCQzi2DN3hbtzkU2qB-186" edge="1">
          <mxGeometry relative="1" as="geometry" />
        </mxCell>
        <mxCell id="i0QCQzi2DN3hbtzkU2qB-175" style="edgeStyle=none;shape=connector;rounded=0;orthogonalLoop=1;jettySize=auto;html=1;entryX=0;entryY=1;entryDx=0;entryDy=0;strokeColor=default;align=center;verticalAlign=middle;fontFamily=Helvetica;fontSize=12;fontColor=default;labelBackgroundColor=none;endArrow=none;endFill=0;" parent="1" source="i0QCQzi2DN3hbtzkU2qB-176" target="i0QCQzi2DN3hbtzkU2qB-348" edge="1">
          <mxGeometry relative="1" as="geometry" />
        </mxCell>
        <mxCell id="i0QCQzi2DN3hbtzkU2qB-628" style="edgeStyle=none;shape=connector;rounded=0;orthogonalLoop=1;jettySize=auto;html=1;entryX=0;entryY=0.5;entryDx=0;entryDy=0;strokeColor=default;align=center;verticalAlign=middle;fontFamily=Helvetica;fontSize=12;fontColor=default;labelBackgroundColor=default;resizable=0;endArrow=none;endFill=0;dashed=1;" parent="1" target="i0QCQzi2DN3hbtzkU2qB-627" edge="1">
          <mxGeometry relative="1" as="geometry">
            <mxPoint x="5000" y="1340" as="sourcePoint" />
          </mxGeometry>
        </mxCell>
        <mxCell id="i0QCQzi2DN3hbtzkU2qB-630" value="(1, N)" style="edgeLabel;html=1;align=center;verticalAlign=middle;resizable=0;points=[];fontFamily=Helvetica;fontSize=12;fontColor=default;labelBackgroundColor=default;fillColor=none;gradientColor=none;" parent="i0QCQzi2DN3hbtzkU2qB-628" vertex="1" connectable="0">
          <mxGeometry x="0.8254" y="-2" relative="1" as="geometry">
            <mxPoint as="offset" />
          </mxGeometry>
        </mxCell>
        <mxCell id="i0QCQzi2DN3hbtzkU2qB-176" value="Robotic Arm" style="whiteSpace=wrap;html=1;align=center;fontFamily=Helvetica;fontSize=12;labelBackgroundColor=none;" parent="1" vertex="1">
          <mxGeometry x="4898.63" y="1332.67" width="100" height="40" as="geometry" />
        </mxCell>
        <mxCell id="i0QCQzi2DN3hbtzkU2qB-177" style="edgeStyle=none;shape=connector;rounded=0;orthogonalLoop=1;jettySize=auto;html=1;entryX=0.5;entryY=0;entryDx=0;entryDy=0;strokeColor=default;align=center;verticalAlign=middle;fontFamily=Helvetica;fontSize=12;fontColor=default;labelBackgroundColor=none;endArrow=none;endFill=0;" parent="1" source="i0QCQzi2DN3hbtzkU2qB-179" target="i0QCQzi2DN3hbtzkU2qB-176" edge="1">
          <mxGeometry relative="1" as="geometry" />
        </mxCell>
        <mxCell id="i0QCQzi2DN3hbtzkU2qB-178" value="(1, 1)" style="edgeLabel;html=1;align=center;verticalAlign=middle;resizable=0;points=[];fontFamily=Helvetica;fontSize=12;fontColor=default;labelBackgroundColor=default;" parent="i0QCQzi2DN3hbtzkU2qB-177" vertex="1" connectable="0">
          <mxGeometry x="0.4331" relative="1" as="geometry">
            <mxPoint y="-100" as="offset" />
          </mxGeometry>
        </mxCell>
        <mxCell id="i0QCQzi2DN3hbtzkU2qB-179" value="Mounted" style="shape=rhombus;perimeter=rhombusPerimeter;whiteSpace=wrap;html=1;align=center;fontFamily=Helvetica;fontSize=12;labelBackgroundColor=none;" parent="1" vertex="1">
          <mxGeometry x="4887.63" y="1090" width="120" height="60" as="geometry" />
        </mxCell>
        <mxCell id="i0QCQzi2DN3hbtzkU2qB-180" value="ID" style="ellipse;whiteSpace=wrap;html=1;align=center;fontStyle=4;fontFamily=Helvetica;fontSize=12;fontColor=default;labelBackgroundColor=none;" parent="1" vertex="1">
          <mxGeometry x="4830" y="1200" width="100" height="40" as="geometry" />
        </mxCell>
        <mxCell id="i0QCQzi2DN3hbtzkU2qB-181" value="Name" style="ellipse;whiteSpace=wrap;html=1;align=center;fontFamily=Helvetica;fontSize=12;fontColor=default;labelBackgroundColor=none;" parent="1" vertex="1">
          <mxGeometry x="4753" y="1237.1599999999999" width="100" height="40" as="geometry" />
        </mxCell>
        <mxCell id="i0QCQzi2DN3hbtzkU2qB-182" value="IP address" style="ellipse;whiteSpace=wrap;html=1;align=center;fontFamily=Helvetica;fontSize=12;fontColor=default;labelBackgroundColor=none;" parent="1" vertex="1">
          <mxGeometry x="4746" y="1360.8999999999999" width="100" height="40" as="geometry" />
        </mxCell>
        <mxCell id="i0QCQzi2DN3hbtzkU2qB-183" style="edgeStyle=none;shape=connector;rounded=0;orthogonalLoop=1;jettySize=auto;html=1;entryX=0.75;entryY=1;entryDx=0;entryDy=0;strokeColor=default;align=center;verticalAlign=middle;fontFamily=Helvetica;fontSize=12;fontColor=default;labelBackgroundColor=none;endArrow=none;endFill=0;exitX=0;exitY=0.5;exitDx=0;exitDy=0;" parent="1" source="i0QCQzi2DN3hbtzkU2qB-186" target="i0QCQzi2DN3hbtzkU2qB-116" edge="1">
          <mxGeometry relative="1" as="geometry">
            <Array as="points">
              <mxPoint x="4392" y="1335" />
            </Array>
          </mxGeometry>
        </mxCell>
        <mxCell id="i0QCQzi2DN3hbtzkU2qB-184" value="(0, N)" style="edgeLabel;html=1;align=center;verticalAlign=middle;resizable=0;points=[];fontFamily=Helvetica;fontSize=12;fontColor=default;labelBackgroundColor=default;" parent="i0QCQzi2DN3hbtzkU2qB-183" vertex="1" connectable="0">
          <mxGeometry x="-0.4772" y="1" relative="1" as="geometry">
            <mxPoint x="239" as="offset" />
          </mxGeometry>
        </mxCell>
        <mxCell id="i0QCQzi2DN3hbtzkU2qB-185" value="(0, 1)" style="edgeLabel;html=1;align=center;verticalAlign=middle;resizable=0;points=[];fontFamily=Helvetica;fontSize=12;fontColor=default;labelBackgroundColor=default;" parent="i0QCQzi2DN3hbtzkU2qB-183" vertex="1" connectable="0">
          <mxGeometry x="-0.8442" y="1" relative="1" as="geometry">
            <mxPoint x="-13" as="offset" />
          </mxGeometry>
        </mxCell>
        <mxCell id="i0QCQzi2DN3hbtzkU2qB-186" value="Currently wears" style="shape=rhombus;perimeter=rhombusPerimeter;whiteSpace=wrap;html=1;align=center;fontFamily=Helvetica;fontSize=12;labelBackgroundColor=none;fillColor=#d5e8d4;strokeColor=#82b366;" parent="1" vertex="1">
          <mxGeometry x="4536" y="1304.9999999999998" width="120" height="60" as="geometry" />
        </mxCell>
        <mxCell id="i0QCQzi2DN3hbtzkU2qB-187" style="edgeStyle=none;shape=connector;rounded=0;orthogonalLoop=1;jettySize=auto;html=1;entryX=0.25;entryY=1;entryDx=0;entryDy=0;strokeColor=default;align=center;verticalAlign=middle;fontFamily=Helvetica;fontSize=12;fontColor=default;labelBackgroundColor=none;endArrow=none;endFill=0;" parent="1" source="i0QCQzi2DN3hbtzkU2qB-188" target="i0QCQzi2DN3hbtzkU2qB-176" edge="1">
          <mxGeometry relative="1" as="geometry" />
        </mxCell>
        <mxCell id="i0QCQzi2DN3hbtzkU2qB-188" value="Current pose" style="ellipse;whiteSpace=wrap;html=1;align=center;fontFamily=Helvetica;fontSize=12;labelBackgroundColor=none;fillColor=#d5e8d4;strokeColor=#82b366;" parent="1" vertex="1">
          <mxGeometry x="4823.63" y="1410.9" width="100" height="40" as="geometry" />
        </mxCell>
        <mxCell id="i0QCQzi2DN3hbtzkU2qB-189" value="Total&lt;div style=&quot;font-size: 12px;&quot;&gt;buttons&lt;/div&gt;" style="ellipse;whiteSpace=wrap;html=1;align=center;fontFamily=Helvetica;fontSize=12;fontColor=default;labelBackgroundColor=none;" parent="1" vertex="1">
          <mxGeometry x="3920" y="930" width="100" height="40" as="geometry" />
        </mxCell>
        <mxCell id="i0QCQzi2DN3hbtzkU2qB-190" style="edgeStyle=none;shape=connector;rounded=0;orthogonalLoop=1;jettySize=auto;html=1;entryX=0;entryY=0;entryDx=0;entryDy=0;strokeColor=default;align=center;verticalAlign=middle;fontFamily=Helvetica;fontSize=12;fontColor=default;labelBackgroundColor=none;endArrow=none;endFill=0;exitX=1;exitY=0.75;exitDx=0;exitDy=0;" parent="1" source="i0QCQzi2DN3hbtzkU2qB-447" target="i0QCQzi2DN3hbtzkU2qB-189" edge="1">
          <mxGeometry relative="1" as="geometry">
            <mxPoint x="3749.7692307692314" y="884.0999999999999" as="sourcePoint" />
          </mxGeometry>
        </mxCell>
        <mxCell id="i0QCQzi2DN3hbtzkU2qB-191" value="Cockpit position" style="ellipse;whiteSpace=wrap;html=1;align=center;fontFamily=Helvetica;fontSize=12;labelBackgroundColor=none;fillColor=#fff2cc;strokeColor=#d6b656;" parent="1" vertex="1">
          <mxGeometry x="3677" y="732.0500000000001" width="100" height="40" as="geometry" />
        </mxCell>
        <mxCell id="i0QCQzi2DN3hbtzkU2qB-194" style="edgeStyle=none;shape=connector;rounded=0;orthogonalLoop=1;jettySize=auto;html=1;strokeColor=default;align=center;verticalAlign=middle;fontFamily=Helvetica;fontSize=12;fontColor=default;labelBackgroundColor=none;endArrow=none;endFill=0;entryX=0.25;entryY=0;entryDx=0;entryDy=0;exitX=1;exitY=0.5;exitDx=0;exitDy=0;" parent="1" source="i0QCQzi2DN3hbtzkU2qB-199" target="i0QCQzi2DN3hbtzkU2qB-90" edge="1">
          <mxGeometry relative="1" as="geometry">
            <mxPoint x="5310" y="1702.06" as="targetPoint" />
            <Array as="points">
              <mxPoint x="6245" y="1650" />
            </Array>
          </mxGeometry>
        </mxCell>
        <mxCell id="i0QCQzi2DN3hbtzkU2qB-195" value="(1, N)" style="edgeLabel;html=1;align=center;verticalAlign=middle;resizable=0;points=[];fontFamily=Helvetica;fontSize=12;fontColor=default;labelBackgroundColor=default;" parent="i0QCQzi2DN3hbtzkU2qB-194" vertex="1" connectable="0">
          <mxGeometry x="-0.4859" y="1" relative="1" as="geometry">
            <mxPoint x="-170" as="offset" />
          </mxGeometry>
        </mxCell>
        <mxCell id="i0QCQzi2DN3hbtzkU2qB-196" style="edgeStyle=none;shape=connector;rounded=0;orthogonalLoop=1;jettySize=auto;html=1;entryX=1;entryY=0.75;entryDx=0;entryDy=0;strokeColor=default;align=center;verticalAlign=middle;fontFamily=Helvetica;fontSize=12;fontColor=default;labelBackgroundColor=none;endArrow=none;endFill=0;exitX=0.5;exitY=0;exitDx=0;exitDy=0;" parent="1" source="i0QCQzi2DN3hbtzkU2qB-199" target="i0QCQzi2DN3hbtzkU2qB-176" edge="1">
          <mxGeometry relative="1" as="geometry">
            <Array as="points">
              <mxPoint x="5360" y="1363" />
            </Array>
          </mxGeometry>
        </mxCell>
        <mxCell id="i0QCQzi2DN3hbtzkU2qB-197" value="(0, N)" style="edgeLabel;html=1;align=center;verticalAlign=middle;resizable=0;points=[];fontFamily=Helvetica;fontSize=12;fontColor=default;labelBackgroundColor=default;" parent="i0QCQzi2DN3hbtzkU2qB-196" vertex="1" connectable="0">
          <mxGeometry x="-0.6207" y="1" relative="1" as="geometry">
            <mxPoint x="1" y="77" as="offset" />
          </mxGeometry>
        </mxCell>
        <mxCell id="i0QCQzi2DN3hbtzkU2qB-198" style="edgeStyle=none;shape=connector;rounded=0;orthogonalLoop=1;jettySize=auto;html=1;entryX=1;entryY=1;entryDx=0;entryDy=0;strokeColor=default;align=center;verticalAlign=middle;fontFamily=Helvetica;fontSize=12;fontColor=default;labelBackgroundColor=none;endArrow=none;endFill=0;" parent="1" source="i0QCQzi2DN3hbtzkU2qB-199" target="i0QCQzi2DN3hbtzkU2qB-380" edge="1">
          <mxGeometry relative="1" as="geometry" />
        </mxCell>
        <mxCell id="i0QCQzi2DN3hbtzkU2qB-199" value="wrt" style="shape=rhombus;perimeter=rhombusPerimeter;whiteSpace=wrap;html=1;align=center;fontFamily=Helvetica;fontSize=12;labelBackgroundColor=none;" parent="1" vertex="1">
          <mxGeometry x="5300" y="1617.8600000000001" width="120" height="60" as="geometry" />
        </mxCell>
        <mxCell id="i0QCQzi2DN3hbtzkU2qB-200" style="edgeStyle=none;shape=connector;rounded=0;orthogonalLoop=1;jettySize=auto;html=1;entryX=0.5;entryY=0;entryDx=0;entryDy=0;strokeColor=default;align=center;verticalAlign=middle;fontFamily=Helvetica;fontSize=12;fontColor=default;labelBackgroundColor=none;endArrow=none;endFill=0;exitX=1;exitY=0.5;exitDx=0;exitDy=0;" parent="1" source="i0QCQzi2DN3hbtzkU2qB-202" target="i0QCQzi2DN3hbtzkU2qB-429" edge="1">
          <mxGeometry relative="1" as="geometry">
            <mxPoint x="3046" y="1810" as="sourcePoint" />
            <mxPoint x="2630" y="1724" as="targetPoint" />
            <Array as="points">
              <mxPoint x="4726" y="1810" />
            </Array>
          </mxGeometry>
        </mxCell>
        <mxCell id="i0QCQzi2DN3hbtzkU2qB-201" value="(1, N)" style="edgeLabel;html=1;align=center;verticalAlign=middle;resizable=0;points=[];fontFamily=Helvetica;fontSize=12;fontColor=default;labelBackgroundColor=default;" parent="i0QCQzi2DN3hbtzkU2qB-200" vertex="1" connectable="0">
          <mxGeometry x="-0.8599" y="-4" relative="1" as="geometry">
            <mxPoint x="5" y="-4" as="offset" />
          </mxGeometry>
        </mxCell>
        <mxCell id="i0QCQzi2DN3hbtzkU2qB-202" value="Allowed on" style="shape=rhombus;perimeter=rhombusPerimeter;whiteSpace=wrap;html=1;align=center;fontFamily=Helvetica;fontSize=12;labelBackgroundColor=none;" parent="1" vertex="1">
          <mxGeometry x="3920" y="1780.5700000000002" width="120" height="60" as="geometry" />
        </mxCell>
        <mxCell id="i0QCQzi2DN3hbtzkU2qB-216" value="ID" style="ellipse;whiteSpace=wrap;html=1;align=center;fontStyle=4;fontFamily=Helvetica;fontSize=12;fontColor=default;labelBackgroundColor=none;" parent="1" vertex="1">
          <mxGeometry x="4638" y="1936.33" width="70" height="40" as="geometry" />
        </mxCell>
        <mxCell id="i0QCQzi2DN3hbtzkU2qB-217" value="Name" style="ellipse;whiteSpace=wrap;html=1;align=center;fontFamily=Helvetica;fontSize=12;labelBackgroundColor=none;fillColor=#e1d5e7;strokeColor=#9673a6;" parent="1" vertex="1">
          <mxGeometry x="4568" y="1910" width="70" height="40" as="geometry" />
        </mxCell>
        <mxCell id="i0QCQzi2DN3hbtzkU2qB-242" style="edgeStyle=none;shape=connector;rounded=0;orthogonalLoop=1;jettySize=auto;html=1;entryX=0;entryY=0.5;entryDx=0;entryDy=0;strokeColor=default;align=center;verticalAlign=middle;fontFamily=Helvetica;fontSize=12;fontColor=default;labelBackgroundColor=none;endArrow=none;endFill=0;exitX=1;exitY=0.5;exitDx=0;exitDy=0;" parent="1" source="i0QCQzi2DN3hbtzkU2qB-429" target="i0QCQzi2DN3hbtzkU2qB-320" edge="1">
          <mxGeometry relative="1" as="geometry">
            <Array as="points" />
          </mxGeometry>
        </mxCell>
        <mxCell id="i0QCQzi2DN3hbtzkU2qB-243" value="(1, N)" style="edgeLabel;html=1;align=center;verticalAlign=middle;resizable=0;points=[];fontFamily=Helvetica;fontSize=12;fontColor=default;labelBackgroundColor=default;" parent="i0QCQzi2DN3hbtzkU2qB-242" vertex="1" connectable="0">
          <mxGeometry x="0.8767" y="-2" relative="1" as="geometry">
            <mxPoint x="-11" y="-2" as="offset" />
          </mxGeometry>
        </mxCell>
        <mxCell id="i0QCQzi2DN3hbtzkU2qB-246" value="Atomic type" style="ellipse;whiteSpace=wrap;html=1;align=center;strokeColor=default;verticalAlign=middle;fontFamily=Helvetica;fontSize=12;fontColor=default;labelBackgroundColor=none;fillColor=default;" parent="1" vertex="1">
          <mxGeometry x="4490" y="2006" width="100" height="42" as="geometry" />
        </mxCell>
        <mxCell id="i0QCQzi2DN3hbtzkU2qB-304" style="edgeStyle=none;shape=connector;rounded=0;orthogonalLoop=1;jettySize=auto;html=1;entryX=0.5;entryY=0;entryDx=0;entryDy=0;strokeColor=default;align=center;verticalAlign=middle;fontFamily=Helvetica;fontSize=12;fontColor=default;labelBackgroundColor=none;endArrow=none;endFill=0;" parent="1" source="i0QCQzi2DN3hbtzkU2qB-312" target="i0QCQzi2DN3hbtzkU2qB-313" edge="1">
          <mxGeometry relative="1" as="geometry" />
        </mxCell>
        <mxCell id="i0QCQzi2DN3hbtzkU2qB-305" style="edgeStyle=none;shape=connector;rounded=0;orthogonalLoop=1;jettySize=auto;html=1;entryX=0.682;entryY=0.156;entryDx=0;entryDy=0;strokeColor=default;align=center;verticalAlign=middle;fontFamily=Helvetica;fontSize=12;fontColor=default;labelBackgroundColor=none;endArrow=none;endFill=0;entryPerimeter=0;" parent="1" source="i0QCQzi2DN3hbtzkU2qB-312" target="i0QCQzi2DN3hbtzkU2qB-314" edge="1">
          <mxGeometry relative="1" as="geometry" />
        </mxCell>
        <mxCell id="i0QCQzi2DN3hbtzkU2qB-306" style="edgeStyle=none;shape=connector;rounded=0;orthogonalLoop=1;jettySize=auto;html=1;entryX=0.5;entryY=1;entryDx=0;entryDy=0;strokeColor=default;align=center;verticalAlign=middle;fontFamily=Helvetica;fontSize=12;fontColor=default;labelBackgroundColor=none;endArrow=none;endFill=0;" parent="1" source="i0QCQzi2DN3hbtzkU2qB-312" target="i0QCQzi2DN3hbtzkU2qB-315" edge="1">
          <mxGeometry relative="1" as="geometry" />
        </mxCell>
        <mxCell id="i0QCQzi2DN3hbtzkU2qB-307" style="edgeStyle=none;shape=connector;rounded=0;orthogonalLoop=1;jettySize=auto;html=1;entryX=1;entryY=0.5;entryDx=0;entryDy=0;strokeColor=default;align=center;verticalAlign=middle;fontFamily=Helvetica;fontSize=12;fontColor=default;labelBackgroundColor=none;endArrow=none;endFill=0;" parent="1" source="i0QCQzi2DN3hbtzkU2qB-312" target="i0QCQzi2DN3hbtzkU2qB-316" edge="1">
          <mxGeometry relative="1" as="geometry">
            <Array as="points" />
          </mxGeometry>
        </mxCell>
        <mxCell id="i0QCQzi2DN3hbtzkU2qB-308" style="edgeStyle=none;shape=connector;rounded=0;orthogonalLoop=1;jettySize=auto;html=1;entryX=0.923;entryY=0.75;entryDx=0;entryDy=0;strokeColor=default;align=center;verticalAlign=middle;fontFamily=Helvetica;fontSize=12;fontColor=default;labelBackgroundColor=none;endArrow=none;endFill=0;entryPerimeter=0;" parent="1" source="i0QCQzi2DN3hbtzkU2qB-312" target="i0QCQzi2DN3hbtzkU2qB-317" edge="1">
          <mxGeometry relative="1" as="geometry" />
        </mxCell>
        <mxCell id="i0QCQzi2DN3hbtzkU2qB-309" style="edgeStyle=none;shape=connector;rounded=0;orthogonalLoop=1;jettySize=auto;html=1;entryX=1;entryY=1;entryDx=0;entryDy=0;strokeColor=default;align=center;verticalAlign=middle;fontFamily=Helvetica;fontSize=12;fontColor=default;labelBackgroundColor=none;endArrow=none;endFill=0;" parent="1" source="i0QCQzi2DN3hbtzkU2qB-312" target="i0QCQzi2DN3hbtzkU2qB-318" edge="1">
          <mxGeometry relative="1" as="geometry" />
        </mxCell>
        <mxCell id="i0QCQzi2DN3hbtzkU2qB-310" style="edgeStyle=none;shape=connector;rounded=0;orthogonalLoop=1;jettySize=auto;html=1;entryX=0.369;entryY=1.003;entryDx=0;entryDy=0;strokeColor=default;align=center;verticalAlign=middle;fontFamily=Helvetica;fontSize=12;fontColor=default;labelBackgroundColor=none;endArrow=none;endFill=0;entryPerimeter=0;" parent="1" source="i0QCQzi2DN3hbtzkU2qB-312" target="i0QCQzi2DN3hbtzkU2qB-319" edge="1">
          <mxGeometry relative="1" as="geometry" />
        </mxCell>
        <mxCell id="i0QCQzi2DN3hbtzkU2qB-311" style="edgeStyle=none;shape=connector;rounded=0;orthogonalLoop=1;jettySize=auto;html=1;entryX=0;entryY=1;entryDx=0;entryDy=0;strokeColor=default;align=center;verticalAlign=middle;fontFamily=Helvetica;fontSize=12;fontColor=default;labelBackgroundColor=none;endArrow=none;endFill=0;" parent="1" source="i0QCQzi2DN3hbtzkU2qB-312" target="i0QCQzi2DN3hbtzkU2qB-343" edge="1">
          <mxGeometry relative="1" as="geometry" />
        </mxCell>
        <mxCell id="i0QCQzi2DN3hbtzkU2qB-312" value="Aural athomic" style="whiteSpace=wrap;html=1;align=center;fontFamily=Helvetica;fontSize=12;labelBackgroundColor=none;" parent="1" vertex="1">
          <mxGeometry x="4358" y="432.66999999999996" width="100" height="40" as="geometry" />
        </mxCell>
        <mxCell id="i0QCQzi2DN3hbtzkU2qB-313" value="ID" style="ellipse;whiteSpace=wrap;html=1;align=center;fontStyle=4;fontFamily=Helvetica;fontSize=12;fontColor=default;labelBackgroundColor=none;" parent="1" vertex="1">
          <mxGeometry x="4400" y="540" width="100" height="40" as="geometry" />
        </mxCell>
        <mxCell id="i0QCQzi2DN3hbtzkU2qB-314" value="Name" style="ellipse;whiteSpace=wrap;html=1;align=center;fontFamily=Helvetica;fontSize=12;fontColor=default;labelBackgroundColor=none;" parent="1" vertex="1">
          <mxGeometry x="4281" y="540" width="100" height="40" as="geometry" />
        </mxCell>
        <mxCell id="i0QCQzi2DN3hbtzkU2qB-315" value="Template" style="ellipse;whiteSpace=wrap;html=1;align=center;fontFamily=Helvetica;fontSize=12;fontColor=default;labelBackgroundColor=none;" parent="1" vertex="1">
          <mxGeometry x="4358" y="310" width="100" height="40" as="geometry" />
        </mxCell>
        <mxCell id="i0QCQzi2DN3hbtzkU2qB-316" value="Type" style="ellipse;whiteSpace=wrap;html=1;align=center;fontFamily=Helvetica;fontSize=12;fontColor=default;labelBackgroundColor=none;" parent="1" vertex="1">
          <mxGeometry x="4164.58" y="442.67" width="100" height="40" as="geometry" />
        </mxCell>
        <mxCell id="i0QCQzi2DN3hbtzkU2qB-317" value="Times to hear" style="ellipse;whiteSpace=wrap;html=1;align=center;fontFamily=Helvetica;fontSize=12;fontColor=default;labelBackgroundColor=none;" parent="1" vertex="1">
          <mxGeometry x="4181" y="382.67" width="100" height="40" as="geometry" />
        </mxCell>
        <mxCell id="i0QCQzi2DN3hbtzkU2qB-318" value="Frequency" style="ellipse;whiteSpace=wrap;html=1;align=center;fontFamily=Helvetica;fontSize=12;fontColor=default;labelBackgroundColor=none;" parent="1" vertex="1">
          <mxGeometry x="4243.29" y="339.99999999999994" width="100" height="40" as="geometry" />
        </mxCell>
        <mxCell id="i0QCQzi2DN3hbtzkU2qB-319" value="Max time" style="ellipse;whiteSpace=wrap;html=1;align=center;fontFamily=Helvetica;fontSize=12;fontColor=default;labelBackgroundColor=none;" parent="1" vertex="1">
          <mxGeometry x="4448" y="350" width="100" height="40" as="geometry" />
        </mxCell>
        <mxCell id="i0QCQzi2DN3hbtzkU2qB-320" value="Allowed with" style="shape=rhombus;perimeter=rhombusPerimeter;whiteSpace=wrap;html=1;align=center;fontFamily=Helvetica;fontSize=12;labelBackgroundColor=none;" parent="1" vertex="1">
          <mxGeometry x="5280" y="2044" width="120" height="60" as="geometry" />
        </mxCell>
        <mxCell id="i0QCQzi2DN3hbtzkU2qB-321" value="" style="edgeStyle=none;shape=connector;rounded=0;orthogonalLoop=1;jettySize=auto;html=1;strokeColor=default;align=center;verticalAlign=middle;fontFamily=Helvetica;fontSize=12;fontColor=default;labelBackgroundColor=none;endArrow=none;endFill=0;exitX=1;exitY=0.5;exitDx=0;exitDy=0;entryX=0.5;entryY=1;entryDx=0;entryDy=0;" parent="1" source="i0QCQzi2DN3hbtzkU2qB-320" target="i0QCQzi2DN3hbtzkU2qB-90" edge="1">
          <mxGeometry relative="1" as="geometry">
            <mxPoint x="2660" y="1360" as="sourcePoint" />
            <mxPoint x="3110" y="1380" as="targetPoint" />
            <Array as="points">
              <mxPoint x="6270" y="2074" />
            </Array>
          </mxGeometry>
        </mxCell>
        <mxCell id="i0QCQzi2DN3hbtzkU2qB-322" value="(1, N)" style="edgeLabel;html=1;align=center;verticalAlign=middle;resizable=0;points=[];fontFamily=Helvetica;fontSize=12;fontColor=default;labelBackgroundColor=default;" parent="i0QCQzi2DN3hbtzkU2qB-321" vertex="1" connectable="0">
          <mxGeometry x="-0.8479" y="-6" relative="1" as="geometry">
            <mxPoint x="-17" y="-6" as="offset" />
          </mxGeometry>
        </mxCell>
        <mxCell id="i0QCQzi2DN3hbtzkU2qB-323" value="" style="edgeStyle=none;shape=connector;rounded=0;orthogonalLoop=1;jettySize=auto;html=1;strokeColor=default;align=center;verticalAlign=middle;fontFamily=Helvetica;fontSize=12;fontColor=default;labelBackgroundColor=none;endArrow=none;endFill=0;" parent="1" source="i0QCQzi2DN3hbtzkU2qB-328" target="i0QCQzi2DN3hbtzkU2qB-332" edge="1">
          <mxGeometry relative="1" as="geometry" />
        </mxCell>
        <mxCell id="i0QCQzi2DN3hbtzkU2qB-324" value="(0, N)" style="edgeLabel;html=1;align=center;verticalAlign=middle;resizable=0;points=[];fontFamily=Helvetica;fontSize=12;fontColor=default;labelBackgroundColor=default;" parent="i0QCQzi2DN3hbtzkU2qB-323" vertex="1" connectable="0">
          <mxGeometry x="0.647" y="-2" relative="1" as="geometry">
            <mxPoint x="13" y="2" as="offset" />
          </mxGeometry>
        </mxCell>
        <mxCell id="i0QCQzi2DN3hbtzkU2qB-325" style="edgeStyle=none;shape=connector;rounded=0;orthogonalLoop=1;jettySize=auto;html=1;entryX=0.5;entryY=0;entryDx=0;entryDy=0;strokeColor=default;align=center;verticalAlign=middle;fontFamily=Helvetica;fontSize=12;fontColor=default;labelBackgroundColor=none;endArrow=none;endFill=0;" parent="1" source="i0QCQzi2DN3hbtzkU2qB-328" target="i0QCQzi2DN3hbtzkU2qB-341" edge="1">
          <mxGeometry relative="1" as="geometry" />
        </mxCell>
        <mxCell id="i0QCQzi2DN3hbtzkU2qB-326" value="(1, 1)" style="edgeLabel;html=1;align=center;verticalAlign=middle;resizable=0;points=[];fontFamily=Helvetica;fontSize=12;fontColor=default;labelBackgroundColor=default;" parent="i0QCQzi2DN3hbtzkU2qB-325" vertex="1" connectable="0">
          <mxGeometry x="0.5838" y="1" relative="1" as="geometry">
            <mxPoint as="offset" />
          </mxGeometry>
        </mxCell>
        <mxCell id="i0QCQzi2DN3hbtzkU2qB-327" style="edgeStyle=none;shape=connector;rounded=0;orthogonalLoop=1;jettySize=auto;html=1;entryX=1;entryY=1;entryDx=0;entryDy=0;strokeColor=default;align=center;verticalAlign=middle;fontFamily=Helvetica;fontSize=12;fontColor=default;labelBackgroundColor=none;endArrow=none;endFill=0;" parent="1" source="i0QCQzi2DN3hbtzkU2qB-328" target="i0QCQzi2DN3hbtzkU2qB-347" edge="1">
          <mxGeometry relative="1" as="geometry" />
        </mxCell>
        <mxCell id="i0QCQzi2DN3hbtzkU2qB-484" style="edgeStyle=none;shape=connector;rounded=0;orthogonalLoop=1;jettySize=auto;html=1;entryX=0;entryY=0.5;entryDx=0;entryDy=0;strokeColor=default;align=center;verticalAlign=middle;fontFamily=Helvetica;fontSize=12;fontColor=default;labelBackgroundColor=default;resizable=0;endArrow=none;endFill=0;" parent="1" source="i0QCQzi2DN3hbtzkU2qB-328" target="i0QCQzi2DN3hbtzkU2qB-483" edge="1">
          <mxGeometry relative="1" as="geometry" />
        </mxCell>
        <mxCell id="i0QCQzi2DN3hbtzkU2qB-486" value="(0, N)" style="edgeLabel;html=1;align=center;verticalAlign=middle;resizable=0;points=[];fontFamily=Helvetica;fontSize=12;fontColor=default;labelBackgroundColor=default;fillColor=none;gradientColor=none;" parent="i0QCQzi2DN3hbtzkU2qB-484" vertex="1" connectable="0">
          <mxGeometry x="0.7305" y="1" relative="1" as="geometry">
            <mxPoint x="39" y="1" as="offset" />
          </mxGeometry>
        </mxCell>
        <mxCell id="i0QCQzi2DN3hbtzkU2qB-328" value="Microphone" style="whiteSpace=wrap;html=1;align=center;fontFamily=Helvetica;fontSize=12;labelBackgroundColor=none;" parent="1" vertex="1">
          <mxGeometry x="4923.63" y="432.6700000000001" width="100" height="40" as="geometry" />
        </mxCell>
        <mxCell id="i0QCQzi2DN3hbtzkU2qB-329" style="edgeStyle=none;shape=connector;rounded=0;orthogonalLoop=1;jettySize=auto;html=1;entryX=0.5;entryY=1;entryDx=0;entryDy=0;strokeColor=default;align=center;verticalAlign=middle;fontFamily=Helvetica;fontSize=12;fontColor=default;labelBackgroundColor=none;endArrow=none;endFill=0;" parent="1" source="i0QCQzi2DN3hbtzkU2qB-328" target="i0QCQzi2DN3hbtzkU2qB-328" edge="1">
          <mxGeometry relative="1" as="geometry" />
        </mxCell>
        <mxCell id="i0QCQzi2DN3hbtzkU2qB-330" style="edgeStyle=none;shape=connector;rounded=0;orthogonalLoop=1;jettySize=auto;html=1;entryX=1;entryY=0.5;entryDx=0;entryDy=0;strokeColor=default;align=center;verticalAlign=middle;fontFamily=Helvetica;fontSize=12;fontColor=default;labelBackgroundColor=none;endArrow=none;endFill=0;" parent="1" source="i0QCQzi2DN3hbtzkU2qB-332" target="i0QCQzi2DN3hbtzkU2qB-312" edge="1">
          <mxGeometry relative="1" as="geometry" />
        </mxCell>
        <mxCell id="i0QCQzi2DN3hbtzkU2qB-331" value="(1, N)" style="edgeLabel;html=1;align=center;verticalAlign=middle;resizable=0;points=[];fontFamily=Helvetica;fontSize=12;fontColor=default;labelBackgroundColor=default;" parent="i0QCQzi2DN3hbtzkU2qB-330" vertex="1" connectable="0">
          <mxGeometry x="-0.7767" relative="1" as="geometry">
            <mxPoint x="-18" as="offset" />
          </mxGeometry>
        </mxCell>
        <mxCell id="i0QCQzi2DN3hbtzkU2qB-332" value="Performed with" style="shape=rhombus;perimeter=rhombusPerimeter;whiteSpace=wrap;html=1;align=center;fontFamily=Helvetica;fontSize=12;labelBackgroundColor=none;" parent="1" vertex="1">
          <mxGeometry x="4638" y="422.6700000000001" width="120" height="60" as="geometry" />
        </mxCell>
        <mxCell id="i0QCQzi2DN3hbtzkU2qB-333" value="ID" style="ellipse;whiteSpace=wrap;html=1;align=center;fontStyle=4;fontFamily=Helvetica;fontSize=12;fontColor=default;labelBackgroundColor=none;" parent="1" vertex="1">
          <mxGeometry x="5080" y="382.67" width="100" height="40" as="geometry" />
        </mxCell>
        <mxCell id="i0QCQzi2DN3hbtzkU2qB-334" value="Name" style="ellipse;whiteSpace=wrap;html=1;align=center;fontFamily=Helvetica;fontSize=12;fontColor=default;labelBackgroundColor=none;" parent="1" vertex="1">
          <mxGeometry x="5023.63" y="330.0000000000001" width="100" height="40" as="geometry" />
        </mxCell>
        <mxCell id="i0QCQzi2DN3hbtzkU2qB-335" value="Config" style="ellipse;whiteSpace=wrap;html=1;align=center;fontFamily=Helvetica;fontSize=12;fontColor=default;labelBackgroundColor=none;" parent="1" vertex="1">
          <mxGeometry x="4907.63" y="300.0000000000001" width="100" height="40" as="geometry" />
        </mxCell>
        <mxCell id="i0QCQzi2DN3hbtzkU2qB-336" style="edgeStyle=none;shape=connector;rounded=0;orthogonalLoop=1;jettySize=auto;html=1;entryX=0;entryY=0.5;entryDx=0;entryDy=0;strokeColor=default;align=center;verticalAlign=middle;fontFamily=Helvetica;fontSize=12;fontColor=default;labelBackgroundColor=none;endArrow=none;endFill=0;" parent="1" source="i0QCQzi2DN3hbtzkU2qB-328" target="i0QCQzi2DN3hbtzkU2qB-333" edge="1">
          <mxGeometry relative="1" as="geometry" />
        </mxCell>
        <mxCell id="i0QCQzi2DN3hbtzkU2qB-337" style="edgeStyle=none;shape=connector;rounded=0;orthogonalLoop=1;jettySize=auto;html=1;entryX=0.242;entryY=0.93;entryDx=0;entryDy=0;strokeColor=default;align=center;verticalAlign=middle;fontFamily=Helvetica;fontSize=12;fontColor=default;labelBackgroundColor=none;endArrow=none;endFill=0;entryPerimeter=0;" parent="1" source="i0QCQzi2DN3hbtzkU2qB-328" target="i0QCQzi2DN3hbtzkU2qB-334" edge="1">
          <mxGeometry relative="1" as="geometry" />
        </mxCell>
        <mxCell id="i0QCQzi2DN3hbtzkU2qB-338" style="edgeStyle=none;shape=connector;rounded=0;orthogonalLoop=1;jettySize=auto;html=1;entryX=0.5;entryY=1;entryDx=0;entryDy=0;strokeColor=default;align=center;verticalAlign=middle;fontFamily=Helvetica;fontSize=12;fontColor=default;labelBackgroundColor=none;endArrow=none;endFill=0;" parent="1" source="i0QCQzi2DN3hbtzkU2qB-328" target="i0QCQzi2DN3hbtzkU2qB-335" edge="1">
          <mxGeometry relative="1" as="geometry" />
        </mxCell>
        <mxCell id="i0QCQzi2DN3hbtzkU2qB-339" style="edgeStyle=none;shape=connector;rounded=0;orthogonalLoop=1;jettySize=auto;html=1;entryX=0.5;entryY=0;entryDx=0;entryDy=0;strokeColor=default;align=center;verticalAlign=middle;fontFamily=Helvetica;fontSize=12;fontColor=default;labelBackgroundColor=none;endArrow=none;endFill=0;exitX=0.5;exitY=1;exitDx=0;exitDy=0;" parent="1" source="i0QCQzi2DN3hbtzkU2qB-341" target="i0QCQzi2DN3hbtzkU2qB-9" edge="1">
          <mxGeometry relative="1" as="geometry">
            <Array as="points" />
          </mxGeometry>
        </mxCell>
        <mxCell id="i0QCQzi2DN3hbtzkU2qB-340" value="(0, N)" style="edgeLabel;html=1;align=center;verticalAlign=middle;resizable=0;points=[];fontFamily=Helvetica;fontSize=12;fontColor=default;labelBackgroundColor=default;" parent="i0QCQzi2DN3hbtzkU2qB-339" vertex="1" connectable="0">
          <mxGeometry x="-0.6708" y="3" relative="1" as="geometry">
            <mxPoint y="1" as="offset" />
          </mxGeometry>
        </mxCell>
        <mxCell id="i0QCQzi2DN3hbtzkU2qB-341" value="Mounted" style="shape=rhombus;perimeter=rhombusPerimeter;whiteSpace=wrap;html=1;align=center;fontFamily=Helvetica;fontSize=12;labelBackgroundColor=none;" parent="1" vertex="1">
          <mxGeometry x="4913.63" y="614.1" width="120" height="60" as="geometry" />
        </mxCell>
        <mxCell id="i0QCQzi2DN3hbtzkU2qB-342" value="Description" style="ellipse;whiteSpace=wrap;html=1;align=center;fontFamily=Helvetica;fontSize=12;fontColor=default;labelBackgroundColor=none;" parent="1" vertex="1">
          <mxGeometry x="3193" y="1926.33" width="100" height="40" as="geometry" />
        </mxCell>
        <mxCell id="i0QCQzi2DN3hbtzkU2qB-343" value="Description" style="ellipse;whiteSpace=wrap;html=1;align=center;fontFamily=Helvetica;fontSize=12;fontColor=default;labelBackgroundColor=none;" parent="1" vertex="1">
          <mxGeometry x="4210" y="499.99999999999994" width="100" height="40" as="geometry" />
        </mxCell>
        <mxCell id="i0QCQzi2DN3hbtzkU2qB-345" value="Description" style="ellipse;whiteSpace=wrap;html=1;align=center;fontFamily=Helvetica;fontSize=12;fontColor=default;labelBackgroundColor=none;" parent="1" vertex="1">
          <mxGeometry x="4517" y="1954.33" width="90" height="40" as="geometry" />
        </mxCell>
        <mxCell id="i0QCQzi2DN3hbtzkU2qB-346" value="Atomic type" style="ellipse;whiteSpace=wrap;html=1;align=center;fontFamily=Helvetica;fontSize=12;fontColor=default;labelBackgroundColor=none;" parent="1" vertex="1">
          <mxGeometry x="3193" y="1971.33" width="100" height="40" as="geometry" />
        </mxCell>
        <mxCell id="i0QCQzi2DN3hbtzkU2qB-347" value="Version" style="ellipse;whiteSpace=wrap;html=1;align=center;fontFamily=Helvetica;fontSize=12;fontColor=default;labelBackgroundColor=none;" parent="1" vertex="1">
          <mxGeometry x="4823.63" y="350.0000000000001" width="100" height="40" as="geometry" />
        </mxCell>
        <mxCell id="i0QCQzi2DN3hbtzkU2qB-348" value="Version" style="ellipse;whiteSpace=wrap;html=1;align=center;fontFamily=Helvetica;fontSize=12;fontColor=default;labelBackgroundColor=none;" parent="1" vertex="1">
          <mxGeometry x="5058.63" y="1257.77" width="100" height="40" as="geometry" />
        </mxCell>
        <mxCell id="i0QCQzi2DN3hbtzkU2qB-349" value="Version" style="ellipse;whiteSpace=wrap;html=1;align=center;fontFamily=Helvetica;fontSize=12;fontColor=default;labelBackgroundColor=none;" parent="1" vertex="1">
          <mxGeometry x="4100" y="1139.9999999999998" width="100" height="40" as="geometry" />
        </mxCell>
        <mxCell id="i0QCQzi2DN3hbtzkU2qB-350" value="Version" style="ellipse;whiteSpace=wrap;html=1;align=center;fontFamily=Helvetica;fontSize=12;fontColor=default;labelBackgroundColor=none;" parent="1" vertex="1">
          <mxGeometry x="6100" y="1802" width="100" height="40" as="geometry" />
        </mxCell>
        <mxCell id="i0QCQzi2DN3hbtzkU2qB-358" value="Name" style="ellipse;whiteSpace=wrap;html=1;align=center;fontFamily=Helvetica;fontSize=12;fontColor=default;labelBackgroundColor=none;" parent="1" vertex="1">
          <mxGeometry x="3667.17" y="1282.6699999999998" width="64" height="40" as="geometry" />
        </mxCell>
        <mxCell id="i0QCQzi2DN3hbtzkU2qB-359" value="ID" style="ellipse;whiteSpace=wrap;html=1;align=center;fontStyle=4;fontFamily=Helvetica;fontSize=12;fontColor=default;labelBackgroundColor=none;" parent="1" vertex="1">
          <mxGeometry x="3645" y="1335.4400000000003" width="57" height="40" as="geometry" />
        </mxCell>
        <mxCell id="i0QCQzi2DN3hbtzkU2qB-373" value="3D offset to&lt;div&gt;panel&lt;/div&gt;" style="ellipse;whiteSpace=wrap;html=1;align=center;fontFamily=Helvetica;fontSize=12;labelBackgroundColor=none;fillColor=#fff2cc;strokeColor=#d6b656;" parent="1" vertex="1">
          <mxGeometry x="3515.61" y="1365.0000000000002" width="100" height="40" as="geometry" />
        </mxCell>
        <mxCell id="i0QCQzi2DN3hbtzkU2qB-374" value="Cv&amp;nbsp;&lt;span style=&quot;background-color: transparent; color: light-dark(rgb(0, 0, 0), rgb(255, 255, 255));&quot;&gt;map&amp;nbsp;&lt;/span&gt;&lt;div&gt;&lt;span style=&quot;background-color: transparent; color: light-dark(rgb(0, 0, 0), rgb(255, 255, 255));&quot;&gt;on panel&amp;nbsp;&lt;/span&gt;&lt;/div&gt;" style="ellipse;whiteSpace=wrap;html=1;align=center;fontFamily=Helvetica;fontSize=12;fontColor=default;labelBackgroundColor=none;" parent="1" vertex="1">
          <mxGeometry x="3532.42" y="1317.77" width="88.79" height="40" as="geometry" />
        </mxCell>
        <mxCell id="i0QCQzi2DN3hbtzkU2qB-375" value="Path to the image" style="ellipse;whiteSpace=wrap;html=1;align=center;fontFamily=Helvetica;fontSize=12;fontColor=default;labelBackgroundColor=none;" parent="1" vertex="1">
          <mxGeometry x="3577" y="762.05" width="100" height="40" as="geometry" />
        </mxCell>
        <mxCell id="i0QCQzi2DN3hbtzkU2qB-376" value="Text" style="ellipse;whiteSpace=wrap;html=1;align=center;fontFamily=Helvetica;fontSize=12;fontColor=default;labelBackgroundColor=none;" parent="1" vertex="1">
          <mxGeometry x="3526" y="1550" width="64" height="40" as="geometry" />
        </mxCell>
        <mxCell id="i0QCQzi2DN3hbtzkU2qB-377" value="Color" style="ellipse;whiteSpace=wrap;html=1;align=center;fontFamily=Helvetica;fontSize=12;fontColor=default;labelBackgroundColor=none;" parent="1" vertex="1">
          <mxGeometry x="3613" y="1542.67" width="71" height="37.33" as="geometry" />
        </mxCell>
        <mxCell id="i0QCQzi2DN3hbtzkU2qB-378" value="Offset camera&lt;div style=&quot;font-size: 12px;&quot;&gt;wrt robot&lt;/div&gt;" style="ellipse;whiteSpace=wrap;html=1;align=center;fontFamily=Helvetica;fontSize=12;labelBackgroundColor=none;fillColor=#fff2cc;strokeColor=#d6b656;" parent="1" vertex="1">
          <mxGeometry x="5180" y="1684" width="100" height="40" as="geometry" />
        </mxCell>
        <mxCell id="i0QCQzi2DN3hbtzkU2qB-379" style="edgeStyle=none;shape=connector;rounded=0;orthogonalLoop=1;jettySize=auto;html=1;entryX=1;entryY=0.5;entryDx=0;entryDy=0;strokeColor=default;align=center;verticalAlign=middle;fontFamily=Helvetica;fontSize=12;fontColor=default;labelBackgroundColor=none;endArrow=none;endFill=0;exitX=0;exitY=1;exitDx=0;exitDy=0;" parent="1" source="i0QCQzi2DN3hbtzkU2qB-199" target="i0QCQzi2DN3hbtzkU2qB-378" edge="1">
          <mxGeometry relative="1" as="geometry" />
        </mxCell>
        <mxCell id="i0QCQzi2DN3hbtzkU2qB-380" value="wrt base/flange" style="ellipse;whiteSpace=wrap;html=1;align=center;fontFamily=Helvetica;fontSize=12;fontColor=default;labelBackgroundColor=none;" parent="1" vertex="1">
          <mxGeometry x="5158.63" y="1600" width="100" height="40" as="geometry" />
        </mxCell>
        <mxCell id="i0QCQzi2DN3hbtzkU2qB-384" value="Possible state" style="shape=rhombus;perimeter=rhombusPerimeter;whiteSpace=wrap;html=1;align=center;fontFamily=Helvetica;fontSize=12;labelBackgroundColor=none;" parent="1" vertex="1">
          <mxGeometry x="3239.9999999999995" y="1350.8999999999996" width="120" height="60" as="geometry" />
        </mxCell>
        <mxCell id="i0QCQzi2DN3hbtzkU2qB-385" value="" style="edgeStyle=none;shape=connector;rounded=0;orthogonalLoop=1;jettySize=auto;html=1;strokeColor=default;align=center;verticalAlign=middle;fontFamily=Helvetica;fontSize=12;fontColor=default;labelBackgroundColor=none;endArrow=none;endFill=0;exitX=0.5;exitY=1;exitDx=0;exitDy=0;entryX=0;entryY=0.25;entryDx=0;entryDy=0;" parent="1" source="i0QCQzi2DN3hbtzkU2qB-384" target="i0QCQzi2DN3hbtzkU2qB-448" edge="1">
          <mxGeometry relative="1" as="geometry">
            <mxPoint x="3800" y="2105.5699999999997" as="sourcePoint" />
            <mxPoint x="3890" y="1190" as="targetPoint" />
            <Array as="points">
              <mxPoint x="3300" y="1460" />
            </Array>
          </mxGeometry>
        </mxCell>
        <mxCell id="i0QCQzi2DN3hbtzkU2qB-386" value="(1, N)" style="edgeLabel;html=1;align=center;verticalAlign=middle;resizable=0;points=[];fontFamily=Helvetica;fontSize=12;fontColor=default;labelBackgroundColor=default;" parent="i0QCQzi2DN3hbtzkU2qB-385" vertex="1" connectable="0">
          <mxGeometry x="-0.7573" y="-4" relative="1" as="geometry">
            <mxPoint x="-7" y="-24" as="offset" />
          </mxGeometry>
        </mxCell>
        <mxCell id="i0QCQzi2DN3hbtzkU2qB-388" value="ID" style="ellipse;whiteSpace=wrap;html=1;align=center;fontStyle=4;fontFamily=Helvetica;fontSize=12;fontColor=default;labelBackgroundColor=none;" parent="1" vertex="1">
          <mxGeometry x="5531" y="697.1" width="100" height="40" as="geometry" />
        </mxCell>
        <mxCell id="i0QCQzi2DN3hbtzkU2qB-516" style="edgeStyle=none;shape=connector;rounded=0;orthogonalLoop=1;jettySize=auto;html=1;entryX=0.5;entryY=1;entryDx=0;entryDy=0;strokeColor=default;align=center;verticalAlign=middle;fontFamily=Helvetica;fontSize=12;fontColor=default;labelBackgroundColor=default;resizable=0;endArrow=none;endFill=0;" parent="1" source="i0QCQzi2DN3hbtzkU2qB-429" target="i0QCQzi2DN3hbtzkU2qB-216" edge="1">
          <mxGeometry relative="1" as="geometry" />
        </mxCell>
        <mxCell id="i0QCQzi2DN3hbtzkU2qB-517" style="edgeStyle=none;shape=connector;rounded=0;orthogonalLoop=1;jettySize=auto;html=1;entryX=0.5;entryY=1;entryDx=0;entryDy=0;strokeColor=default;align=center;verticalAlign=middle;fontFamily=Helvetica;fontSize=12;fontColor=default;labelBackgroundColor=default;resizable=0;endArrow=none;endFill=0;" parent="1" source="i0QCQzi2DN3hbtzkU2qB-429" target="i0QCQzi2DN3hbtzkU2qB-217" edge="1">
          <mxGeometry relative="1" as="geometry" />
        </mxCell>
        <mxCell id="i0QCQzi2DN3hbtzkU2qB-518" style="edgeStyle=none;shape=connector;rounded=0;orthogonalLoop=1;jettySize=auto;html=1;entryX=1;entryY=1;entryDx=0;entryDy=0;strokeColor=default;align=center;verticalAlign=middle;fontFamily=Helvetica;fontSize=12;fontColor=default;labelBackgroundColor=default;resizable=0;endArrow=none;endFill=0;" parent="1" source="i0QCQzi2DN3hbtzkU2qB-429" target="i0QCQzi2DN3hbtzkU2qB-345" edge="1">
          <mxGeometry relative="1" as="geometry" />
        </mxCell>
        <mxCell id="i0QCQzi2DN3hbtzkU2qB-519" style="edgeStyle=none;shape=connector;rounded=0;orthogonalLoop=1;jettySize=auto;html=1;entryX=1;entryY=0.5;entryDx=0;entryDy=0;strokeColor=default;align=center;verticalAlign=middle;fontFamily=Helvetica;fontSize=12;fontColor=default;labelBackgroundColor=default;resizable=0;endArrow=none;endFill=0;" parent="1" source="i0QCQzi2DN3hbtzkU2qB-429" target="i0QCQzi2DN3hbtzkU2qB-246" edge="1">
          <mxGeometry relative="1" as="geometry" />
        </mxCell>
        <mxCell id="i0QCQzi2DN3hbtzkU2qB-520" style="edgeStyle=none;shape=connector;rounded=0;orthogonalLoop=1;jettySize=auto;html=1;entryX=1;entryY=0.5;entryDx=0;entryDy=0;strokeColor=default;align=center;verticalAlign=middle;fontFamily=Helvetica;fontSize=12;fontColor=default;labelBackgroundColor=default;resizable=0;endArrow=none;endFill=0;" parent="1" source="i0QCQzi2DN3hbtzkU2qB-429" target="i0QCQzi2DN3hbtzkU2qB-500" edge="1">
          <mxGeometry relative="1" as="geometry" />
        </mxCell>
        <mxCell id="i0QCQzi2DN3hbtzkU2qB-521" style="edgeStyle=none;shape=connector;rounded=0;orthogonalLoop=1;jettySize=auto;html=1;entryX=1;entryY=0;entryDx=0;entryDy=0;strokeColor=default;align=center;verticalAlign=middle;fontFamily=Helvetica;fontSize=12;fontColor=default;labelBackgroundColor=default;resizable=0;endArrow=none;endFill=0;" parent="1" source="i0QCQzi2DN3hbtzkU2qB-429" target="i0QCQzi2DN3hbtzkU2qB-501" edge="1">
          <mxGeometry relative="1" as="geometry" />
        </mxCell>
        <mxCell id="i0QCQzi2DN3hbtzkU2qB-523" style="edgeStyle=none;shape=connector;rounded=0;orthogonalLoop=1;jettySize=auto;html=1;entryX=0.445;entryY=-0.008;entryDx=0;entryDy=0;strokeColor=default;align=center;verticalAlign=middle;fontFamily=Helvetica;fontSize=12;fontColor=default;labelBackgroundColor=default;resizable=0;endArrow=none;endFill=0;entryPerimeter=0;" parent="1" source="i0QCQzi2DN3hbtzkU2qB-429" target="i0QCQzi2DN3hbtzkU2qB-502" edge="1">
          <mxGeometry relative="1" as="geometry" />
        </mxCell>
        <mxCell id="i0QCQzi2DN3hbtzkU2qB-525" style="edgeStyle=none;shape=connector;rounded=0;orthogonalLoop=1;jettySize=auto;html=1;entryX=0.349;entryY=0.008;entryDx=0;entryDy=0;strokeColor=default;align=center;verticalAlign=middle;fontFamily=Helvetica;fontSize=12;fontColor=default;labelBackgroundColor=default;resizable=0;endArrow=none;endFill=0;entryPerimeter=0;" parent="1" source="i0QCQzi2DN3hbtzkU2qB-429" target="i0QCQzi2DN3hbtzkU2qB-513" edge="1">
          <mxGeometry relative="1" as="geometry" />
        </mxCell>
        <mxCell id="i0QCQzi2DN3hbtzkU2qB-527" style="edgeStyle=none;shape=connector;rounded=0;orthogonalLoop=1;jettySize=auto;html=1;entryX=0.5;entryY=1;entryDx=0;entryDy=0;strokeColor=default;align=center;verticalAlign=middle;fontFamily=Helvetica;fontSize=12;fontColor=default;labelBackgroundColor=default;resizable=0;endArrow=none;endFill=0;" parent="1" source="i0QCQzi2DN3hbtzkU2qB-429" target="i0QCQzi2DN3hbtzkU2qB-510" edge="1">
          <mxGeometry relative="1" as="geometry" />
        </mxCell>
        <mxCell id="i0QCQzi2DN3hbtzkU2qB-528" style="edgeStyle=none;shape=connector;rounded=0;orthogonalLoop=1;jettySize=auto;html=1;entryX=0;entryY=1;entryDx=0;entryDy=0;strokeColor=default;align=center;verticalAlign=middle;fontFamily=Helvetica;fontSize=12;fontColor=default;labelBackgroundColor=default;resizable=0;endArrow=none;endFill=0;" parent="1" source="i0QCQzi2DN3hbtzkU2qB-429" target="i0QCQzi2DN3hbtzkU2qB-511" edge="1">
          <mxGeometry relative="1" as="geometry" />
        </mxCell>
        <mxCell id="i0QCQzi2DN3hbtzkU2qB-529" style="edgeStyle=none;shape=connector;rounded=0;orthogonalLoop=1;jettySize=auto;html=1;entryX=0;entryY=1;entryDx=0;entryDy=0;strokeColor=default;align=center;verticalAlign=middle;fontFamily=Helvetica;fontSize=12;fontColor=default;labelBackgroundColor=default;resizable=0;endArrow=none;endFill=0;" parent="1" source="i0QCQzi2DN3hbtzkU2qB-429" target="i0QCQzi2DN3hbtzkU2qB-504" edge="1">
          <mxGeometry relative="1" as="geometry" />
        </mxCell>
        <mxCell id="i0QCQzi2DN3hbtzkU2qB-530" style="edgeStyle=none;shape=connector;rounded=0;orthogonalLoop=1;jettySize=auto;html=1;entryX=0;entryY=0.5;entryDx=0;entryDy=0;strokeColor=default;align=center;verticalAlign=middle;fontFamily=Helvetica;fontSize=12;fontColor=default;labelBackgroundColor=default;resizable=0;endArrow=none;endFill=0;" parent="1" source="i0QCQzi2DN3hbtzkU2qB-429" target="i0QCQzi2DN3hbtzkU2qB-505" edge="1">
          <mxGeometry relative="1" as="geometry" />
        </mxCell>
        <mxCell id="i0QCQzi2DN3hbtzkU2qB-534" style="edgeStyle=none;shape=connector;rounded=0;orthogonalLoop=1;jettySize=auto;html=1;entryX=0.021;entryY=0.326;entryDx=0;entryDy=0;strokeColor=default;align=center;verticalAlign=middle;fontFamily=Helvetica;fontSize=12;fontColor=default;labelBackgroundColor=default;resizable=0;endArrow=none;endFill=0;entryPerimeter=0;" parent="1" source="i0QCQzi2DN3hbtzkU2qB-429" target="i0QCQzi2DN3hbtzkU2qB-514" edge="1">
          <mxGeometry relative="1" as="geometry" />
        </mxCell>
        <mxCell id="vnqtRoP5cehh_M1OrcF_-5" style="edgeStyle=none;shape=connector;rounded=0;orthogonalLoop=1;jettySize=auto;html=1;entryX=1;entryY=0.5;entryDx=0;entryDy=0;strokeColor=default;align=center;verticalAlign=middle;fontFamily=Helvetica;fontSize=12;fontColor=default;labelBackgroundColor=default;resizable=0;endArrow=none;endFill=0;" edge="1" parent="1" source="i0QCQzi2DN3hbtzkU2qB-429" target="vnqtRoP5cehh_M1OrcF_-1">
          <mxGeometry relative="1" as="geometry" />
        </mxCell>
        <mxCell id="vnqtRoP5cehh_M1OrcF_-6" value="(1, 1)" style="edgeLabel;html=1;align=center;verticalAlign=middle;resizable=0;points=[];fontFamily=Helvetica;fontSize=12;fontColor=default;labelBackgroundColor=default;fillColor=none;gradientColor=none;" vertex="1" connectable="0" parent="vnqtRoP5cehh_M1OrcF_-5">
          <mxGeometry x="0.762" y="-3" relative="1" as="geometry">
            <mxPoint as="offset" />
          </mxGeometry>
        </mxCell>
        <mxCell id="i0QCQzi2DN3hbtzkU2qB-429" value="CV athomic" style="whiteSpace=wrap;html=1;align=center;fontFamily=Helvetica;fontSize=12;labelBackgroundColor=none;" parent="1" vertex="1">
          <mxGeometry x="4676.16" y="2054" width="100" height="40" as="geometry" />
        </mxCell>
        <mxCell id="i0QCQzi2DN3hbtzkU2qB-437" style="edgeStyle=none;shape=connector;rounded=0;orthogonalLoop=1;jettySize=auto;html=1;exitX=0.5;exitY=1;exitDx=0;exitDy=0;strokeColor=default;align=center;verticalAlign=middle;fontFamily=Helvetica;fontSize=12;fontColor=default;labelBackgroundColor=none;endArrow=none;endFill=0;" parent="1" source="i0QCQzi2DN3hbtzkU2qB-134" target="i0QCQzi2DN3hbtzkU2qB-134" edge="1">
          <mxGeometry relative="1" as="geometry" />
        </mxCell>
        <mxCell id="i0QCQzi2DN3hbtzkU2qB-580" style="edgeStyle=none;shape=connector;rounded=0;orthogonalLoop=1;jettySize=auto;html=1;entryX=0;entryY=0;entryDx=0;entryDy=0;strokeColor=default;align=center;verticalAlign=middle;fontFamily=Helvetica;fontSize=12;fontColor=default;labelBackgroundColor=default;resizable=0;endArrow=none;endFill=0;" parent="1" source="i0QCQzi2DN3hbtzkU2qB-447" target="i0QCQzi2DN3hbtzkU2qB-576" edge="1">
          <mxGeometry relative="1" as="geometry" />
        </mxCell>
        <mxCell id="i0QCQzi2DN3hbtzkU2qB-581" style="edgeStyle=none;shape=connector;rounded=0;orthogonalLoop=1;jettySize=auto;html=1;entryX=0.936;entryY=0.302;entryDx=0;entryDy=0;strokeColor=default;align=center;verticalAlign=middle;fontFamily=Helvetica;fontSize=12;fontColor=default;labelBackgroundColor=default;resizable=0;endArrow=none;endFill=0;entryPerimeter=0;" parent="1" source="i0QCQzi2DN3hbtzkU2qB-447" target="i0QCQzi2DN3hbtzkU2qB-577" edge="1">
          <mxGeometry relative="1" as="geometry" />
        </mxCell>
        <mxCell id="i0QCQzi2DN3hbtzkU2qB-582" style="edgeStyle=none;shape=connector;rounded=0;orthogonalLoop=1;jettySize=auto;html=1;entryX=1;entryY=0.5;entryDx=0;entryDy=0;strokeColor=default;align=center;verticalAlign=middle;fontFamily=Helvetica;fontSize=12;fontColor=default;labelBackgroundColor=default;resizable=0;endArrow=none;endFill=0;" parent="1" source="i0QCQzi2DN3hbtzkU2qB-447" target="i0QCQzi2DN3hbtzkU2qB-578" edge="1">
          <mxGeometry relative="1" as="geometry" />
        </mxCell>
        <mxCell id="i0QCQzi2DN3hbtzkU2qB-583" style="edgeStyle=none;shape=connector;rounded=0;orthogonalLoop=1;jettySize=auto;html=1;entryX=0.938;entryY=0.735;entryDx=0;entryDy=0;strokeColor=default;align=center;verticalAlign=middle;fontFamily=Helvetica;fontSize=12;fontColor=default;labelBackgroundColor=default;resizable=0;endArrow=none;endFill=0;entryPerimeter=0;" parent="1" source="i0QCQzi2DN3hbtzkU2qB-447" target="i0QCQzi2DN3hbtzkU2qB-579" edge="1">
          <mxGeometry relative="1" as="geometry" />
        </mxCell>
        <mxCell id="i0QCQzi2DN3hbtzkU2qB-447" value="P&lt;span style=&quot;background-color: transparent; color: light-dark(rgb(0, 0, 0), rgb(255, 255, 255));&quot;&gt;anels&lt;/span&gt;" style="shape=ext;margin=3;double=1;whiteSpace=wrap;html=1;align=center;" parent="1" vertex="1">
          <mxGeometry x="3715" y="876.1" width="100" height="40" as="geometry" />
        </mxCell>
        <mxCell id="i0QCQzi2DN3hbtzkU2qB-602" style="edgeStyle=none;shape=connector;rounded=0;orthogonalLoop=1;jettySize=auto;html=1;entryX=0.746;entryY=0.916;entryDx=0;entryDy=0;strokeColor=default;align=center;verticalAlign=middle;fontFamily=Helvetica;fontSize=12;fontColor=default;labelBackgroundColor=default;resizable=0;endArrow=none;endFill=0;entryPerimeter=0;" parent="1" source="i0QCQzi2DN3hbtzkU2qB-448" target="i0QCQzi2DN3hbtzkU2qB-358" edge="1">
          <mxGeometry relative="1" as="geometry" />
        </mxCell>
        <mxCell id="i0QCQzi2DN3hbtzkU2qB-603" style="edgeStyle=none;shape=connector;rounded=0;orthogonalLoop=1;jettySize=auto;html=1;entryX=1;entryY=1;entryDx=0;entryDy=0;strokeColor=default;align=center;verticalAlign=middle;fontFamily=Helvetica;fontSize=12;fontColor=default;labelBackgroundColor=default;resizable=0;endArrow=none;endFill=0;" parent="1" source="i0QCQzi2DN3hbtzkU2qB-448" target="i0QCQzi2DN3hbtzkU2qB-359" edge="1">
          <mxGeometry relative="1" as="geometry" />
        </mxCell>
        <mxCell id="i0QCQzi2DN3hbtzkU2qB-604" style="edgeStyle=none;shape=connector;rounded=0;orthogonalLoop=1;jettySize=auto;html=1;entryX=1;entryY=1;entryDx=0;entryDy=0;strokeColor=default;align=center;verticalAlign=middle;fontFamily=Helvetica;fontSize=12;fontColor=default;labelBackgroundColor=default;resizable=0;endArrow=none;endFill=0;" parent="1" source="i0QCQzi2DN3hbtzkU2qB-448" target="i0QCQzi2DN3hbtzkU2qB-374" edge="1">
          <mxGeometry relative="1" as="geometry" />
        </mxCell>
        <mxCell id="i0QCQzi2DN3hbtzkU2qB-605" style="edgeStyle=none;shape=connector;rounded=0;orthogonalLoop=1;jettySize=auto;html=1;entryX=0.945;entryY=0.729;entryDx=0;entryDy=0;strokeColor=default;align=center;verticalAlign=middle;fontFamily=Helvetica;fontSize=12;fontColor=default;labelBackgroundColor=default;resizable=0;endArrow=none;endFill=0;entryPerimeter=0;" parent="1" source="i0QCQzi2DN3hbtzkU2qB-448" target="i0QCQzi2DN3hbtzkU2qB-373" edge="1">
          <mxGeometry relative="1" as="geometry" />
        </mxCell>
        <mxCell id="i0QCQzi2DN3hbtzkU2qB-606" style="edgeStyle=none;shape=connector;rounded=0;orthogonalLoop=1;jettySize=auto;html=1;entryX=0.968;entryY=0.71;entryDx=0;entryDy=0;strokeColor=default;align=center;verticalAlign=middle;fontFamily=Helvetica;fontSize=12;fontColor=default;labelBackgroundColor=default;resizable=0;endArrow=none;endFill=0;entryPerimeter=0;" parent="1" source="i0QCQzi2DN3hbtzkU2qB-448" target="i0QCQzi2DN3hbtzkU2qB-585" edge="1">
          <mxGeometry relative="1" as="geometry" />
        </mxCell>
        <mxCell id="i0QCQzi2DN3hbtzkU2qB-607" style="edgeStyle=none;shape=connector;rounded=0;orthogonalLoop=1;jettySize=auto;html=1;entryX=1;entryY=0.5;entryDx=0;entryDy=0;strokeColor=default;align=center;verticalAlign=middle;fontFamily=Helvetica;fontSize=12;fontColor=default;labelBackgroundColor=default;resizable=0;endArrow=none;endFill=0;" parent="1" source="i0QCQzi2DN3hbtzkU2qB-448" target="i0QCQzi2DN3hbtzkU2qB-586" edge="1">
          <mxGeometry relative="1" as="geometry" />
        </mxCell>
        <mxCell id="i0QCQzi2DN3hbtzkU2qB-608" style="edgeStyle=none;shape=connector;rounded=0;orthogonalLoop=1;jettySize=auto;html=1;entryX=1;entryY=0;entryDx=0;entryDy=0;strokeColor=default;align=center;verticalAlign=middle;fontFamily=Helvetica;fontSize=12;fontColor=default;labelBackgroundColor=default;resizable=0;endArrow=none;endFill=0;" parent="1" source="i0QCQzi2DN3hbtzkU2qB-448" target="i0QCQzi2DN3hbtzkU2qB-376" edge="1">
          <mxGeometry relative="1" as="geometry" />
        </mxCell>
        <mxCell id="i0QCQzi2DN3hbtzkU2qB-609" style="edgeStyle=none;shape=connector;rounded=0;orthogonalLoop=1;jettySize=auto;html=1;entryX=1;entryY=0;entryDx=0;entryDy=0;strokeColor=default;align=center;verticalAlign=middle;fontFamily=Helvetica;fontSize=12;fontColor=default;labelBackgroundColor=default;resizable=0;endArrow=none;endFill=0;exitX=0.195;exitY=1.017;exitDx=0;exitDy=0;exitPerimeter=0;" parent="1" source="i0QCQzi2DN3hbtzkU2qB-448" target="i0QCQzi2DN3hbtzkU2qB-377" edge="1">
          <mxGeometry relative="1" as="geometry" />
        </mxCell>
        <mxCell id="i0QCQzi2DN3hbtzkU2qB-610" style="edgeStyle=none;shape=connector;rounded=0;orthogonalLoop=1;jettySize=auto;html=1;entryX=0.268;entryY=0.031;entryDx=0;entryDy=0;strokeColor=default;align=center;verticalAlign=middle;fontFamily=Helvetica;fontSize=12;fontColor=default;labelBackgroundColor=default;resizable=0;endArrow=none;endFill=0;exitX=0.846;exitY=0.997;exitDx=0;exitDy=0;exitPerimeter=0;entryPerimeter=0;" parent="1" source="i0QCQzi2DN3hbtzkU2qB-448" target="i0QCQzi2DN3hbtzkU2qB-587" edge="1">
          <mxGeometry relative="1" as="geometry" />
        </mxCell>
        <mxCell id="i0QCQzi2DN3hbtzkU2qB-612" style="edgeStyle=none;shape=connector;rounded=0;orthogonalLoop=1;jettySize=auto;html=1;entryX=0;entryY=0.5;entryDx=0;entryDy=0;strokeColor=default;align=center;verticalAlign=middle;fontFamily=Helvetica;fontSize=12;fontColor=default;labelBackgroundColor=default;resizable=0;endArrow=none;endFill=0;" parent="1" source="i0QCQzi2DN3hbtzkU2qB-448" target="i0QCQzi2DN3hbtzkU2qB-590" edge="1">
          <mxGeometry relative="1" as="geometry" />
        </mxCell>
        <mxCell id="i0QCQzi2DN3hbtzkU2qB-613" style="edgeStyle=none;shape=connector;rounded=0;orthogonalLoop=1;jettySize=auto;html=1;entryX=0.044;entryY=0.696;entryDx=0;entryDy=0;strokeColor=default;align=center;verticalAlign=middle;fontFamily=Helvetica;fontSize=12;fontColor=default;labelBackgroundColor=default;resizable=0;endArrow=none;endFill=0;entryPerimeter=0;" parent="1" source="i0QCQzi2DN3hbtzkU2qB-448" target="i0QCQzi2DN3hbtzkU2qB-591" edge="1">
          <mxGeometry relative="1" as="geometry" />
        </mxCell>
        <mxCell id="i0QCQzi2DN3hbtzkU2qB-614" style="edgeStyle=none;shape=connector;rounded=0;orthogonalLoop=1;jettySize=auto;html=1;entryX=0;entryY=1;entryDx=0;entryDy=0;strokeColor=default;align=center;verticalAlign=middle;fontFamily=Helvetica;fontSize=12;fontColor=default;labelBackgroundColor=default;resizable=0;endArrow=none;endFill=0;" parent="1" source="i0QCQzi2DN3hbtzkU2qB-448" target="i0QCQzi2DN3hbtzkU2qB-592" edge="1">
          <mxGeometry relative="1" as="geometry" />
        </mxCell>
        <mxCell id="i0QCQzi2DN3hbtzkU2qB-615" style="edgeStyle=none;shape=connector;rounded=0;orthogonalLoop=1;jettySize=auto;html=1;entryX=0.299;entryY=0.058;entryDx=0;entryDy=0;strokeColor=default;align=center;verticalAlign=middle;fontFamily=Helvetica;fontSize=12;fontColor=default;labelBackgroundColor=default;resizable=0;endArrow=none;endFill=0;entryPerimeter=0;exitX=0.75;exitY=1;exitDx=0;exitDy=0;" parent="1" source="i0QCQzi2DN3hbtzkU2qB-448" target="i0QCQzi2DN3hbtzkU2qB-600" edge="1">
          <mxGeometry relative="1" as="geometry" />
        </mxCell>
        <mxCell id="i0QCQzi2DN3hbtzkU2qB-448" value="Feature" style="shape=ext;margin=3;double=1;whiteSpace=wrap;html=1;align=center;fontFamily=Helvetica;fontSize=11;fontColor=default;labelBackgroundColor=default;" parent="1" vertex="1">
          <mxGeometry x="3715" y="1451" width="100" height="40" as="geometry" />
        </mxCell>
        <mxCell id="i0QCQzi2DN3hbtzkU2qB-449" style="rounded=0;orthogonalLoop=1;jettySize=auto;html=1;endArrow=oval;endFill=1;endSize=12;exitX=0.406;exitY=0.938;exitDx=0;exitDy=0;exitPerimeter=0;" parent="1" source="i0QCQzi2DN3hbtzkU2qB-67" edge="1">
          <mxGeometry relative="1" as="geometry">
            <mxPoint x="3720" y="1390" as="targetPoint" />
            <mxPoint x="3720.21" y="1205" as="sourcePoint" />
          </mxGeometry>
        </mxCell>
        <mxCell id="i0QCQzi2DN3hbtzkU2qB-454" style="edgeStyle=none;shape=connector;rounded=0;orthogonalLoop=1;jettySize=auto;html=1;entryX=1;entryY=0.25;entryDx=0;entryDy=0;strokeColor=default;align=center;verticalAlign=middle;fontFamily=Helvetica;fontSize=12;fontColor=default;labelBackgroundColor=none;endArrow=none;endFill=0;exitX=0;exitY=0.5;exitDx=0;exitDy=0;" parent="1" source="i0QCQzi2DN3hbtzkU2qB-451" target="i0QCQzi2DN3hbtzkU2qB-9" edge="1">
          <mxGeometry relative="1" as="geometry">
            <Array as="points">
              <mxPoint x="5300" y="560" />
              <mxPoint x="5300" y="894" />
            </Array>
          </mxGeometry>
        </mxCell>
        <mxCell id="i0QCQzi2DN3hbtzkU2qB-456" value="(0, N)" style="edgeLabel;html=1;align=center;verticalAlign=middle;resizable=0;points=[];fontFamily=Helvetica;fontSize=12;fontColor=default;labelBackgroundColor=default;" parent="i0QCQzi2DN3hbtzkU2qB-454" vertex="1" connectable="0">
          <mxGeometry x="-0.6551" relative="1" as="geometry">
            <mxPoint x="96" as="offset" />
          </mxGeometry>
        </mxCell>
        <mxCell id="i0QCQzi2DN3hbtzkU2qB-451" value="executable on" style="shape=rhombus;perimeter=rhombusPerimeter;whiteSpace=wrap;html=1;align=center;fontFamily=Helvetica;fontSize=12;labelBackgroundColor=none;" parent="1" vertex="1">
          <mxGeometry x="5590" y="530" width="120" height="60" as="geometry" />
        </mxCell>
        <mxCell id="i0QCQzi2DN3hbtzkU2qB-459" style="edgeStyle=none;shape=connector;rounded=0;orthogonalLoop=1;jettySize=auto;html=1;entryX=0.718;entryY=0.939;entryDx=0;entryDy=0;strokeColor=default;align=center;verticalAlign=middle;fontFamily=Helvetica;fontSize=12;fontColor=default;labelBackgroundColor=none;endArrow=none;endFill=0;entryPerimeter=0;" parent="1" source="i0QCQzi2DN3hbtzkU2qB-461" target="i0QCQzi2DN3hbtzkU2qB-462" edge="1">
          <mxGeometry relative="1" as="geometry" />
        </mxCell>
        <mxCell id="i0QCQzi2DN3hbtzkU2qB-460" style="edgeStyle=none;shape=connector;rounded=0;orthogonalLoop=1;jettySize=auto;html=1;entryX=0.5;entryY=1;entryDx=0;entryDy=0;strokeColor=default;align=center;verticalAlign=middle;fontFamily=Helvetica;fontSize=12;fontColor=default;labelBackgroundColor=none;endArrow=none;endFill=0;" parent="1" source="i0QCQzi2DN3hbtzkU2qB-461" target="i0QCQzi2DN3hbtzkU2qB-465" edge="1">
          <mxGeometry relative="1" as="geometry" />
        </mxCell>
        <mxCell id="i0QCQzi2DN3hbtzkU2qB-467" style="edgeStyle=none;shape=connector;rounded=0;orthogonalLoop=1;jettySize=auto;html=1;entryX=0.284;entryY=0.948;entryDx=0;entryDy=0;strokeColor=default;align=center;verticalAlign=middle;fontFamily=Helvetica;fontSize=12;fontColor=default;labelBackgroundColor=default;resizable=0;endArrow=none;endFill=0;entryPerimeter=0;" parent="1" source="i0QCQzi2DN3hbtzkU2qB-461" target="i0QCQzi2DN3hbtzkU2qB-466" edge="1">
          <mxGeometry relative="1" as="geometry" />
        </mxCell>
        <mxCell id="i0QCQzi2DN3hbtzkU2qB-470" style="edgeStyle=none;shape=connector;rounded=0;orthogonalLoop=1;jettySize=auto;html=1;entryX=0.5;entryY=0;entryDx=0;entryDy=0;strokeColor=default;align=center;verticalAlign=middle;fontFamily=Helvetica;fontSize=12;fontColor=default;labelBackgroundColor=default;resizable=0;endArrow=none;endFill=0;" parent="1" source="i0QCQzi2DN3hbtzkU2qB-461" target="i0QCQzi2DN3hbtzkU2qB-468" edge="1">
          <mxGeometry relative="1" as="geometry" />
        </mxCell>
        <mxCell id="i0QCQzi2DN3hbtzkU2qB-471" style="edgeStyle=none;shape=connector;rounded=0;orthogonalLoop=1;jettySize=auto;html=1;entryX=0.951;entryY=0.299;entryDx=0;entryDy=0;strokeColor=default;align=center;verticalAlign=middle;fontFamily=Helvetica;fontSize=12;fontColor=default;labelBackgroundColor=default;resizable=0;endArrow=none;endFill=0;entryPerimeter=0;" parent="1" source="i0QCQzi2DN3hbtzkU2qB-461" target="i0QCQzi2DN3hbtzkU2qB-469" edge="1">
          <mxGeometry relative="1" as="geometry" />
        </mxCell>
        <mxCell id="i0QCQzi2DN3hbtzkU2qB-479" style="edgeStyle=none;shape=connector;rounded=0;orthogonalLoop=1;jettySize=auto;html=1;entryX=0;entryY=0.5;entryDx=0;entryDy=0;strokeColor=default;align=center;verticalAlign=middle;fontFamily=Helvetica;fontSize=12;fontColor=default;labelBackgroundColor=default;resizable=0;endArrow=none;endFill=0;" parent="1" source="i0QCQzi2DN3hbtzkU2qB-461" target="i0QCQzi2DN3hbtzkU2qB-478" edge="1">
          <mxGeometry relative="1" as="geometry" />
        </mxCell>
        <mxCell id="i0QCQzi2DN3hbtzkU2qB-482" value="(1, N)" style="edgeLabel;html=1;align=center;verticalAlign=middle;resizable=0;points=[];fontFamily=Helvetica;fontSize=12;fontColor=default;labelBackgroundColor=default;fillColor=none;gradientColor=none;" parent="i0QCQzi2DN3hbtzkU2qB-479" vertex="1" connectable="0">
          <mxGeometry x="0.5413" y="-2" relative="1" as="geometry">
            <mxPoint x="-5" y="-2" as="offset" />
          </mxGeometry>
        </mxCell>
        <mxCell id="i0QCQzi2DN3hbtzkU2qB-461" value="Executions" style="whiteSpace=wrap;html=1;align=center;fontFamily=Helvetica;fontSize=12;labelBackgroundColor=none;fillColor=#fad7ac;strokeColor=#b46504;" parent="1" vertex="1">
          <mxGeometry x="5930" y="1024.9999999999998" width="100" height="40" as="geometry" />
        </mxCell>
        <mxCell id="i0QCQzi2DN3hbtzkU2qB-462" value="ID" style="ellipse;whiteSpace=wrap;html=1;align=center;fontStyle=4;fontFamily=Helvetica;fontSize=12;fontColor=default;labelBackgroundColor=none;" parent="1" vertex="1">
          <mxGeometry x="5780" y="956.0999999999998" width="100" height="40" as="geometry" />
        </mxCell>
        <mxCell id="i0QCQzi2DN3hbtzkU2qB-463" value="" style="edgeStyle=none;shape=connector;rounded=0;orthogonalLoop=1;jettySize=auto;html=1;strokeColor=default;align=center;verticalAlign=middle;fontFamily=Helvetica;fontSize=12;fontColor=default;labelBackgroundColor=none;endArrow=none;endFill=0;" parent="1" source="i0QCQzi2DN3hbtzkU2qB-464" target="i0QCQzi2DN3hbtzkU2qB-461" edge="1">
          <mxGeometry relative="1" as="geometry" />
        </mxCell>
        <mxCell id="i0QCQzi2DN3hbtzkU2qB-464" value="Name" style="ellipse;whiteSpace=wrap;html=1;align=center;fontFamily=Helvetica;fontSize=12;fontColor=default;labelBackgroundColor=none;" parent="1" vertex="1">
          <mxGeometry x="5830" y="909.9999999999998" width="100" height="40" as="geometry" />
        </mxCell>
        <mxCell id="i0QCQzi2DN3hbtzkU2qB-465" value="Start timestamp" style="ellipse;whiteSpace=wrap;html=1;align=center;fontFamily=Helvetica;fontSize=12;fontColor=default;labelBackgroundColor=none;" parent="1" vertex="1">
          <mxGeometry x="5950" y="910" width="100" height="40" as="geometry" />
        </mxCell>
        <mxCell id="i0QCQzi2DN3hbtzkU2qB-466" value="Total Output" style="ellipse;whiteSpace=wrap;html=1;align=center;fontFamily=Helvetica;fontSize=12;fontColor=default;labelBackgroundColor=none;" parent="1" vertex="1">
          <mxGeometry x="6090" y="970" width="100" height="40" as="geometry" />
        </mxCell>
        <mxCell id="i0QCQzi2DN3hbtzkU2qB-468" value="Report file path" style="ellipse;whiteSpace=wrap;html=1;align=center;fontFamily=Helvetica;fontSize=12;fontColor=default;labelBackgroundColor=none;" parent="1" vertex="1">
          <mxGeometry x="5940" y="1132" width="100" height="40" as="geometry" />
        </mxCell>
        <mxCell id="i0QCQzi2DN3hbtzkU2qB-469" value="Diagnostic file path" style="ellipse;whiteSpace=wrap;html=1;align=center;fontFamily=Helvetica;fontSize=12;fontColor=default;labelBackgroundColor=none;" parent="1" vertex="1">
          <mxGeometry x="5810" y="1105" width="100" height="40" as="geometry" />
        </mxCell>
        <mxCell id="i0QCQzi2DN3hbtzkU2qB-475" style="edgeStyle=none;shape=connector;rounded=0;orthogonalLoop=1;jettySize=auto;html=1;entryX=0;entryY=0.5;entryDx=0;entryDy=0;strokeColor=default;align=center;verticalAlign=middle;fontFamily=Helvetica;fontSize=12;fontColor=default;labelBackgroundColor=default;resizable=0;endArrow=none;endFill=0;" parent="1" source="i0QCQzi2DN3hbtzkU2qB-473" target="i0QCQzi2DN3hbtzkU2qB-461" edge="1">
          <mxGeometry relative="1" as="geometry" />
        </mxCell>
        <mxCell id="i0QCQzi2DN3hbtzkU2qB-476" value="(1, 1)" style="edgeLabel;html=1;align=center;verticalAlign=middle;resizable=0;points=[];fontFamily=Helvetica;fontSize=12;fontColor=default;labelBackgroundColor=default;fillColor=none;gradientColor=none;" parent="i0QCQzi2DN3hbtzkU2qB-475" vertex="1" connectable="0">
          <mxGeometry x="-0.419" y="1" relative="1" as="geometry">
            <mxPoint x="-19" y="2" as="offset" />
          </mxGeometry>
        </mxCell>
        <mxCell id="i0QCQzi2DN3hbtzkU2qB-473" value="Launched by" style="shape=rhombus;perimeter=rhombusPerimeter;whiteSpace=wrap;html=1;align=center;fontFamily=Helvetica;fontSize=12;labelBackgroundColor=none;" parent="1" vertex="1">
          <mxGeometry x="5651" y="1013.6699999999998" width="120" height="60" as="geometry" />
        </mxCell>
        <mxCell id="i0QCQzi2DN3hbtzkU2qB-478" value="Composed by" style="shape=rhombus;perimeter=rhombusPerimeter;whiteSpace=wrap;html=1;align=center;fontFamily=Helvetica;fontSize=12;labelBackgroundColor=none;" parent="1" vertex="1">
          <mxGeometry x="6210" y="1015" width="120" height="60" as="geometry" />
        </mxCell>
        <mxCell id="i0QCQzi2DN3hbtzkU2qB-485" style="edgeStyle=none;shape=connector;rounded=0;orthogonalLoop=1;jettySize=auto;html=1;entryX=0.5;entryY=0;entryDx=0;entryDy=0;strokeColor=default;align=center;verticalAlign=middle;fontFamily=Helvetica;fontSize=12;fontColor=default;labelBackgroundColor=default;resizable=0;endArrow=none;endFill=0;exitX=1;exitY=0.5;exitDx=0;exitDy=0;" parent="1" source="i0QCQzi2DN3hbtzkU2qB-483" target="i0QCQzi2DN3hbtzkU2qB-34" edge="1">
          <mxGeometry relative="1" as="geometry">
            <Array as="points">
              <mxPoint x="6530" y="453" />
            </Array>
          </mxGeometry>
        </mxCell>
        <mxCell id="i0QCQzi2DN3hbtzkU2qB-487" value="(0, N)" style="edgeLabel;html=1;align=center;verticalAlign=middle;resizable=0;points=[];fontFamily=Helvetica;fontSize=12;fontColor=default;labelBackgroundColor=default;fillColor=none;gradientColor=none;" parent="i0QCQzi2DN3hbtzkU2qB-485" vertex="1" connectable="0">
          <mxGeometry x="-0.6336" y="4" relative="1" as="geometry">
            <mxPoint x="-60" y="4" as="offset" />
          </mxGeometry>
        </mxCell>
        <mxCell id="i0QCQzi2DN3hbtzkU2qB-483" value="used in" style="shape=rhombus;perimeter=rhombusPerimeter;whiteSpace=wrap;html=1;align=center;fontFamily=Helvetica;fontSize=12;labelBackgroundColor=none;" parent="1" vertex="1">
          <mxGeometry x="5910" y="422.67" width="120" height="60" as="geometry" />
        </mxCell>
        <mxCell id="i0QCQzi2DN3hbtzkU2qB-490" style="edgeStyle=none;shape=connector;rounded=0;orthogonalLoop=1;jettySize=auto;html=1;entryX=0.92;entryY=1.031;entryDx=0;entryDy=0;strokeColor=default;align=center;verticalAlign=middle;fontFamily=Helvetica;fontSize=12;fontColor=default;labelBackgroundColor=default;resizable=0;endArrow=none;endFill=0;exitX=0.5;exitY=0;exitDx=0;exitDy=0;entryPerimeter=0;" parent="1" source="i0QCQzi2DN3hbtzkU2qB-488" target="i0QCQzi2DN3hbtzkU2qB-9" edge="1">
          <mxGeometry relative="1" as="geometry">
            <Array as="points">
              <mxPoint x="5510" y="1140" />
              <mxPoint x="5016" y="1135" />
            </Array>
          </mxGeometry>
        </mxCell>
        <mxCell id="i0QCQzi2DN3hbtzkU2qB-491" value="(0, N)" style="edgeLabel;html=1;align=center;verticalAlign=middle;resizable=0;points=[];fontFamily=Helvetica;fontSize=12;fontColor=default;labelBackgroundColor=default;fillColor=none;gradientColor=none;" parent="i0QCQzi2DN3hbtzkU2qB-490" vertex="1" connectable="0">
          <mxGeometry x="-0.6797" y="-1" relative="1" as="geometry">
            <mxPoint x="78" y="22" as="offset" />
          </mxGeometry>
        </mxCell>
        <mxCell id="i0QCQzi2DN3hbtzkU2qB-488" value="Mounted" style="shape=rhombus;perimeter=rhombusPerimeter;whiteSpace=wrap;html=1;align=center;fontFamily=Helvetica;fontSize=12;labelBackgroundColor=none;" parent="1" vertex="1">
          <mxGeometry x="5450" y="1181.95" width="120" height="60" as="geometry" />
        </mxCell>
        <mxCell id="i0QCQzi2DN3hbtzkU2qB-495" style="edgeStyle=none;shape=connector;rounded=0;orthogonalLoop=1;jettySize=auto;html=1;entryX=1;entryY=0.5;entryDx=0;entryDy=0;strokeColor=default;align=center;verticalAlign=middle;fontFamily=Helvetica;fontSize=12;fontColor=default;labelBackgroundColor=default;resizable=0;endArrow=none;endFill=0;" parent="1" source="i0QCQzi2DN3hbtzkU2qB-493" target="i0QCQzi2DN3hbtzkU2qB-34" edge="1">
          <mxGeometry relative="1" as="geometry">
            <Array as="points">
              <mxPoint x="6670" y="790" />
            </Array>
          </mxGeometry>
        </mxCell>
        <mxCell id="i0QCQzi2DN3hbtzkU2qB-496" value="(0, N)" style="edgeLabel;html=1;align=center;verticalAlign=middle;resizable=0;points=[];fontFamily=Helvetica;fontSize=12;fontColor=default;labelBackgroundColor=default;fillColor=none;gradientColor=none;" parent="i0QCQzi2DN3hbtzkU2qB-495" vertex="1" connectable="0">
          <mxGeometry x="-0.8094" y="-3" relative="1" as="geometry">
            <mxPoint x="-3" y="48" as="offset" />
          </mxGeometry>
        </mxCell>
        <mxCell id="i0QCQzi2DN3hbtzkU2qB-493" value="used in" style="shape=rhombus;perimeter=rhombusPerimeter;whiteSpace=wrap;html=1;align=center;fontFamily=Helvetica;fontSize=12;labelBackgroundColor=none;" parent="1" vertex="1">
          <mxGeometry x="6606" y="1425.43" width="120" height="60" as="geometry" />
        </mxCell>
        <mxCell id="i0QCQzi2DN3hbtzkU2qB-500" value="Rotation&lt;div&gt;direction&lt;/div&gt;" style="ellipse;whiteSpace=wrap;html=1;align=center;strokeColor=default;verticalAlign=middle;fontFamily=Helvetica;fontSize=12;fontColor=default;labelBackgroundColor=none;fillColor=default;" parent="1" vertex="1">
          <mxGeometry x="4468" y="2110" width="100" height="40" as="geometry" />
        </mxCell>
        <mxCell id="i0QCQzi2DN3hbtzkU2qB-501" value="Rotation&lt;div&gt;quantity&lt;/div&gt;" style="ellipse;whiteSpace=wrap;html=1;align=center;strokeColor=default;verticalAlign=middle;fontFamily=Helvetica;fontSize=12;fontColor=default;labelBackgroundColor=none;fillColor=default;" parent="1" vertex="1">
          <mxGeometry x="4566" y="2150" width="90" height="40" as="geometry" />
        </mxCell>
        <mxCell id="i0QCQzi2DN3hbtzkU2qB-502" value="Crop&lt;div&gt;proportions&lt;/div&gt;" style="ellipse;whiteSpace=wrap;html=1;align=center;strokeColor=default;verticalAlign=middle;fontFamily=Helvetica;fontSize=12;fontColor=default;labelBackgroundColor=none;fillColor=default;" parent="1" vertex="1">
          <mxGeometry x="4660" y="2180" width="100" height="47.33" as="geometry" />
        </mxCell>
        <mxCell id="i0QCQzi2DN3hbtzkU2qB-504" value="Text color" style="ellipse;whiteSpace=wrap;html=1;align=center;strokeColor=default;verticalAlign=middle;fontFamily=Helvetica;fontSize=12;fontColor=default;labelBackgroundColor=none;fillColor=default;" parent="1" vertex="1">
          <mxGeometry x="4877" y="1962.33" width="80" height="45" as="geometry" />
        </mxCell>
        <mxCell id="i0QCQzi2DN3hbtzkU2qB-505" value="Background&lt;div&gt;color&lt;/div&gt;" style="ellipse;whiteSpace=wrap;html=1;align=center;strokeColor=default;verticalAlign=middle;fontFamily=Helvetica;fontSize=12;fontColor=default;labelBackgroundColor=none;fillColor=default;" parent="1" vertex="1">
          <mxGeometry x="4877" y="2013" width="99.84" height="50" as="geometry" />
        </mxCell>
        <mxCell id="i0QCQzi2DN3hbtzkU2qB-510" value="OCR string&lt;div&gt;to read&lt;/div&gt;" style="ellipse;whiteSpace=wrap;html=1;align=center;strokeColor=default;verticalAlign=middle;fontFamily=Helvetica;fontSize=12;fontColor=default;labelBackgroundColor=none;fillColor=default;" parent="1" vertex="1">
          <mxGeometry x="4740" y="1880" width="100" height="45" as="geometry" />
        </mxCell>
        <mxCell id="i0QCQzi2DN3hbtzkU2qB-511" value="OCR int&lt;div&gt;to read&lt;/div&gt;" style="ellipse;whiteSpace=wrap;html=1;align=center;strokeColor=default;verticalAlign=middle;fontFamily=Helvetica;fontSize=12;fontColor=default;labelBackgroundColor=none;fillColor=default;" parent="1" vertex="1">
          <mxGeometry x="4806" y="1925.67" width="90" height="47.33" as="geometry" />
        </mxCell>
        <mxCell id="i0QCQzi2DN3hbtzkU2qB-513" value="OD class" style="ellipse;whiteSpace=wrap;html=1;align=center;strokeColor=default;verticalAlign=middle;fontFamily=Helvetica;fontSize=12;fontColor=default;labelBackgroundColor=none;fillColor=default;" parent="1" vertex="1">
          <mxGeometry x="4793.63" y="2161.67" width="90" height="40" as="geometry" />
        </mxCell>
        <mxCell id="i0QCQzi2DN3hbtzkU2qB-514" value="Flashing" style="ellipse;whiteSpace=wrap;html=1;align=center;strokeColor=default;verticalAlign=middle;fontFamily=Helvetica;fontSize=12;fontColor=default;labelBackgroundColor=none;fillColor=default;" parent="1" vertex="1">
          <mxGeometry x="4853" y="2101.33" width="80" height="40" as="geometry" />
        </mxCell>
        <mxCell id="i0QCQzi2DN3hbtzkU2qB-540" style="edgeStyle=none;shape=connector;rounded=0;orthogonalLoop=1;jettySize=auto;html=1;entryX=0.5;entryY=1;entryDx=0;entryDy=0;strokeColor=default;align=center;verticalAlign=middle;fontFamily=Helvetica;fontSize=12;fontColor=default;labelBackgroundColor=default;resizable=0;endArrow=none;endFill=0;" parent="1" source="i0QCQzi2DN3hbtzkU2qB-535" target="i0QCQzi2DN3hbtzkU2qB-536" edge="1">
          <mxGeometry relative="1" as="geometry" />
        </mxCell>
        <mxCell id="i0QCQzi2DN3hbtzkU2qB-541" style="edgeStyle=none;shape=connector;rounded=0;orthogonalLoop=1;jettySize=auto;html=1;entryX=0;entryY=1;entryDx=0;entryDy=0;strokeColor=default;align=center;verticalAlign=middle;fontFamily=Helvetica;fontSize=12;fontColor=default;labelBackgroundColor=default;resizable=0;endArrow=none;endFill=0;" parent="1" source="i0QCQzi2DN3hbtzkU2qB-535" target="i0QCQzi2DN3hbtzkU2qB-537" edge="1">
          <mxGeometry relative="1" as="geometry" />
        </mxCell>
        <mxCell id="i0QCQzi2DN3hbtzkU2qB-542" style="edgeStyle=none;shape=connector;rounded=0;orthogonalLoop=1;jettySize=auto;html=1;entryX=0;entryY=0.5;entryDx=0;entryDy=0;strokeColor=default;align=center;verticalAlign=middle;fontFamily=Helvetica;fontSize=12;fontColor=default;labelBackgroundColor=default;resizable=0;endArrow=none;endFill=0;" parent="1" source="i0QCQzi2DN3hbtzkU2qB-535" target="i0QCQzi2DN3hbtzkU2qB-539" edge="1">
          <mxGeometry relative="1" as="geometry" />
        </mxCell>
        <mxCell id="i0QCQzi2DN3hbtzkU2qB-535" value="CV alternation&lt;div&gt;atomic&lt;/div&gt;" style="whiteSpace=wrap;html=1;align=center;fontFamily=Helvetica;fontSize=12;labelBackgroundColor=none;" parent="1" vertex="1">
          <mxGeometry x="4299" y="2302.67" width="100" height="40" as="geometry" />
        </mxCell>
        <mxCell id="i0QCQzi2DN3hbtzkU2qB-536" value="Alternation&lt;div&gt;atomic name&lt;/div&gt;" style="ellipse;whiteSpace=wrap;html=1;align=center;strokeColor=#9673a6;verticalAlign=middle;fontFamily=Helvetica;fontSize=12;labelBackgroundColor=none;fillColor=#e1d5e7;" parent="1" vertex="1">
          <mxGeometry x="4220.29" y="2216.34" width="100" height="45" as="geometry" />
        </mxCell>
        <mxCell id="i0QCQzi2DN3hbtzkU2qB-537" value="CV atomic" style="ellipse;whiteSpace=wrap;html=1;align=center;strokeColor=#9673a6;verticalAlign=middle;fontFamily=Helvetica;fontSize=12;labelBackgroundColor=none;fillColor=#e1d5e7;" parent="1" vertex="1">
          <mxGeometry x="4368" y="2210" width="100" height="45" as="geometry" />
        </mxCell>
        <mxCell id="i0QCQzi2DN3hbtzkU2qB-539" value="order index" style="ellipse;whiteSpace=wrap;html=1;align=center;strokeColor=default;verticalAlign=middle;fontFamily=Helvetica;fontSize=12;fontColor=default;labelBackgroundColor=none;fillColor=default;" parent="1" vertex="1">
          <mxGeometry x="4468" y="2261.67" width="100" height="45" as="geometry" />
        </mxCell>
        <mxCell id="i0QCQzi2DN3hbtzkU2qB-545" style="edgeStyle=none;shape=connector;rounded=0;orthogonalLoop=1;jettySize=auto;html=1;entryX=1;entryY=0.25;entryDx=0;entryDy=0;strokeColor=default;align=center;verticalAlign=middle;fontFamily=Helvetica;fontSize=12;fontColor=default;labelBackgroundColor=default;resizable=0;endArrow=none;endFill=0;exitX=0;exitY=0.5;exitDx=0;exitDy=0;" parent="1" source="i0QCQzi2DN3hbtzkU2qB-543" target="i0QCQzi2DN3hbtzkU2qB-116" edge="1">
          <mxGeometry relative="1" as="geometry">
            <mxPoint x="4565.532386867791" y="1170.4238065661048" as="sourcePoint" />
          </mxGeometry>
        </mxCell>
        <mxCell id="i0QCQzi2DN3hbtzkU2qB-547" value="(1, 1)" style="edgeLabel;html=1;align=center;verticalAlign=middle;resizable=0;points=[];fontFamily=Helvetica;fontSize=12;fontColor=default;labelBackgroundColor=default;fillColor=none;gradientColor=none;" parent="i0QCQzi2DN3hbtzkU2qB-545" vertex="1" connectable="0">
          <mxGeometry x="-0.9004" y="1" relative="1" as="geometry">
            <mxPoint x="-27" y="-1" as="offset" />
          </mxGeometry>
        </mxCell>
        <mxCell id="i0QCQzi2DN3hbtzkU2qB-543" value="Available on" style="shape=rhombus;perimeter=rhombusPerimeter;whiteSpace=wrap;html=1;align=center;fontFamily=Helvetica;fontSize=12;labelBackgroundColor=none;" parent="1" vertex="1">
          <mxGeometry x="4650" y="1132" width="120" height="60" as="geometry" />
        </mxCell>
        <mxCell id="i0QCQzi2DN3hbtzkU2qB-548" value="Gripper values" style="ellipse;whiteSpace=wrap;html=1;align=center;fontFamily=Helvetica;fontSize=12;fontColor=default;labelBackgroundColor=none;" parent="1" vertex="1">
          <mxGeometry x="3193" y="2016.33" width="100" height="40" as="geometry" />
        </mxCell>
        <mxCell id="i0QCQzi2DN3hbtzkU2qB-549" value="Joints values" style="ellipse;whiteSpace=wrap;html=1;align=center;fontFamily=Helvetica;fontSize=12;fontColor=default;labelBackgroundColor=none;" parent="1" vertex="1">
          <mxGeometry x="3202" y="2061.33" width="100" height="40" as="geometry" />
        </mxCell>
        <mxCell id="i0QCQzi2DN3hbtzkU2qB-550" value="Offset pose" style="ellipse;whiteSpace=wrap;html=1;align=center;fontFamily=Helvetica;fontSize=12;fontColor=default;labelBackgroundColor=none;" parent="1" vertex="1">
          <mxGeometry x="3265" y="2101.33" width="100" height="40" as="geometry" />
        </mxCell>
        <mxCell id="i0QCQzi2DN3hbtzkU2qB-551" value="Force selection&lt;div&gt;vector&lt;/div&gt;" style="ellipse;whiteSpace=wrap;html=1;align=center;fontFamily=Helvetica;fontSize=12;fontColor=default;labelBackgroundColor=none;" parent="1" vertex="1">
          <mxGeometry x="3353" y="2130" width="100" height="40" as="geometry" />
        </mxCell>
        <mxCell id="i0QCQzi2DN3hbtzkU2qB-552" value="Force direction&lt;div&gt;vector&lt;/div&gt;" style="ellipse;whiteSpace=wrap;html=1;align=center;fontFamily=Helvetica;fontSize=12;fontColor=default;labelBackgroundColor=none;" parent="1" vertex="1">
          <mxGeometry x="3423" y="2090" width="100" height="40" as="geometry" />
        </mxCell>
        <mxCell id="i0QCQzi2DN3hbtzkU2qB-553" value="Force limits&lt;div&gt;vector&lt;/div&gt;" style="ellipse;whiteSpace=wrap;html=1;align=center;fontFamily=Helvetica;fontSize=12;fontColor=default;labelBackgroundColor=none;" parent="1" vertex="1">
          <mxGeometry x="3502" y="2061.33" width="100" height="40" as="geometry" />
        </mxCell>
        <mxCell id="i0QCQzi2DN3hbtzkU2qB-554" value="Force type" style="ellipse;whiteSpace=wrap;html=1;align=center;fontFamily=Helvetica;fontSize=12;fontColor=default;labelBackgroundColor=none;" parent="1" vertex="1">
          <mxGeometry x="3572.17" y="2023.6599999999999" width="100" height="40" as="geometry" />
        </mxCell>
        <mxCell id="i0QCQzi2DN3hbtzkU2qB-555" value="Threshold&lt;div&gt;target&amp;nbsp;&lt;span style=&quot;background-color: transparent; color: light-dark(rgb(0, 0, 0), rgb(255, 255, 255));&quot;&gt;value&lt;/span&gt;&lt;/div&gt;" style="ellipse;whiteSpace=wrap;html=1;align=center;fontFamily=Helvetica;fontSize=12;fontColor=default;labelBackgroundColor=none;" parent="1" vertex="1">
          <mxGeometry x="3603" y="1931.33" width="100" height="40" as="geometry" />
        </mxCell>
        <mxCell id="i0QCQzi2DN3hbtzkU2qB-556" value="Threshold selection vector" style="ellipse;whiteSpace=wrap;html=1;align=center;fontFamily=Helvetica;fontSize=12;fontColor=default;labelBackgroundColor=none;" parent="1" vertex="1">
          <mxGeometry x="3572.17" y="1886.33" width="100" height="40" as="geometry" />
        </mxCell>
        <mxCell id="i0QCQzi2DN3hbtzkU2qB-557" value="Component&lt;div&gt;target value&lt;/div&gt;" style="ellipse;whiteSpace=wrap;html=1;align=center;fontFamily=Helvetica;fontSize=12;fontColor=default;labelBackgroundColor=none;" parent="1" vertex="1">
          <mxGeometry x="3513" y="1846.33" width="100" height="40" as="geometry" />
        </mxCell>
        <mxCell id="i0QCQzi2DN3hbtzkU2qB-558" value="Task frame" style="ellipse;whiteSpace=wrap;html=1;align=center;fontFamily=Helvetica;fontSize=12;fontColor=default;labelBackgroundColor=none;" parent="1" vertex="1">
          <mxGeometry x="3426" y="1875.8400000000001" width="100" height="40" as="geometry" />
        </mxCell>
        <mxCell id="i0QCQzi2DN3hbtzkU2qB-559" value="Force time" style="ellipse;whiteSpace=wrap;html=1;align=center;fontFamily=Helvetica;fontSize=12;fontColor=default;labelBackgroundColor=none;" parent="1" vertex="1">
          <mxGeometry x="3602" y="1976.33" width="100" height="40" as="geometry" />
        </mxCell>
        <mxCell id="i0QCQzi2DN3hbtzkU2qB-560" style="edgeStyle=none;shape=connector;rounded=0;orthogonalLoop=1;jettySize=auto;html=1;entryX=0.5;entryY=1;entryDx=0;entryDy=0;strokeColor=default;align=center;verticalAlign=middle;fontFamily=Helvetica;fontSize=12;fontColor=default;labelBackgroundColor=default;resizable=0;endArrow=none;endFill=0;" parent="1" source="i0QCQzi2DN3hbtzkU2qB-157" target="i0QCQzi2DN3hbtzkU2qB-159" edge="1">
          <mxGeometry relative="1" as="geometry" />
        </mxCell>
        <mxCell id="i0QCQzi2DN3hbtzkU2qB-566" style="edgeStyle=none;shape=connector;rounded=0;orthogonalLoop=1;jettySize=auto;html=1;entryX=0.76;entryY=0.05;entryDx=0;entryDy=0;entryPerimeter=0;strokeColor=default;align=center;verticalAlign=middle;fontFamily=Helvetica;fontSize=12;fontColor=default;labelBackgroundColor=default;resizable=0;endArrow=none;endFill=0;" parent="1" source="i0QCQzi2DN3hbtzkU2qB-157" target="i0QCQzi2DN3hbtzkU2qB-550" edge="1">
          <mxGeometry relative="1" as="geometry" />
        </mxCell>
        <mxCell id="i0QCQzi2DN3hbtzkU2qB-575" style="edgeStyle=none;shape=connector;rounded=0;orthogonalLoop=1;jettySize=auto;html=1;entryX=0.367;entryY=0.979;entryDx=0;entryDy=0;entryPerimeter=0;strokeColor=default;align=center;verticalAlign=middle;fontFamily=Helvetica;fontSize=12;fontColor=default;labelBackgroundColor=default;resizable=0;endArrow=none;endFill=0;" parent="1" source="i0QCQzi2DN3hbtzkU2qB-157" target="i0QCQzi2DN3hbtzkU2qB-558" edge="1">
          <mxGeometry relative="1" as="geometry" />
        </mxCell>
        <mxCell id="i0QCQzi2DN3hbtzkU2qB-576" value="Total&lt;div style=&quot;font-size: 12px;&quot;&gt;screens&lt;/div&gt;" style="ellipse;whiteSpace=wrap;html=1;align=center;fontFamily=Helvetica;fontSize=12;fontColor=default;labelBackgroundColor=none;" parent="1" vertex="1">
          <mxGeometry x="3867" y="972.05" width="100" height="40" as="geometry" />
        </mxCell>
        <mxCell id="i0QCQzi2DN3hbtzkU2qB-577" value="Total&amp;nbsp;&lt;span style=&quot;background-color: transparent; color: light-dark(rgb(0, 0, 0), rgb(255, 255, 255));&quot;&gt;analogic&amp;nbsp;&lt;/span&gt;&lt;div style=&quot;font-size: 12px;&quot;&gt;displays&lt;/div&gt;" style="ellipse;whiteSpace=wrap;html=1;align=center;fontFamily=Helvetica;fontSize=12;fontColor=default;labelBackgroundColor=none;" parent="1" vertex="1">
          <mxGeometry x="3588.21" y="973.6700000000001" width="100" height="40" as="geometry" />
        </mxCell>
        <mxCell id="i0QCQzi2DN3hbtzkU2qB-578" value="Total levers" style="ellipse;whiteSpace=wrap;html=1;align=center;fontFamily=Helvetica;fontSize=12;fontColor=default;labelBackgroundColor=none;" parent="1" vertex="1">
          <mxGeometry x="3539.21" y="910.0000000000001" width="100" height="40" as="geometry" />
        </mxCell>
        <mxCell id="i0QCQzi2DN3hbtzkU2qB-579" value="Total knobs" style="ellipse;whiteSpace=wrap;html=1;align=center;fontFamily=Helvetica;fontSize=12;fontColor=default;labelBackgroundColor=none;" parent="1" vertex="1">
          <mxGeometry x="3521.21" y="844.1" width="100" height="40" as="geometry" />
        </mxCell>
        <mxCell id="i0QCQzi2DN3hbtzkU2qB-585" value="Feature type" style="ellipse;whiteSpace=wrap;html=1;align=center;fontFamily=Helvetica;fontSize=12;fontColor=default;labelBackgroundColor=none;" parent="1" vertex="1">
          <mxGeometry x="3539.21" y="1413.67" width="90" height="40" as="geometry" />
        </mxCell>
        <mxCell id="i0QCQzi2DN3hbtzkU2qB-586" value="Component type" style="ellipse;whiteSpace=wrap;html=1;align=center;fontFamily=Helvetica;fontSize=12;fontColor=default;labelBackgroundColor=none;" parent="1" vertex="1">
          <mxGeometry x="3460" y="1502.67" width="100" height="40" as="geometry" />
        </mxCell>
        <mxCell id="i0QCQzi2DN3hbtzkU2qB-587" value="Lever diameter" style="ellipse;whiteSpace=wrap;html=1;align=center;fontFamily=Helvetica;fontSize=12;fontColor=default;labelBackgroundColor=none;" parent="1" vertex="1">
          <mxGeometry x="3920" y="1555.34" width="85.5" height="44.66" as="geometry" />
        </mxCell>
        <mxCell id="i0QCQzi2DN3hbtzkU2qB-590" value="Conversion look&lt;div&gt;up table to display&lt;/div&gt;" style="ellipse;whiteSpace=wrap;html=1;align=center;fontFamily=Helvetica;fontSize=12;fontColor=default;labelBackgroundColor=none;" parent="1" vertex="1">
          <mxGeometry x="3944.21" y="1497.6700000000003" width="113.58" height="50" as="geometry" />
        </mxCell>
        <mxCell id="i0QCQzi2DN3hbtzkU2qB-591" value="Selection vector&lt;div&gt;look up table&lt;/div&gt;" style="ellipse;whiteSpace=wrap;html=1;align=center;fontFamily=Helvetica;fontSize=12;fontColor=default;labelBackgroundColor=none;" parent="1" vertex="1">
          <mxGeometry x="3913.21" y="1381.0000000000002" width="113.58" height="50" as="geometry" />
        </mxCell>
        <mxCell id="i0QCQzi2DN3hbtzkU2qB-592" value="Component&lt;div&gt;acutal value&lt;/div&gt;" style="ellipse;whiteSpace=wrap;html=1;align=center;fontFamily=Helvetica;fontSize=12;labelBackgroundColor=none;fillColor=#d5e8d4;strokeColor=#82b366;" parent="1" vertex="1">
          <mxGeometry x="3833" y="1350" width="100" height="40" as="geometry" />
        </mxCell>
        <mxCell id="i0QCQzi2DN3hbtzkU2qB-594" style="edgeStyle=none;shape=connector;rounded=0;orthogonalLoop=1;jettySize=auto;html=1;entryX=0;entryY=0.75;entryDx=0;entryDy=0;strokeColor=default;align=center;verticalAlign=middle;fontFamily=Helvetica;fontSize=12;fontColor=default;labelBackgroundColor=default;resizable=0;endArrow=none;endFill=0;exitX=0.5;exitY=0;exitDx=0;exitDy=0;" parent="1" source="i0QCQzi2DN3hbtzkU2qB-593" target="i0QCQzi2DN3hbtzkU2qB-448" edge="1">
          <mxGeometry relative="1" as="geometry">
            <Array as="points">
              <mxPoint x="3352" y="1481" />
            </Array>
          </mxGeometry>
        </mxCell>
        <mxCell id="i0QCQzi2DN3hbtzkU2qB-596" value="(1, 1)" style="edgeLabel;html=1;align=center;verticalAlign=middle;resizable=0;points=[];fontFamily=Helvetica;fontSize=12;fontColor=default;labelBackgroundColor=default;fillColor=none;gradientColor=none;" parent="i0QCQzi2DN3hbtzkU2qB-594" vertex="1" connectable="0">
          <mxGeometry x="-0.7322" relative="1" as="geometry">
            <mxPoint y="31" as="offset" />
          </mxGeometry>
        </mxCell>
        <mxCell id="i0QCQzi2DN3hbtzkU2qB-595" style="edgeStyle=none;shape=connector;rounded=0;orthogonalLoop=1;jettySize=auto;html=1;entryX=0;entryY=0.5;entryDx=0;entryDy=0;strokeColor=default;align=center;verticalAlign=middle;fontFamily=Helvetica;fontSize=12;fontColor=default;labelBackgroundColor=default;resizable=0;endArrow=none;endFill=0;exitX=0;exitY=0.5;exitDx=0;exitDy=0;" parent="1" source="i0QCQzi2DN3hbtzkU2qB-593" target="i0QCQzi2DN3hbtzkU2qB-82" edge="1">
          <mxGeometry relative="1" as="geometry">
            <Array as="points">
              <mxPoint x="3160" y="1600" />
              <mxPoint x="3160" y="1276" />
            </Array>
          </mxGeometry>
        </mxCell>
        <mxCell id="i0QCQzi2DN3hbtzkU2qB-597" value="(1, N)" style="edgeLabel;html=1;align=center;verticalAlign=middle;resizable=0;points=[];fontFamily=Helvetica;fontSize=12;fontColor=default;labelBackgroundColor=default;fillColor=none;gradientColor=none;" parent="i0QCQzi2DN3hbtzkU2qB-595" vertex="1" connectable="0">
          <mxGeometry x="-0.6746" y="-1" relative="1" as="geometry">
            <mxPoint x="42" y="1" as="offset" />
          </mxGeometry>
        </mxCell>
        <mxCell id="i0QCQzi2DN3hbtzkU2qB-593" value="Current state" style="shape=rhombus;perimeter=rhombusPerimeter;whiteSpace=wrap;html=1;align=center;fontFamily=Helvetica;fontSize=12;labelBackgroundColor=none;fillColor=#d5e8d4;strokeColor=#82b366;" parent="1" vertex="1">
          <mxGeometry x="3291.9999999999995" y="1570" width="120" height="60" as="geometry" />
        </mxCell>
        <mxCell id="i0QCQzi2DN3hbtzkU2qB-598" value="Reference component id" style="ellipse;whiteSpace=wrap;html=1;align=center;fontFamily=Helvetica;fontSize=12;fontColor=default;labelBackgroundColor=none;" parent="1" vertex="1">
          <mxGeometry x="3795.25" y="1277.6700000000003" width="113.58" height="50" as="geometry" />
        </mxCell>
        <mxCell id="i0QCQzi2DN3hbtzkU2qB-600" value="Text map on display" style="ellipse;whiteSpace=wrap;html=1;align=center;fontFamily=Helvetica;fontSize=12;fontColor=default;labelBackgroundColor=none;" parent="1" vertex="1">
          <mxGeometry x="3794.5" y="1585.34" width="85.5" height="44.66" as="geometry" />
        </mxCell>
        <mxCell id="i0QCQzi2DN3hbtzkU2qB-617" style="edgeStyle=none;shape=connector;rounded=0;orthogonalLoop=1;jettySize=auto;html=1;strokeColor=default;align=center;verticalAlign=middle;fontFamily=Helvetica;fontSize=12;fontColor=default;labelBackgroundColor=default;resizable=0;endArrow=none;endFill=0;entryX=0.329;entryY=0.985;entryDx=0;entryDy=0;entryPerimeter=0;" parent="1" source="i0QCQzi2DN3hbtzkU2qB-448" target="i0QCQzi2DN3hbtzkU2qB-598" edge="1">
          <mxGeometry relative="1" as="geometry">
            <mxPoint x="3830" y="1330" as="targetPoint" />
          </mxGeometry>
        </mxCell>
        <mxCell id="i0QCQzi2DN3hbtzkU2qB-619" style="edgeStyle=none;shape=connector;rounded=0;orthogonalLoop=1;jettySize=auto;html=1;entryX=0.943;entryY=0.3;entryDx=0;entryDy=0;entryPerimeter=0;strokeColor=default;align=center;verticalAlign=middle;fontFamily=Helvetica;fontSize=12;fontColor=default;labelBackgroundColor=default;resizable=0;endArrow=none;endFill=0;" parent="1" source="i0QCQzi2DN3hbtzkU2qB-116" target="i0QCQzi2DN3hbtzkU2qB-117" edge="1">
          <mxGeometry relative="1" as="geometry" />
        </mxCell>
        <mxCell id="i0QCQzi2DN3hbtzkU2qB-620" style="edgeStyle=none;shape=connector;rounded=0;orthogonalLoop=1;jettySize=auto;html=1;entryX=1;entryY=0.5;entryDx=0;entryDy=0;strokeColor=default;align=center;verticalAlign=middle;fontFamily=Helvetica;fontSize=12;fontColor=default;labelBackgroundColor=default;resizable=0;endArrow=none;endFill=0;" parent="1" source="i0QCQzi2DN3hbtzkU2qB-116" target="i0QCQzi2DN3hbtzkU2qB-118" edge="1">
          <mxGeometry relative="1" as="geometry" />
        </mxCell>
        <mxCell id="i0QCQzi2DN3hbtzkU2qB-621" style="edgeStyle=none;shape=connector;rounded=0;orthogonalLoop=1;jettySize=auto;html=1;entryX=0.902;entryY=0.789;entryDx=0;entryDy=0;entryPerimeter=0;strokeColor=default;align=center;verticalAlign=middle;fontFamily=Helvetica;fontSize=12;fontColor=default;labelBackgroundColor=default;resizable=0;endArrow=none;endFill=0;" parent="1" source="i0QCQzi2DN3hbtzkU2qB-116" target="i0QCQzi2DN3hbtzkU2qB-349" edge="1">
          <mxGeometry relative="1" as="geometry" />
        </mxCell>
        <mxCell id="i0QCQzi2DN3hbtzkU2qB-622" style="edgeStyle=none;shape=connector;rounded=0;orthogonalLoop=1;jettySize=auto;html=1;entryX=0.73;entryY=0.951;entryDx=0;entryDy=0;entryPerimeter=0;strokeColor=default;align=center;verticalAlign=middle;fontFamily=Helvetica;fontSize=12;fontColor=default;labelBackgroundColor=default;resizable=0;endArrow=none;endFill=0;" parent="1" source="i0QCQzi2DN3hbtzkU2qB-116" target="i0QCQzi2DN3hbtzkU2qB-121" edge="1">
          <mxGeometry relative="1" as="geometry" />
        </mxCell>
        <mxCell id="i0QCQzi2DN3hbtzkU2qB-623" style="edgeStyle=none;shape=connector;rounded=0;orthogonalLoop=1;jettySize=auto;html=1;entryX=0.545;entryY=0.998;entryDx=0;entryDy=0;entryPerimeter=0;strokeColor=default;align=center;verticalAlign=middle;fontFamily=Helvetica;fontSize=12;fontColor=default;labelBackgroundColor=default;resizable=0;endArrow=none;endFill=0;" parent="1" source="i0QCQzi2DN3hbtzkU2qB-116" target="i0QCQzi2DN3hbtzkU2qB-120" edge="1">
          <mxGeometry relative="1" as="geometry" />
        </mxCell>
        <mxCell id="i0QCQzi2DN3hbtzkU2qB-624" style="edgeStyle=none;shape=connector;rounded=0;orthogonalLoop=1;jettySize=auto;html=1;entryX=0.5;entryY=1;entryDx=0;entryDy=0;strokeColor=default;align=center;verticalAlign=middle;fontFamily=Helvetica;fontSize=12;fontColor=default;labelBackgroundColor=default;resizable=0;endArrow=none;endFill=0;" parent="1" source="i0QCQzi2DN3hbtzkU2qB-116" target="i0QCQzi2DN3hbtzkU2qB-122" edge="1">
          <mxGeometry relative="1" as="geometry" />
        </mxCell>
        <mxCell id="i0QCQzi2DN3hbtzkU2qB-629" style="edgeStyle=none;shape=connector;rounded=0;orthogonalLoop=1;jettySize=auto;html=1;entryX=0.5;entryY=1;entryDx=0;entryDy=0;strokeColor=default;align=center;verticalAlign=middle;fontFamily=Helvetica;fontSize=12;fontColor=default;labelBackgroundColor=default;resizable=0;endArrow=none;endFill=0;dashed=1;" parent="1" source="i0QCQzi2DN3hbtzkU2qB-627" target="i0QCQzi2DN3hbtzkU2qB-34" edge="1">
          <mxGeometry relative="1" as="geometry">
            <Array as="points">
              <mxPoint x="6530" y="1340" />
            </Array>
          </mxGeometry>
        </mxCell>
        <mxCell id="i0QCQzi2DN3hbtzkU2qB-631" value="(0, N)" style="edgeLabel;html=1;align=center;verticalAlign=middle;resizable=0;points=[];fontFamily=Helvetica;fontSize=12;fontColor=default;labelBackgroundColor=default;fillColor=none;gradientColor=none;" parent="i0QCQzi2DN3hbtzkU2qB-629" vertex="1" connectable="0">
          <mxGeometry x="-0.9222" y="1" relative="1" as="geometry">
            <mxPoint as="offset" />
          </mxGeometry>
        </mxCell>
        <mxCell id="i0QCQzi2DN3hbtzkU2qB-627" value="used in" style="shape=rhombus;perimeter=rhombusPerimeter;whiteSpace=wrap;html=1;align=center;fontFamily=Helvetica;fontSize=12;labelBackgroundColor=none;" parent="1" vertex="1">
          <mxGeometry x="5720" y="1307.77" width="120" height="60" as="geometry" />
        </mxCell>
        <mxCell id="i0QCQzi2DN3hbtzkU2qB-637" style="edgeStyle=none;shape=connector;rounded=0;orthogonalLoop=1;jettySize=auto;html=1;entryX=0.75;entryY=1;entryDx=0;entryDy=0;strokeColor=default;align=center;verticalAlign=middle;fontFamily=Helvetica;fontSize=12;fontColor=default;labelBackgroundColor=default;resizable=0;endArrow=none;endFill=0;dashed=1;dashPattern=1 2;" parent="1" source="i0QCQzi2DN3hbtzkU2qB-635" target="i0QCQzi2DN3hbtzkU2qB-34" edge="1">
          <mxGeometry relative="1" as="geometry">
            <Array as="points">
              <mxPoint x="6555" y="1540" />
            </Array>
          </mxGeometry>
        </mxCell>
        <mxCell id="i0QCQzi2DN3hbtzkU2qB-639" value="(0, N)" style="edgeLabel;html=1;align=center;verticalAlign=middle;resizable=0;points=[];fontFamily=Helvetica;fontSize=12;fontColor=default;labelBackgroundColor=default;fillColor=none;gradientColor=none;" parent="i0QCQzi2DN3hbtzkU2qB-637" vertex="1" connectable="0">
          <mxGeometry x="-0.946" relative="1" as="geometry">
            <mxPoint x="-1" as="offset" />
          </mxGeometry>
        </mxCell>
        <mxCell id="i0QCQzi2DN3hbtzkU2qB-635" value="used in" style="shape=rhombus;perimeter=rhombusPerimeter;whiteSpace=wrap;html=1;align=center;fontFamily=Helvetica;fontSize=12;labelBackgroundColor=none;" parent="1" vertex="1">
          <mxGeometry x="4786" y="1510" width="120" height="60" as="geometry" />
        </mxCell>
        <mxCell id="hS-PhOsIqo0_5e7brscb-6" style="rounded=0;orthogonalLoop=1;jettySize=auto;html=1;entryX=0.5;entryY=1;entryDx=0;entryDy=0;endArrow=none;startFill=0;" parent="1" source="hS-PhOsIqo0_5e7brscb-1" target="hS-PhOsIqo0_5e7brscb-5" edge="1">
          <mxGeometry relative="1" as="geometry" />
        </mxCell>
        <mxCell id="hS-PhOsIqo0_5e7brscb-9" style="edgeStyle=none;shape=connector;rounded=0;orthogonalLoop=1;jettySize=auto;html=1;entryX=1;entryY=1;entryDx=0;entryDy=0;strokeColor=default;align=center;verticalAlign=middle;fontFamily=Helvetica;fontSize=11;fontColor=default;labelBackgroundColor=default;startFill=0;endArrow=none;" parent="1" source="hS-PhOsIqo0_5e7brscb-1" target="hS-PhOsIqo0_5e7brscb-2" edge="1">
          <mxGeometry relative="1" as="geometry" />
        </mxCell>
        <mxCell id="hS-PhOsIqo0_5e7brscb-16" style="edgeStyle=none;shape=connector;rounded=0;orthogonalLoop=1;jettySize=auto;html=1;entryX=0;entryY=1;entryDx=0;entryDy=0;strokeColor=default;align=center;verticalAlign=middle;fontFamily=Helvetica;fontSize=11;fontColor=default;labelBackgroundColor=default;startFill=0;endArrow=none;" parent="1" source="hS-PhOsIqo0_5e7brscb-1" target="hS-PhOsIqo0_5e7brscb-11" edge="1">
          <mxGeometry relative="1" as="geometry" />
        </mxCell>
        <mxCell id="hS-PhOsIqo0_5e7brscb-17" style="edgeStyle=none;shape=connector;rounded=0;orthogonalLoop=1;jettySize=auto;html=1;entryX=0;entryY=0.5;entryDx=0;entryDy=0;strokeColor=default;align=center;verticalAlign=middle;fontFamily=Helvetica;fontSize=11;fontColor=default;labelBackgroundColor=default;startFill=0;endArrow=none;" parent="1" source="hS-PhOsIqo0_5e7brscb-1" target="hS-PhOsIqo0_5e7brscb-12" edge="1">
          <mxGeometry relative="1" as="geometry" />
        </mxCell>
        <mxCell id="hS-PhOsIqo0_5e7brscb-18" style="edgeStyle=none;shape=connector;rounded=0;orthogonalLoop=1;jettySize=auto;html=1;entryX=0;entryY=0.5;entryDx=0;entryDy=0;strokeColor=default;align=center;verticalAlign=middle;fontFamily=Helvetica;fontSize=11;fontColor=default;labelBackgroundColor=default;startFill=0;endArrow=none;" parent="1" source="hS-PhOsIqo0_5e7brscb-1" target="hS-PhOsIqo0_5e7brscb-13" edge="1">
          <mxGeometry relative="1" as="geometry" />
        </mxCell>
        <mxCell id="hS-PhOsIqo0_5e7brscb-1" value="Steps Report" style="whiteSpace=wrap;html=1;align=center;fontFamily=Helvetica;fontSize=12;labelBackgroundColor=none;" parent="1" vertex="1">
          <mxGeometry x="6910" y="950.1" width="100" height="40" as="geometry" />
        </mxCell>
        <mxCell id="hS-PhOsIqo0_5e7brscb-2" value="Execution ID" style="ellipse;whiteSpace=wrap;html=1;align=center;fontStyle=4;fontFamily=Helvetica;fontSize=12;labelBackgroundColor=none;fillColor=#fad7ac;strokeColor=#b46504;" parent="1" vertex="1">
          <mxGeometry x="6726" y="924" width="100" height="40" as="geometry" />
        </mxCell>
        <mxCell id="hS-PhOsIqo0_5e7brscb-3" value="Procedure ID" style="ellipse;whiteSpace=wrap;html=1;align=center;fontStyle=4;fontFamily=Helvetica;fontSize=12;labelBackgroundColor=none;fillColor=#fad9d5;strokeColor=#ae4132;" parent="1" vertex="1">
          <mxGeometry x="6760" y="870.1" width="100" height="40" as="geometry" />
        </mxCell>
        <mxCell id="hS-PhOsIqo0_5e7brscb-4" value="Step ID" style="ellipse;whiteSpace=wrap;html=1;align=center;fontStyle=4;fontFamily=Helvetica;fontSize=12;labelBackgroundColor=none;fillColor=#b0e3e6;strokeColor=#0e8088;" parent="1" vertex="1">
          <mxGeometry x="6820" y="829.1" width="100" height="40" as="geometry" />
        </mxCell>
        <mxCell id="hS-PhOsIqo0_5e7brscb-5" value="Counter" style="ellipse;whiteSpace=wrap;html=1;align=center;fontStyle=4;fontFamily=Helvetica;fontSize=12;labelBackgroundColor=none;fillColor=#d0cee2;strokeColor=#56517e;" parent="1" vertex="1">
          <mxGeometry x="6920" y="804" width="100" height="40" as="geometry" />
        </mxCell>
        <mxCell id="hS-PhOsIqo0_5e7brscb-7" style="edgeStyle=none;shape=connector;rounded=0;orthogonalLoop=1;jettySize=auto;html=1;entryX=0.697;entryY=0.936;entryDx=0;entryDy=0;entryPerimeter=0;strokeColor=default;align=center;verticalAlign=middle;fontFamily=Helvetica;fontSize=11;fontColor=default;labelBackgroundColor=default;startFill=0;endArrow=none;" parent="1" source="hS-PhOsIqo0_5e7brscb-1" target="hS-PhOsIqo0_5e7brscb-4" edge="1">
          <mxGeometry relative="1" as="geometry" />
        </mxCell>
        <mxCell id="hS-PhOsIqo0_5e7brscb-8" style="edgeStyle=none;shape=connector;rounded=0;orthogonalLoop=1;jettySize=auto;html=1;entryX=0.753;entryY=0.936;entryDx=0;entryDy=0;entryPerimeter=0;strokeColor=default;align=center;verticalAlign=middle;fontFamily=Helvetica;fontSize=11;fontColor=default;labelBackgroundColor=default;startFill=0;endArrow=none;" parent="1" source="hS-PhOsIqo0_5e7brscb-1" target="hS-PhOsIqo0_5e7brscb-3" edge="1">
          <mxGeometry relative="1" as="geometry" />
        </mxCell>
        <mxCell id="hS-PhOsIqo0_5e7brscb-10" value="Outcome" style="ellipse;whiteSpace=wrap;html=1;align=center;fontFamily=Helvetica;fontSize=12;fontColor=default;labelBackgroundColor=none;" parent="1" vertex="1">
          <mxGeometry x="7010" y="839.1" width="100" height="40" as="geometry" />
        </mxCell>
        <mxCell id="hS-PhOsIqo0_5e7brscb-11" value="Diagnostic message" style="ellipse;whiteSpace=wrap;html=1;align=center;fontFamily=Helvetica;fontSize=12;fontColor=default;labelBackgroundColor=none;" parent="1" vertex="1">
          <mxGeometry x="7080" y="878.1" width="100" height="40" as="geometry" />
        </mxCell>
        <mxCell id="hS-PhOsIqo0_5e7brscb-12" value="CV results" style="ellipse;whiteSpace=wrap;html=1;align=center;fontFamily=Helvetica;fontSize=12;fontColor=default;labelBackgroundColor=none;" parent="1" vertex="1">
          <mxGeometry x="7111" y="924" width="100" height="40" as="geometry" />
        </mxCell>
        <mxCell id="hS-PhOsIqo0_5e7brscb-13" value="Aural results" style="ellipse;whiteSpace=wrap;html=1;align=center;fontFamily=Helvetica;fontSize=12;fontColor=default;labelBackgroundColor=none;" parent="1" vertex="1">
          <mxGeometry x="7110" y="975.95" width="100" height="40" as="geometry" />
        </mxCell>
        <mxCell id="hS-PhOsIqo0_5e7brscb-14" value="Robotic results" style="ellipse;whiteSpace=wrap;html=1;align=center;fontFamily=Helvetica;fontSize=12;fontColor=default;labelBackgroundColor=none;" parent="1" vertex="1">
          <mxGeometry x="7100" y="1027.67" width="100" height="40" as="geometry" />
        </mxCell>
        <mxCell id="hS-PhOsIqo0_5e7brscb-15" style="edgeStyle=none;shape=connector;rounded=0;orthogonalLoop=1;jettySize=auto;html=1;entryX=0.311;entryY=0.949;entryDx=0;entryDy=0;entryPerimeter=0;strokeColor=default;align=center;verticalAlign=middle;fontFamily=Helvetica;fontSize=11;fontColor=default;labelBackgroundColor=default;startFill=0;endArrow=none;" parent="1" source="hS-PhOsIqo0_5e7brscb-1" target="hS-PhOsIqo0_5e7brscb-10" edge="1">
          <mxGeometry relative="1" as="geometry" />
        </mxCell>
        <mxCell id="hS-PhOsIqo0_5e7brscb-19" style="edgeStyle=none;shape=connector;rounded=0;orthogonalLoop=1;jettySize=auto;html=1;entryX=0.072;entryY=0.267;entryDx=0;entryDy=0;entryPerimeter=0;strokeColor=default;align=center;verticalAlign=middle;fontFamily=Helvetica;fontSize=11;fontColor=default;labelBackgroundColor=default;startFill=0;endArrow=none;" parent="1" source="hS-PhOsIqo0_5e7brscb-1" target="hS-PhOsIqo0_5e7brscb-14" edge="1">
          <mxGeometry relative="1" as="geometry" />
        </mxCell>
        <mxCell id="hS-PhOsIqo0_5e7brscb-29" style="edgeStyle=none;shape=connector;rounded=0;orthogonalLoop=1;jettySize=auto;html=1;entryX=0.5;entryY=1;entryDx=0;entryDy=0;strokeColor=default;align=center;verticalAlign=middle;fontFamily=Helvetica;fontSize=11;fontColor=default;labelBackgroundColor=default;startFill=0;endArrow=none;" parent="1" source="hS-PhOsIqo0_5e7brscb-20" target="hS-PhOsIqo0_5e7brscb-22" edge="1">
          <mxGeometry relative="1" as="geometry" />
        </mxCell>
        <mxCell id="hS-PhOsIqo0_5e7brscb-33" style="edgeStyle=none;shape=connector;rounded=0;orthogonalLoop=1;jettySize=auto;html=1;entryX=0;entryY=0.5;entryDx=0;entryDy=0;strokeColor=default;align=center;verticalAlign=middle;fontFamily=Helvetica;fontSize=11;fontColor=default;labelBackgroundColor=default;startFill=0;endArrow=none;" parent="1" source="hS-PhOsIqo0_5e7brscb-20" target="hS-PhOsIqo0_5e7brscb-26" edge="1">
          <mxGeometry relative="1" as="geometry" />
        </mxCell>
        <mxCell id="hS-PhOsIqo0_5e7brscb-34" style="edgeStyle=none;shape=connector;rounded=0;orthogonalLoop=1;jettySize=auto;html=1;entryX=0;entryY=0.5;entryDx=0;entryDy=0;strokeColor=default;align=center;verticalAlign=middle;fontFamily=Helvetica;fontSize=11;fontColor=default;labelBackgroundColor=default;startFill=0;endArrow=none;" parent="1" source="hS-PhOsIqo0_5e7brscb-20" target="hS-PhOsIqo0_5e7brscb-27" edge="1">
          <mxGeometry relative="1" as="geometry" />
        </mxCell>
        <mxCell id="hS-PhOsIqo0_5e7brscb-20" value="Steps Report Temp" style="whiteSpace=wrap;html=1;align=center;fontFamily=Helvetica;fontSize=12;labelBackgroundColor=none;" parent="1" vertex="1">
          <mxGeometry x="6940" y="1300" width="100" height="40" as="geometry" />
        </mxCell>
        <mxCell id="hS-PhOsIqo0_5e7brscb-21" value="Step ID" style="ellipse;whiteSpace=wrap;html=1;align=center;fontStyle=4;fontFamily=Helvetica;fontSize=12;labelBackgroundColor=none;fillColor=#b0e3e6;strokeColor=#0e8088;" parent="1" vertex="1">
          <mxGeometry x="6786" y="1260" width="100" height="40" as="geometry" />
        </mxCell>
        <mxCell id="hS-PhOsIqo0_5e7brscb-22" value="Counter" style="ellipse;whiteSpace=wrap;html=1;align=center;fontStyle=4;fontFamily=Helvetica;fontSize=12;labelBackgroundColor=none;fillColor=#d0cee2;strokeColor=#56517e;" parent="1" vertex="1">
          <mxGeometry x="6846" y="1190" width="100" height="40" as="geometry" />
        </mxCell>
        <mxCell id="hS-PhOsIqo0_5e7brscb-23" value="Outcome" style="ellipse;whiteSpace=wrap;html=1;align=center;fontFamily=Helvetica;fontSize=12;fontColor=default;labelBackgroundColor=none;" parent="1" vertex="1">
          <mxGeometry x="6986" y="1190" width="100" height="40" as="geometry" />
        </mxCell>
        <mxCell id="hS-PhOsIqo0_5e7brscb-24" value="Diagnostic message" style="ellipse;whiteSpace=wrap;html=1;align=center;fontFamily=Helvetica;fontSize=12;fontColor=default;labelBackgroundColor=none;" parent="1" vertex="1">
          <mxGeometry x="7086" y="1224.1" width="100" height="40" as="geometry" />
        </mxCell>
        <mxCell id="hS-PhOsIqo0_5e7brscb-25" value="CV results" style="ellipse;whiteSpace=wrap;html=1;align=center;fontFamily=Helvetica;fontSize=12;labelBackgroundColor=none;fillColor=#60a917;strokeColor=#2D7600;fontColor=#ffffff;" parent="1" vertex="1">
          <mxGeometry x="7117" y="1270" width="100" height="40" as="geometry" />
        </mxCell>
        <mxCell id="hS-PhOsIqo0_5e7brscb-26" value="Aural results" style="ellipse;whiteSpace=wrap;html=1;align=center;fontFamily=Helvetica;fontSize=12;labelBackgroundColor=none;fillColor=#1ba1e2;strokeColor=#006EAF;fontColor=#ffffff;" parent="1" vertex="1">
          <mxGeometry x="7116" y="1321.95" width="100" height="40" as="geometry" />
        </mxCell>
        <mxCell id="hS-PhOsIqo0_5e7brscb-27" value="Robotic results" style="ellipse;whiteSpace=wrap;html=1;align=center;fontFamily=Helvetica;fontSize=12;labelBackgroundColor=none;fillColor=#d80073;strokeColor=#A50040;fontColor=#ffffff;" parent="1" vertex="1">
          <mxGeometry x="7106" y="1373.67" width="100" height="40" as="geometry" />
        </mxCell>
        <mxCell id="hS-PhOsIqo0_5e7brscb-28" style="edgeStyle=none;shape=connector;rounded=0;orthogonalLoop=1;jettySize=auto;html=1;entryX=0.737;entryY=0.919;entryDx=0;entryDy=0;entryPerimeter=0;strokeColor=default;align=center;verticalAlign=middle;fontFamily=Helvetica;fontSize=11;fontColor=default;labelBackgroundColor=default;startFill=0;endArrow=none;" parent="1" source="hS-PhOsIqo0_5e7brscb-20" target="hS-PhOsIqo0_5e7brscb-21" edge="1">
          <mxGeometry relative="1" as="geometry" />
        </mxCell>
        <mxCell id="hS-PhOsIqo0_5e7brscb-30" style="edgeStyle=none;shape=connector;rounded=0;orthogonalLoop=1;jettySize=auto;html=1;entryX=0.324;entryY=0.951;entryDx=0;entryDy=0;entryPerimeter=0;strokeColor=default;align=center;verticalAlign=middle;fontFamily=Helvetica;fontSize=11;fontColor=default;labelBackgroundColor=default;startFill=0;endArrow=none;" parent="1" source="hS-PhOsIqo0_5e7brscb-20" target="hS-PhOsIqo0_5e7brscb-23" edge="1">
          <mxGeometry relative="1" as="geometry" />
        </mxCell>
        <mxCell id="hS-PhOsIqo0_5e7brscb-31" style="edgeStyle=none;shape=connector;rounded=0;orthogonalLoop=1;jettySize=auto;html=1;entryX=0.05;entryY=0.758;entryDx=0;entryDy=0;entryPerimeter=0;strokeColor=default;align=center;verticalAlign=middle;fontFamily=Helvetica;fontSize=11;fontColor=default;labelBackgroundColor=default;startFill=0;endArrow=none;" parent="1" source="hS-PhOsIqo0_5e7brscb-20" target="hS-PhOsIqo0_5e7brscb-24" edge="1">
          <mxGeometry relative="1" as="geometry" />
        </mxCell>
        <mxCell id="hS-PhOsIqo0_5e7brscb-32" style="edgeStyle=none;shape=connector;rounded=0;orthogonalLoop=1;jettySize=auto;html=1;entryX=0.032;entryY=0.649;entryDx=0;entryDy=0;entryPerimeter=0;strokeColor=default;align=center;verticalAlign=middle;fontFamily=Helvetica;fontSize=11;fontColor=default;labelBackgroundColor=default;startFill=0;endArrow=none;" parent="1" source="hS-PhOsIqo0_5e7brscb-20" target="hS-PhOsIqo0_5e7brscb-25" edge="1">
          <mxGeometry relative="1" as="geometry" />
        </mxCell>
        <mxCell id="hS-PhOsIqo0_5e7brscb-45" style="edgeStyle=none;shape=connector;rounded=0;orthogonalLoop=1;jettySize=auto;html=1;entryX=0;entryY=0.5;entryDx=0;entryDy=0;strokeColor=default;align=center;verticalAlign=middle;fontFamily=Helvetica;fontSize=11;fontColor=default;labelBackgroundColor=default;startFill=0;endArrow=none;" parent="1" source="hS-PhOsIqo0_5e7brscb-35" target="hS-PhOsIqo0_5e7brscb-40" edge="1">
          <mxGeometry relative="1" as="geometry" />
        </mxCell>
        <mxCell id="hS-PhOsIqo0_5e7brscb-35" value="CV Results Temp" style="whiteSpace=wrap;html=1;align=center;fontFamily=Helvetica;fontSize=12;labelBackgroundColor=none;fillColor=#60a917;strokeColor=#2D7600;fontColor=#ffffff;" parent="1" vertex="1">
          <mxGeometry x="6940" y="1652" width="100" height="40" as="geometry" />
        </mxCell>
        <mxCell id="hS-PhOsIqo0_5e7brscb-36" value="Atomic ID" style="ellipse;whiteSpace=wrap;html=1;align=center;fontStyle=4;fontFamily=Helvetica;fontSize=12;fontColor=default;labelBackgroundColor=none;" parent="1" vertex="1">
          <mxGeometry x="6780" y="1612" width="100" height="40" as="geometry" />
        </mxCell>
        <mxCell id="hS-PhOsIqo0_5e7brscb-37" value="TimeStamp" style="ellipse;whiteSpace=wrap;html=1;align=center;fontStyle=4;fontFamily=Helvetica;fontSize=12;fontColor=default;labelBackgroundColor=none;" parent="1" vertex="1">
          <mxGeometry x="6860" y="1563" width="100" height="40" as="geometry" />
        </mxCell>
        <mxCell id="hS-PhOsIqo0_5e7brscb-38" value="Frames list" style="ellipse;whiteSpace=wrap;html=1;align=center;fontFamily=Helvetica;fontSize=12;fontColor=default;labelBackgroundColor=none;" parent="1" vertex="1">
          <mxGeometry x="6986" y="1572" width="100" height="40" as="geometry" />
        </mxCell>
        <mxCell id="hS-PhOsIqo0_5e7brscb-40" value="Score" style="ellipse;whiteSpace=wrap;html=1;align=center;fontFamily=Helvetica;fontSize=12;fontColor=default;labelBackgroundColor=none;" parent="1" vertex="1">
          <mxGeometry x="7100" y="1622" width="100" height="40" as="geometry" />
        </mxCell>
        <mxCell id="hS-PhOsIqo0_5e7brscb-41" style="edgeStyle=none;shape=connector;rounded=0;orthogonalLoop=1;jettySize=auto;html=1;entryX=0.921;entryY=0.794;entryDx=0;entryDy=0;entryPerimeter=0;strokeColor=default;align=center;verticalAlign=middle;fontFamily=Helvetica;fontSize=11;fontColor=default;labelBackgroundColor=default;startFill=0;endArrow=none;" parent="1" source="hS-PhOsIqo0_5e7brscb-35" target="hS-PhOsIqo0_5e7brscb-36" edge="1">
          <mxGeometry relative="1" as="geometry" />
        </mxCell>
        <mxCell id="hS-PhOsIqo0_5e7brscb-42" style="edgeStyle=none;shape=connector;rounded=0;orthogonalLoop=1;jettySize=auto;html=1;entryX=0.729;entryY=0.945;entryDx=0;entryDy=0;entryPerimeter=0;strokeColor=default;align=center;verticalAlign=middle;fontFamily=Helvetica;fontSize=11;fontColor=default;labelBackgroundColor=default;startFill=0;endArrow=none;" parent="1" source="hS-PhOsIqo0_5e7brscb-35" target="hS-PhOsIqo0_5e7brscb-37" edge="1">
          <mxGeometry relative="1" as="geometry" />
        </mxCell>
        <mxCell id="hS-PhOsIqo0_5e7brscb-43" style="edgeStyle=none;shape=connector;rounded=0;orthogonalLoop=1;jettySize=auto;html=1;entryX=0.362;entryY=0.98;entryDx=0;entryDy=0;entryPerimeter=0;strokeColor=default;align=center;verticalAlign=middle;fontFamily=Helvetica;fontSize=11;fontColor=default;labelBackgroundColor=default;startFill=0;endArrow=none;" parent="1" source="hS-PhOsIqo0_5e7brscb-35" target="hS-PhOsIqo0_5e7brscb-38" edge="1">
          <mxGeometry relative="1" as="geometry" />
        </mxCell>
        <mxCell id="hS-PhOsIqo0_5e7brscb-47" value="Aural Results Temp" style="whiteSpace=wrap;html=1;align=center;fontFamily=Helvetica;fontSize=12;labelBackgroundColor=none;fillColor=#1ba1e2;strokeColor=#006EAF;fontColor=#ffffff;" parent="1" vertex="1">
          <mxGeometry x="6946" y="1826.5" width="100" height="40" as="geometry" />
        </mxCell>
        <mxCell id="hS-PhOsIqo0_5e7brscb-48" value="Atomic ID" style="ellipse;whiteSpace=wrap;html=1;align=center;fontStyle=4;fontFamily=Helvetica;fontSize=12;fontColor=default;labelBackgroundColor=none;" parent="1" vertex="1">
          <mxGeometry x="6786" y="1786.5" width="100" height="40" as="geometry" />
        </mxCell>
        <mxCell id="hS-PhOsIqo0_5e7brscb-49" value="TimeStamp" style="ellipse;whiteSpace=wrap;html=1;align=center;fontStyle=4;fontFamily=Helvetica;fontSize=12;fontColor=default;labelBackgroundColor=none;" parent="1" vertex="1">
          <mxGeometry x="6893" y="1742" width="100" height="40" as="geometry" />
        </mxCell>
        <mxCell id="hS-PhOsIqo0_5e7brscb-51" value="Audio recorded" style="ellipse;whiteSpace=wrap;html=1;align=center;fontFamily=Helvetica;fontSize=12;fontColor=default;labelBackgroundColor=none;" parent="1" vertex="1">
          <mxGeometry x="7110" y="1802" width="100" height="40" as="geometry" />
        </mxCell>
        <mxCell id="hS-PhOsIqo0_5e7brscb-53" style="edgeStyle=none;shape=connector;rounded=0;orthogonalLoop=1;jettySize=auto;html=1;entryX=0.921;entryY=0.794;entryDx=0;entryDy=0;entryPerimeter=0;strokeColor=default;align=center;verticalAlign=middle;fontFamily=Helvetica;fontSize=11;fontColor=default;labelBackgroundColor=default;startFill=0;endArrow=none;" parent="1" source="hS-PhOsIqo0_5e7brscb-47" target="hS-PhOsIqo0_5e7brscb-48" edge="1">
          <mxGeometry relative="1" as="geometry" />
        </mxCell>
        <mxCell id="hS-PhOsIqo0_5e7brscb-54" style="edgeStyle=none;shape=connector;rounded=0;orthogonalLoop=1;jettySize=auto;html=1;entryX=0.729;entryY=0.945;entryDx=0;entryDy=0;entryPerimeter=0;strokeColor=default;align=center;verticalAlign=middle;fontFamily=Helvetica;fontSize=11;fontColor=default;labelBackgroundColor=default;startFill=0;endArrow=none;" parent="1" source="hS-PhOsIqo0_5e7brscb-47" target="hS-PhOsIqo0_5e7brscb-49" edge="1">
          <mxGeometry relative="1" as="geometry" />
        </mxCell>
        <mxCell id="hS-PhOsIqo0_5e7brscb-56" style="edgeStyle=none;shape=connector;rounded=0;orthogonalLoop=1;jettySize=auto;html=1;entryX=0.054;entryY=0.708;entryDx=0;entryDy=0;entryPerimeter=0;strokeColor=default;align=center;verticalAlign=middle;fontFamily=Helvetica;fontSize=11;fontColor=default;labelBackgroundColor=default;startFill=0;endArrow=none;" parent="1" source="hS-PhOsIqo0_5e7brscb-47" target="hS-PhOsIqo0_5e7brscb-51" edge="1">
          <mxGeometry relative="1" as="geometry" />
        </mxCell>
        <mxCell id="hS-PhOsIqo0_5e7brscb-57" value="Robotic Results Temp" style="whiteSpace=wrap;html=1;align=center;fontFamily=Helvetica;fontSize=12;labelBackgroundColor=none;fillColor=#d80073;fontColor=#ffffff;strokeColor=#A50040;" parent="1" vertex="1">
          <mxGeometry x="6953" y="2003.33" width="100" height="40" as="geometry" />
        </mxCell>
        <mxCell id="hS-PhOsIqo0_5e7brscb-58" value="Atomic ID" style="ellipse;whiteSpace=wrap;html=1;align=center;fontStyle=4;fontFamily=Helvetica;fontSize=12;fontColor=default;labelBackgroundColor=none;" parent="1" vertex="1">
          <mxGeometry x="6793" y="1963.33" width="100" height="40" as="geometry" />
        </mxCell>
        <mxCell id="hS-PhOsIqo0_5e7brscb-59" value="TimeStamp" style="ellipse;whiteSpace=wrap;html=1;align=center;fontStyle=4;fontFamily=Helvetica;fontSize=12;fontColor=default;labelBackgroundColor=none;" parent="1" vertex="1">
          <mxGeometry x="6873" y="1914.33" width="100" height="40" as="geometry" />
        </mxCell>
        <mxCell id="hS-PhOsIqo0_5e7brscb-60" value="Registered force profile" style="ellipse;whiteSpace=wrap;html=1;align=center;fontFamily=Helvetica;fontSize=12;fontColor=default;labelBackgroundColor=none;" parent="1" vertex="1">
          <mxGeometry x="7100" y="1962.71" width="110" height="47.29" as="geometry" />
        </mxCell>
        <mxCell id="hS-PhOsIqo0_5e7brscb-62" style="edgeStyle=none;shape=connector;rounded=0;orthogonalLoop=1;jettySize=auto;html=1;entryX=0.921;entryY=0.794;entryDx=0;entryDy=0;entryPerimeter=0;strokeColor=default;align=center;verticalAlign=middle;fontFamily=Helvetica;fontSize=11;fontColor=default;labelBackgroundColor=default;startFill=0;endArrow=none;" parent="1" source="hS-PhOsIqo0_5e7brscb-57" target="hS-PhOsIqo0_5e7brscb-58" edge="1">
          <mxGeometry relative="1" as="geometry" />
        </mxCell>
        <mxCell id="hS-PhOsIqo0_5e7brscb-63" style="edgeStyle=none;shape=connector;rounded=0;orthogonalLoop=1;jettySize=auto;html=1;entryX=0.729;entryY=0.945;entryDx=0;entryDy=0;entryPerimeter=0;strokeColor=default;align=center;verticalAlign=middle;fontFamily=Helvetica;fontSize=11;fontColor=default;labelBackgroundColor=default;startFill=0;endArrow=none;" parent="1" source="hS-PhOsIqo0_5e7brscb-57" target="hS-PhOsIqo0_5e7brscb-59" edge="1">
          <mxGeometry relative="1" as="geometry" />
        </mxCell>
        <mxCell id="hS-PhOsIqo0_5e7brscb-64" style="edgeStyle=none;shape=connector;rounded=0;orthogonalLoop=1;jettySize=auto;html=1;entryX=0;entryY=1;entryDx=0;entryDy=0;strokeColor=default;align=center;verticalAlign=middle;fontFamily=Helvetica;fontSize=11;fontColor=default;labelBackgroundColor=default;startFill=0;endArrow=none;" parent="1" source="hS-PhOsIqo0_5e7brscb-57" target="hS-PhOsIqo0_5e7brscb-60" edge="1">
          <mxGeometry relative="1" as="geometry" />
        </mxCell>
        <mxCell id="hS-PhOsIqo0_5e7brscb-66" value="" style="shape=curlyBracket;whiteSpace=wrap;html=1;rounded=1;flipH=1;labelPosition=right;verticalLabelPosition=middle;align=left;verticalAlign=middle;fontFamily=Helvetica;fontSize=11;labelBackgroundColor=default;size=0.4;strokeWidth=3;fillColor=#f8cecc;strokeColor=#b85450;" parent="1" vertex="1">
          <mxGeometry x="7217" y="1524.33" width="50" height="545.67" as="geometry" />
        </mxCell>
        <mxCell id="hS-PhOsIqo0_5e7brscb-67" value="&lt;font&gt;Temporary tables accessed in write at runtime&amp;nbsp;&lt;/font&gt;&lt;div&gt;&lt;font&gt;by the hardware nodes,&amp;nbsp;&lt;/font&gt;&lt;span style=&quot;background-color: light-dark(rgb(227, 109, 109), rgb(237, 237, 237)); color: light-dark(rgb(0, 0, 0), rgb(255, 255, 255));&quot;&gt;where for each significant atomic&amp;nbsp;&lt;/span&gt;&lt;/div&gt;&lt;div&gt;&lt;span style=&quot;background-color: light-dark(rgb(227, 109, 109), rgb(237, 237, 237)); color: light-dark(rgb(0, 0, 0), rgb(255, 255, 255));&quot;&gt;they save a detailed result useful for validating the step;&amp;nbsp;&lt;/span&gt;&lt;div&gt;&lt;font&gt;while in read they are accessed by the bt_plugin&amp;nbsp;&lt;/font&gt;&lt;/div&gt;&lt;div&gt;&lt;font&gt;at the end of the step, when all the atomic are finished.&lt;/font&gt;&lt;/div&gt;&lt;/div&gt;&lt;div&gt;&lt;font&gt;The content&#39;s tables is deleted at the end of each step&lt;/font&gt;&lt;/div&gt;&lt;div&gt;&lt;font&gt;from bt_pugins.&lt;/font&gt;&lt;/div&gt;" style="text;html=1;align=center;verticalAlign=middle;resizable=0;points=[];autosize=1;strokeColor=none;fillColor=none;fontFamily=Helvetica;fontSize=17;fontColor=default;labelBackgroundColor=light-dark(#e36d6d, #ededed);fontStyle=1" parent="1" vertex="1">
          <mxGeometry x="7310" y="1726.5" width="460" height="160" as="geometry" />
        </mxCell>
        <mxCell id="hS-PhOsIqo0_5e7brscb-68" value="" style="shape=curlyBracket;whiteSpace=wrap;html=1;rounded=1;flipH=1;labelPosition=right;verticalLabelPosition=middle;align=left;verticalAlign=middle;fontFamily=Helvetica;fontSize=11;labelBackgroundColor=default;size=0.4;strokeWidth=3;fillColor=#d5e8d4;strokeColor=#82b366;" parent="1" vertex="1">
          <mxGeometry x="7240" y="1142.17" width="50" height="297.83" as="geometry" />
        </mxCell>
        <mxCell id="hS-PhOsIqo0_5e7brscb-69" value="Temporary table that is accessed in write at runtime&amp;nbsp;&lt;div&gt;by the bt_plugin at the end of the step,&amp;nbsp;&lt;/div&gt;&lt;div&gt;saving the data it extracts from the tables&amp;nbsp;&lt;span style=&quot;color: light-dark(rgb(0, 0, 0), rgb(255, 255, 255));&quot;&gt;in the form of structured text;&amp;nbsp;&lt;/span&gt;&lt;/div&gt;&lt;div&gt;while it is accessed in read by the Server at the end of the procedure&lt;/div&gt;" style="text;html=1;align=center;verticalAlign=middle;resizable=0;points=[];autosize=1;strokeColor=none;fillColor=none;fontFamily=Helvetica;fontSize=17;fontColor=default;labelBackgroundColor=light-dark(#9dd558, #ededed);fontStyle=1" parent="1" vertex="1">
          <mxGeometry x="7330" y="1235.44" width="560" height="100" as="geometry" />
        </mxCell>
        <mxCell id="hS-PhOsIqo0_5e7brscb-70" value="" style="shape=curlyBracket;whiteSpace=wrap;html=1;rounded=1;flipH=1;labelPosition=right;verticalLabelPosition=middle;align=left;verticalAlign=middle;fontFamily=Helvetica;fontSize=11;labelBackgroundColor=default;size=0.4;strokeWidth=3;fillColor=#dae8fc;strokeColor=#6c8ebf;" parent="1" vertex="1">
          <mxGeometry x="7217" y="770" width="50" height="322.92" as="geometry" />
        </mxCell>
        <mxCell id="hS-PhOsIqo0_5e7brscb-71" value="Permanent table accessed only by the Server,&amp;nbsp;&lt;div&gt;where it saves at the end of each executed procedure&amp;nbsp;&lt;/div&gt;&lt;div&gt;(independent of whether the queue consists of several procedures)&amp;nbsp;&lt;/div&gt;&lt;div&gt;all the results of the steps belonging to it. Finally, the table below is emptied.&lt;/div&gt;" style="text;html=1;align=center;verticalAlign=middle;resizable=0;points=[];autosize=1;strokeColor=none;fillColor=none;fontFamily=Helvetica;fontSize=17;fontColor=#FFFFFF;labelBackgroundColor=light-dark(#3d419e, #ededed);fontStyle=1" parent="1" vertex="1">
          <mxGeometry x="7300" y="884.1" width="590" height="100" as="geometry" />
        </mxCell>
        <mxCell id="n_BSZhQ5kt1IhgQQ_HuM-2" value="End timestamp" style="ellipse;whiteSpace=wrap;html=1;align=center;fontFamily=Helvetica;fontSize=12;fontColor=default;labelBackgroundColor=none;" parent="1" vertex="1">
          <mxGeometry x="6060" y="924" width="100" height="40" as="geometry" />
        </mxCell>
        <mxCell id="n_BSZhQ5kt1IhgQQ_HuM-3" value="ID" style="ellipse;whiteSpace=wrap;html=1;align=center;strokeColor=default;verticalAlign=middle;fontFamily=Helvetica;fontSize=12;fontColor=default;labelBackgroundColor=none;fillColor=default;fontStyle=4" parent="1" vertex="1">
          <mxGeometry x="4155.71" y="2280.67" width="100" height="45" as="geometry" />
        </mxCell>
        <mxCell id="n_BSZhQ5kt1IhgQQ_HuM-5" style="edgeStyle=none;shape=connector;rounded=0;orthogonalLoop=1;jettySize=auto;html=1;entryX=0.944;entryY=0.696;entryDx=0;entryDy=0;entryPerimeter=0;strokeColor=default;align=center;verticalAlign=middle;fontFamily=Helvetica;fontSize=12;fontColor=default;labelBackgroundColor=default;resizable=0;endArrow=none;endFill=0;" parent="1" source="i0QCQzi2DN3hbtzkU2qB-535" target="n_BSZhQ5kt1IhgQQ_HuM-3" edge="1">
          <mxGeometry relative="1" as="geometry" />
        </mxCell>
        <mxCell id="6fv03WWBWB9XmXpJp7VS-1" value="Number of&amp;nbsp;&lt;div&gt;texts on display&lt;/div&gt;" style="ellipse;whiteSpace=wrap;html=1;align=center;fontFamily=Helvetica;fontSize=12;fontColor=default;labelBackgroundColor=none;" parent="1" vertex="1">
          <mxGeometry x="3880" y="1603" width="102.33" height="44.66" as="geometry" />
        </mxCell>
        <mxCell id="6fv03WWBWB9XmXpJp7VS-2" style="edgeStyle=none;shape=connector;rounded=0;orthogonalLoop=1;jettySize=auto;html=1;entryX=0.796;entryY=1.022;entryDx=0;entryDy=0;strokeColor=default;align=center;verticalAlign=middle;fontFamily=Helvetica;fontSize=12;fontColor=default;labelBackgroundColor=default;resizable=0;endArrow=none;endFill=0;entryPerimeter=0;" parent="1" source="6fv03WWBWB9XmXpJp7VS-1" target="i0QCQzi2DN3hbtzkU2qB-448" edge="1">
          <mxGeometry relative="1" as="geometry" />
        </mxCell>
        <mxCell id="WzgtQ1MOxhjllaLI0eDG-1" value="Panels folder&lt;div&gt;name&lt;/div&gt;" style="ellipse;whiteSpace=wrap;html=1;align=center;strokeColor=default;verticalAlign=middle;fontFamily=Helvetica;fontSize=12;fontColor=default;fillColor=default;labelBackgroundColor=none;" parent="1" vertex="1">
          <mxGeometry x="4998.63" y="779.2" width="100" height="40" as="geometry" />
        </mxCell>
        <mxCell id="WzgtQ1MOxhjllaLI0eDG-3" style="edgeStyle=none;shape=connector;rounded=0;orthogonalLoop=1;jettySize=auto;html=1;entryX=0.331;entryY=0.995;entryDx=0;entryDy=0;entryPerimeter=0;strokeColor=default;align=center;verticalAlign=middle;fontFamily=Helvetica;fontSize=12;fontColor=default;labelBackgroundColor=none;autosize=1;resizable=0;endArrow=none;endFill=0;" parent="1" source="i0QCQzi2DN3hbtzkU2qB-9" target="WzgtQ1MOxhjllaLI0eDG-1" edge="1">
          <mxGeometry relative="1" as="geometry" />
        </mxCell>
        <mxCell id="vnqtRoP5cehh_M1OrcF_-2" style="edgeStyle=none;shape=connector;rounded=0;orthogonalLoop=1;jettySize=auto;html=1;entryX=0.5;entryY=1;entryDx=0;entryDy=0;strokeColor=default;align=center;verticalAlign=middle;fontFamily=Helvetica;fontSize=12;fontColor=default;labelBackgroundColor=none;endArrow=none;endFill=0;" edge="1" parent="1" source="vnqtRoP5cehh_M1OrcF_-1" target="i0QCQzi2DN3hbtzkU2qB-448">
          <mxGeometry relative="1" as="geometry">
            <Array as="points">
              <mxPoint x="3765" y="2070" />
            </Array>
          </mxGeometry>
        </mxCell>
        <mxCell id="vnqtRoP5cehh_M1OrcF_-1" value="Feature to crop" style="shape=rhombus;perimeter=rhombusPerimeter;whiteSpace=wrap;html=1;align=center;fontFamily=Helvetica;fontSize=12;labelBackgroundColor=none;" vertex="1" parent="1">
          <mxGeometry x="3910" y="2041.33" width="120" height="60" as="geometry" />
        </mxCell>
        <mxCell id="vnqtRoP5cehh_M1OrcF_-4" value="(0, N)" style="text;html=1;align=center;verticalAlign=middle;resizable=0;points=[];autosize=1;strokeColor=none;fillColor=none;fontFamily=Helvetica;fontSize=12;fontColor=default;labelBackgroundColor=default;" vertex="1" parent="1">
          <mxGeometry x="3833" y="2056.33" width="50" height="30" as="geometry" />
        </mxCell>
        <mxCell id="vnqtRoP5cehh_M1OrcF_-7" value="Min opening" style="ellipse;whiteSpace=wrap;html=1;align=center;strokeColor=default;verticalAlign=middle;fontFamily=Helvetica;fontSize=12;fontColor=default;labelBackgroundColor=none;fillColor=default;" vertex="1" parent="1">
          <mxGeometry x="4400" y="1025" width="100" height="40" as="geometry" />
        </mxCell>
        <mxCell id="vnqtRoP5cehh_M1OrcF_-8" value="Max opening" style="ellipse;whiteSpace=wrap;html=1;align=center;strokeColor=default;verticalAlign=middle;fontFamily=Helvetica;fontSize=12;fontColor=default;labelBackgroundColor=none;fillColor=default;" vertex="1" parent="1">
          <mxGeometry x="4458" y="1067.67" width="100" height="40" as="geometry" />
        </mxCell>
        <mxCell id="vnqtRoP5cehh_M1OrcF_-9" style="edgeStyle=none;shape=connector;rounded=0;orthogonalLoop=1;jettySize=auto;html=1;entryX=0.299;entryY=0.971;entryDx=0;entryDy=0;entryPerimeter=0;strokeColor=default;align=center;verticalAlign=middle;fontFamily=Helvetica;fontSize=12;fontColor=default;labelBackgroundColor=default;resizable=0;endArrow=none;endFill=0;" edge="1" parent="1" source="i0QCQzi2DN3hbtzkU2qB-116" target="vnqtRoP5cehh_M1OrcF_-7">
          <mxGeometry relative="1" as="geometry" />
        </mxCell>
      </root>
    </mxGraphModel>
  </diagram>
</mxfile>
